Fraternidad-ExtraBold.ufo
<glyph name="exclam" format="2">
  <advance width="752"/>
  <unicode hex="0021"/>
  <outline>
    <component base="period" xOffset="56"/>
    <contour>
      <point x="260" y="420" type="line"/>
      <point x="220" y="1440" type="line"/>
      <point x="532" y="1440" type="line"/>
      <point x="492" y="420" type="line"/>
    </contour>
  </outline>
</glyph>
<glyph name="numbersign" format="2">
  <advance width="1870"/>
  <unicode hex="0023"/>
  <outline>
    <contour>
      <point x="366" y="2" type="line"/>
      <point x="468" y="378" type="line"/>
      <point x="120" y="378" type="line"/>
      <point x="188" y="634" type="line"/>
      <point x="536" y="634" type="line"/>
      <point x="590" y="840" type="line"/>
      <point x="242" y="840" type="line"/>
      <point x="312" y="1094" type="line"/>
      <point x="658" y="1094" type="line"/>
      <point x="752" y="1440" type="line"/>
      <point x="1016" y="1440" type="line"/>
      <point x="922" y="1094" type="line"/>
      <point x="1138" y="1094" type="line"/>
      <point x="1232" y="1440" type="line"/>
      <point x="1496" y="1440" type="line"/>
      <point x="1402" y="1094" type="line"/>
      <point x="1750" y="1094" type="line"/>
      <point x="1682" y="840" type="line"/>
      <point x="1334" y="840" type="line"/>
      <point x="1278" y="634" type="line"/>
      <point x="1626" y="634" type="line"/>
      <point x="1558" y="378" type="line"/>
      <point x="1210" y="378" type="line"/>
      <point x="1110" y="2" type="line"/>
      <point x="846" y="2" type="line"/>
      <point x="946" y="378" type="line"/>
      <point x="730" y="378" type="line"/>
      <point x="630" y="2" type="line"/>
    </contour>
    <contour>
      <point x="800" y="634" type="line"/>
      <point x="1014" y="634" type="line"/>
      <point x="1070" y="840" type="line"/>
      <point x="854" y="840" type="line"/>
    </contour>
  </outline>
</glyph>
<glyph name="dollar" format="2">
  <advance width="1282"/>
  <unicode hex="0024"/>
  <outline>
    <contour>
      <point x="516" y="-200" type="line"/>
      <point x="516" y="40" type="line"/>
      <point x="788" y="40" type="line"/>
      <point x="788" y="-200" type="line"/>
    </contour>
    <contour>
      <point x="516" y="1398" type="line"/>
      <point x="516" y="1638" type="line"/>
      <point x="788" y="1638" type="line"/>
      <point x="788" y="1398" type="line"/>
    </contour>
    <contour>
      <point x="654" y="-30" type="qcurve" smooth="yes"/>
      <point x="499" y="-30"/>
      <point x="255" y="85"/>
      <point x="101" y="296"/>
      <point x="80" y="440" type="qcurve"/>
      <point x="350" y="482" type="line"/>
      <point x="377" y="364"/>
      <point x="550" y="224"/>
      <point x="670" y="224" type="qcurve" smooth="yes"/>
      <point x="783" y="224"/>
      <point x="932" y="330"/>
      <point x="932" y="408" type="qcurve" smooth="yes"/>
      <point x="932" y="461"/>
      <point x="867" y="530"/>
      <point x="798" y="552" type="qcurve" smooth="yes"/>
      <point x="442" y="662" type="line" smooth="yes"/>
      <point x="134" y="757"/>
      <point x="134" y="1038" type="qcurve" smooth="yes"/>
      <point x="134" y="1170"/>
      <point x="259" y="1364"/>
      <point x="488" y="1469"/>
      <point x="644" y="1468" type="qcurve"/>
      <point x="787" y="1466"/>
      <point x="1009" y="1367"/>
      <point x="1158" y="1180"/>
      <point x="1192" y="1046" type="qcurve"/>
      <point x="912" y="996" type="line"/>
      <point x="898" y="1060"/>
      <point x="822" y="1157"/>
      <point x="709" y="1212"/>
      <point x="640" y="1214" type="qcurve" smooth="yes"/>
      <point x="574" y="1216"/>
      <point x="467" y="1174"/>
      <point x="404" y="1099"/>
      <point x="404" y="1052" type="qcurve" smooth="yes"/>
      <point x="404" y="1000"/>
      <point x="492" y="925"/>
      <point x="588" y="898" type="qcurve" smooth="yes"/>
      <point x="842" y="826" type="line" smooth="yes"/>
      <point x="1033" y="771"/>
      <point x="1202" y="583"/>
      <point x="1202" y="428" type="qcurve" smooth="yes"/>
      <point x="1202" y="292"/>
      <point x="1064" y="86"/>
      <point x="817" y="-30"/>
    </contour>
  </outline>
</glyph>
<glyph name="percent" format="2">
  <advance width="1800"/>
  <unicode hex="0025"/>
  <outline>
    <contour>
      <point x="360" y="0" type="line"/>
      <point x="180" y="180" type="line"/>
      <point x="1440" y="1440" type="line"/>
      <point x="1620" y="1258" type="line"/>
    </contour>
    <contour>
      <point x="1320" y="-30" type="qcurve" smooth="yes"/>
      <point x="1221" y="-30"/>
      <point x="1058" y="67"/>
      <point x="960" y="230"/>
      <point x="960" y="330" type="qcurve" smooth="yes"/>
      <point x="960" y="428"/>
      <point x="1060" y="592"/>
      <point x="1224" y="690"/>
      <point x="1320" y="690" type="qcurve" smooth="yes"/>
      <point x="1419" y="690"/>
      <point x="1583" y="593"/>
      <point x="1680" y="430"/>
      <point x="1680" y="330" type="qcurve" smooth="yes"/>
      <point x="1680" y="230"/>
      <point x="1583" y="67"/>
      <point x="1419" y="-30"/>
    </contour>
    <contour>
      <point x="1320" y="200" type="qcurve" smooth="yes"/>
      <point x="1355" y="200"/>
      <point x="1414" y="236"/>
      <point x="1450" y="295"/>
      <point x="1450" y="330" type="qcurve" smooth="yes"/>
      <point x="1450" y="365"/>
      <point x="1414" y="424"/>
      <point x="1355" y="460"/>
      <point x="1320" y="460" type="qcurve" smooth="yes"/>
      <point x="1285" y="460"/>
      <point x="1226" y="424"/>
      <point x="1190" y="365"/>
      <point x="1190" y="330" type="qcurve" smooth="yes"/>
      <point x="1190" y="295"/>
      <point x="1226" y="236"/>
      <point x="1285" y="200"/>
    </contour>
    <contour>
      <point x="480" y="750" type="qcurve" smooth="yes"/>
      <point x="381" y="750"/>
      <point x="217" y="847"/>
      <point x="120" y="1010"/>
      <point x="120" y="1110" type="qcurve" smooth="yes"/>
      <point x="120" y="1208"/>
      <point x="220" y="1372"/>
      <point x="384" y="1470"/>
      <point x="480" y="1470" type="qcurve" smooth="yes"/>
      <point x="579" y="1470"/>
      <point x="742" y="1373"/>
      <point x="840" y="1210"/>
      <point x="840" y="1110" type="qcurve" smooth="yes"/>
      <point x="840" y="1010"/>
      <point x="742" y="847"/>
      <point x="579" y="750"/>
    </contour>
    <contour>
      <point x="480" y="980" type="qcurve" smooth="yes"/>
      <point x="515" y="980"/>
      <point x="574" y="1016"/>
      <point x="610" y="1075"/>
      <point x="610" y="1110" type="qcurve" smooth="yes"/>
      <point x="610" y="1145"/>
      <point x="574" y="1204"/>
      <point x="515" y="1240"/>
      <point x="480" y="1240" type="qcurve" smooth="yes"/>
      <point x="445" y="1240"/>
      <point x="386" y="1204"/>
      <point x="350" y="1145"/>
      <point x="350" y="1110" type="qcurve" smooth="yes"/>
      <point x="350" y="1075"/>
      <point x="386" y="1016"/>
      <point x="445" y="980"/>
    </contour>
  </outline>
</glyph>
<glyph name="asterisk" format="2">
  <advance width="948"/>
  <unicode hex="002A"/>
  <outline>
    <contour>
      <point x="326" y="710" type="line"/>
      <point x="132" y="850" type="line"/>
      <point x="280" y="1018" type="line"/>
      <point x="60" y="1074" type="line"/>
      <point x="134" y="1302" type="line"/>
      <point x="342" y="1212" type="line"/>
      <point x="324" y="1440" type="line"/>
      <point x="564" y="1440" type="line"/>
      <point x="546" y="1212" type="line"/>
      <point x="754" y="1302" type="line"/>
      <point x="828" y="1074" type="line"/>
      <point x="608" y="1018" type="line"/>
      <point x="756" y="850" type="line"/>
      <point x="562" y="710" type="line"/>
      <point x="444" y="900" type="line"/>
    </contour>
  </outline>
</glyph>
<glyph name="plus" format="2">
  <advance width="1140"/>
  <unicode hex="002B"/>
  <outline>
    <contour>
      <point x="466" y="270" type="line"/>
      <point x="466" y="616" type="line"/>
      <point x="120" y="616" type="line"/>
      <point x="120" y="826" type="line"/>
      <point x="466" y="826" type="line"/>
      <point x="466" y="1170" type="line"/>
      <point x="676" y="1170" type="line"/>
      <point x="676" y="826" type="line"/>
      <point x="1020" y="826" type="line"/>
      <point x="1020" y="616" type="line"/>
      <point x="676" y="616" type="line"/>
      <point x="676" y="270" type="line"/>
    </contour>
  </outline>
</glyph>
<glyph name="zero" format="2">
  <advance width="1348"/>
  <unicode hex="0030"/>
  <outline>
    <contour>
      <point x="674" y="-30" type="qcurve" smooth="yes"/>
      <point x="514" y="-30"/>
      <point x="274" y="104"/>
      <point x="140" y="344"/>
      <point x="140" y="504" type="qcurve" smooth="yes"/>
      <point x="140" y="936" type="line" smooth="yes"/>
      <point x="140" y="1096"/>
      <point x="274" y="1336"/>
      <point x="514" y="1470"/>
      <point x="674" y="1470" type="qcurve" smooth="yes"/>
      <point x="834" y="1470"/>
      <point x="1074" y="1336"/>
      <point x="1208" y="1096"/>
      <point x="1208" y="936" type="qcurve" smooth="yes"/>
      <point x="1208" y="504" type="line" smooth="yes"/>
      <point x="1208" y="344"/>
      <point x="1074" y="104"/>
      <point x="834" y="-30"/>
    </contour>
    <contour>
      <point x="674" y="228" type="qcurve" smooth="yes"/>
      <point x="746" y="228"/>
      <point x="862" y="296"/>
      <point x="930" y="412"/>
      <point x="930" y="484" type="qcurve" smooth="yes"/>
      <point x="930" y="958" type="line" smooth="yes"/>
      <point x="930" y="1030"/>
      <point x="862" y="1146"/>
      <point x="746" y="1214"/>
      <point x="674" y="1214" type="qcurve" smooth="yes"/>
      <point x="602" y="1214"/>
      <point x="486" y="1146"/>
      <point x="418" y="1030"/>
      <point x="418" y="958" type="qcurve" smooth="yes"/>
      <point x="418" y="484" type="line" smooth="yes"/>
      <point x="418" y="412"/>
      <point x="486" y="296"/>
      <point x="602" y="228"/>
    </contour>
  </outline>
</glyph>
<glyph name="three" format="2">
  <advance width="1182"/>
  <unicode hex="0033"/>
  <outline>
    <contour>
      <point x="560" y="-26" type="qcurve" smooth="yes"/>
      <point x="452" y="-26"/>
      <point x="256" y="61"/>
      <point x="111" y="219"/>
      <point x="80" y="326" type="qcurve"/>
      <point x="344" y="396" type="line"/>
      <point x="365" y="317"/>
      <point x="488" y="230"/>
      <point x="560" y="230" type="qcurve" smooth="yes"/>
      <point x="622" y="230"/>
      <point x="725" y="290"/>
      <point x="786" y="392"/>
      <point x="786" y="454" type="qcurve" smooth="yes"/>
      <point x="786" y="547"/>
      <point x="659" y="680"/>
      <point x="560" y="680" type="qcurve" smooth="yes"/>
      <point x="530" y="680"/>
      <point x="474" y="663"/>
      <point x="448" y="648" type="qcurve"/>
      <point x="326" y="862" type="line"/>
      <point x="784" y="1242" type="line"/>
      <point x="804" y="1184" type="line"/>
      <point x="136" y="1184" type="line"/>
      <point x="136" y="1440" type="line"/>
      <point x="1036" y="1440" type="line"/>
      <point x="1036" y="1184" type="line"/>
      <point x="680" y="840" type="line"/>
      <point x="678" y="916" type="line"/>
      <point x="802" y="897"/>
      <point x="973" y="762"/>
      <point x="1062" y="565"/>
      <point x="1062" y="454" type="qcurve" smooth="yes"/>
      <point x="1062" y="318"/>
      <point x="924" y="101"/>
      <point x="696" y="-26"/>
    </contour>
  </outline>
</glyph>
<glyph name="four" format="2">
  <advance width="1230"/>
  <unicode hex="0034"/>
  <outline>
    <contour>
      <point x="726" y="0" type="line"/>
      <point x="726" y="224" type="line"/>
      <point x="100" y="224" type="line"/>
      <point x="100" y="478" type="line"/>
      <point x="554" y="1440" type="line"/>
      <point x="866" y="1440" type="line"/>
      <point x="412" y="478" type="line"/>
      <point x="726" y="478" type="line"/>
      <point x="726" y="838" type="line"/>
      <point x="1002" y="838" type="line"/>
      <point x="1002" y="478" type="line"/>
      <point x="1130" y="478" type="line"/>
      <point x="1130" y="224" type="line"/>
      <point x="1002" y="224" type="line"/>
      <point x="1002" y="0" type="line"/>
    </contour>
  </outline>
</glyph>
<glyph name="five" format="2">
  <advance width="1178"/>
  <unicode hex="0035"/>
  <outline>
    <contour>
      <point x="568" y="-30" type="qcurve" smooth="yes"/>
      <point x="459" y="-30"/>
      <point x="268" y="60"/>
      <point x="130" y="220"/>
      <point x="100" y="326" type="qcurve"/>
      <point x="362" y="396" type="line"/>
      <point x="375" y="345"/>
      <point x="442" y="271"/>
      <point x="531" y="230"/>
      <point x="578" y="230" type="qcurve" smooth="yes"/>
      <point x="640" y="230"/>
      <point x="743" y="290"/>
      <point x="804" y="392"/>
      <point x="804" y="454" type="qcurve" smooth="yes"/>
      <point x="804" y="516"/>
      <point x="743" y="618"/>
      <point x="640" y="678"/>
      <point x="578" y="678" type="qcurve" smooth="yes"/>
      <point x="502" y="678"/>
      <point x="406" y="627"/>
      <point x="382" y="604" type="qcurve"/>
      <point x="152" y="674" type="line"/>
      <point x="152" y="1440" type="line"/>
      <point x="982" y="1440" type="line"/>
      <point x="982" y="1186" type="line"/>
      <point x="316" y="1186" type="line"/>
      <point x="412" y="1276" type="line"/>
      <point x="412" y="782" type="line"/>
      <point x="366" y="838" type="line"/>
      <point x="420" y="882"/>
      <point x="558" y="922"/>
      <point x="618" y="922" type="qcurve" smooth="yes"/>
      <point x="754" y="922"/>
      <point x="961" y="801"/>
      <point x="1078" y="590"/>
      <point x="1078" y="454" type="qcurve" smooth="yes"/>
      <point x="1078" y="318"/>
      <point x="936" y="99"/>
      <point x="704" y="-30"/>
    </contour>
  </outline>
</glyph>
<glyph name="nine" format="2">
  <advance width="1244"/>
  <unicode hex="0039"/>
  <outline>
    <contour>
      <point x="602" y="1470" type="qcurve" smooth="yes"/>
      <point x="745" y="1470"/>
      <point x="972" y="1336"/>
      <point x="1104" y="1097"/>
      <point x="1104" y="940" type="qcurve" smooth="yes"/>
      <point x="1104" y="843"/>
      <point x="1117" y="733"/>
      <point x="936" y="438" type="curve" smooth="yes"/>
      <point x="644" y="0" type="line"/>
      <point x="336" y="0" type="line"/>
      <point x="806" y="696" type="line"/>
      <point x="872" y="646" type="line"/>
      <point x="810" y="583"/>
      <point x="647" y="516"/>
      <point x="560" y="516" type="qcurve" smooth="yes"/>
      <point x="424" y="516"/>
      <point x="217" y="638"/>
      <point x="100" y="850"/>
      <point x="100" y="986" type="qcurve" smooth="yes"/>
      <point x="100" y="1122"/>
      <point x="238" y="1341"/>
      <point x="466" y="1470"/>
    </contour>
    <contour>
      <point x="602" y="1210" type="qcurve" smooth="yes"/>
      <point x="540" y="1210"/>
      <point x="437" y="1150"/>
      <point x="376" y="1048"/>
      <point x="376" y="986" type="qcurve" smooth="yes"/>
      <point x="376" y="924"/>
      <point x="436" y="821"/>
      <point x="538" y="760"/>
      <point x="600" y="760" type="qcurve" smooth="yes"/>
      <point x="662" y="760"/>
      <point x="765" y="821"/>
      <point x="826" y="924"/>
      <point x="826" y="986" type="qcurve" smooth="yes"/>
      <point x="826" y="1046"/>
      <point x="766" y="1148"/>
      <point x="664" y="1210"/>
    </contour>
  </outline>
</glyph>
<glyph name="B" format="2">
  <advance width="1274"/>
  <unicode hex="0042"/>
  <outline>
    <contour>
      <point x="140" y="0" type="line"/>
      <point x="140" y="1440" type="line"/>
      <point x="716" y="1440" type="line" smooth="yes"/>
      <point x="870" y="1440"/>
      <point x="1060" y="1317"/>
      <point x="1148" y="1131"/>
      <point x="1148" y="1036" type="qcurve" smooth="yes"/>
      <point x="1148" y="915"/>
      <point x="1039" y="755"/>
      <point x="944" y="728" type="qcurve"/>
      <point x="944" y="778" type="line"/>
      <point x="1079" y="750"/>
      <point x="1214" y="556"/>
      <point x="1214" y="436" type="qcurve" smooth="yes"/>
      <point x="1214" y="307"/>
      <point x="1119" y="111"/>
      <point x="925" y="0"/>
      <point x="778" y="0" type="qcurve" smooth="yes"/>
    </contour>
    <contour>
      <point x="416" y="256" type="line"/>
      <point x="750" y="256" type="line" smooth="yes"/>
      <point x="805" y="256"/>
      <point x="891" y="303"/>
      <point x="940" y="388"/>
      <point x="940" y="446" type="qcurve" smooth="yes"/>
      <point x="940" y="497"/>
      <point x="898" y="577"/>
      <point x="813" y="624"/>
      <point x="750" y="624" type="qcurve" smooth="yes"/>
      <point x="416" y="624" type="line"/>
    </contour>
    <contour>
      <point x="416" y="878" type="line"/>
      <point x="712" y="878" type="line" smooth="yes"/>
      <point x="758" y="878"/>
      <point x="830" y="910"/>
      <point x="872" y="977"/>
      <point x="872" y="1030" type="qcurve" smooth="yes"/>
      <point x="872" y="1096"/>
      <point x="790" y="1186"/>
      <point x="712" y="1186" type="qcurve" smooth="yes"/>
      <point x="416" y="1186" type="line"/>
    </contour>
  </outline>
</glyph>
<glyph name="E" format="2">
  <advance width="1180"/>
  <unicode hex="0045"/>
  <outline>
    <contour>
      <point x="140" y="0" type="line"/>
      <point x="140" y="1440" type="line"/>
      <point x="1080" y="1440" type="line"/>
      <point x="1080" y="1186" type="line"/>
      <point x="412" y="1186" type="line"/>
      <point x="412" y="878" type="line"/>
      <point x="960" y="878" type="line"/>
      <point x="960" y="624" type="line"/>
      <point x="412" y="624" type="line"/>
      <point x="412" y="254" type="line"/>
      <point x="1080" y="254" type="line"/>
      <point x="1080" y="0" type="line"/>
    </contour>
  </outline>
</glyph>
<glyph name="F" format="2">
  <advance width="1060"/>
  <unicode hex="0046"/>
  <outline>
    <contour>
      <point x="140" y="0" type="line"/>
      <point x="140" y="1440" type="line"/>
      <point x="1020" y="1440" type="line"/>
      <point x="1020" y="1168" type="line"/>
      <point x="412" y="1168" type="line"/>
      <point x="412" y="856" type="line"/>
      <point x="900" y="856" type="line"/>
      <point x="900" y="584" type="line"/>
      <point x="412" y="584" type="line"/>
      <point x="412" y="0" type="line"/>
    </contour>
  </outline>
</glyph>
<glyph name="J" format="2">
  <advance width="1026"/>
  <unicode hex="004A"/>
  <outline>
    <contour>
      <point x="442" y="-30" type="qcurve" smooth="yes"/>
      <point x="270" y="-30"/>
      <point x="47" y="146"/>
      <point x="0" y="296" type="qcurve"/>
      <point x="268" y="360" type="line"/>
      <point x="277" y="305"/>
      <point x="375" y="224"/>
      <point x="430" y="224" type="qcurve" smooth="yes"/>
      <point x="468" y="224"/>
      <point x="555" y="266"/>
      <point x="574" y="312" type="qcurve" smooth="yes"/>
      <point x="586" y="341"/>
      <point x="590" y="425"/>
      <point x="590" y="480" type="qcurve" smooth="yes"/>
      <point x="590" y="1440" type="line"/>
      <point x="866" y="1440" type="line"/>
      <point x="866" y="480" type="line" smooth="yes"/>
      <point x="866" y="411"/>
      <point x="865" y="309"/>
      <point x="846" y="220"/>
      <point x="818" y="172" type="qcurve" smooth="yes"/>
      <point x="757" y="66"/>
      <point x="561" y="-30"/>
    </contour>
  </outline>
</glyph>
<glyph name="L" format="2">
  <advance width="1082"/>
  <unicode hex="004C"/>
  <outline>
    <contour>
      <point x="160" y="0" type="line"/>
      <point x="160" y="1440" type="line"/>
      <point x="432" y="1440" type="line"/>
      <point x="432" y="254" type="line"/>
      <point x="1052" y="254" type="line"/>
      <point x="1052" y="0" type="line"/>
    </contour>
  </outline>
</glyph>
<glyph name="N" format="2">
  <advance width="1458"/>
  <unicode hex="004E"/>
  <outline>
    <contour>
      <point x="140" y="0" type="line"/>
      <point x="140" y="1440" type="line"/>
      <point x="416" y="1440" type="line"/>
      <point x="1042" y="480" type="line"/>
      <point x="1042" y="1440" type="line"/>
      <point x="1318" y="1440" type="line"/>
      <point x="1318" y="0" type="line"/>
      <point x="1042" y="0" type="line"/>
      <point x="416" y="960" type="line"/>
      <point x="416" y="0" type="line"/>
    </contour>
  </outline>
</glyph>
<glyph name="P" format="2">
  <advance width="1300"/>
  <unicode hex="0050"/>
  <outline>
    <contour>
      <point x="140" y="0" type="line"/>
      <point x="140" y="1440" type="line"/>
      <point x="748" y="1440" type="line" smooth="yes"/>
      <point x="769" y="1440"/>
      <point x="840" y="1437"/>
      <point x="868" y="1432" type="qcurve" smooth="yes"/>
      <point x="997" y="1412"/>
      <point x="1162" y="1282"/>
      <point x="1240" y="1085"/>
      <point x="1240" y="964" type="qcurve" smooth="yes"/>
      <point x="1240" y="843"/>
      <point x="1161" y="646"/>
      <point x="996" y="516"/>
      <point x="868" y="496" type="qcurve" smooth="yes"/>
      <point x="840" y="492"/>
      <point x="768" y="488"/>
      <point x="748" y="488" type="qcurve" smooth="yes"/>
      <point x="412" y="488" type="line"/>
      <point x="412" y="0" type="line"/>
    </contour>
    <contour>
      <point x="412" y="742" type="line"/>
      <point x="736" y="742" type="line" smooth="yes"/>
      <point x="757" y="742"/>
      <point x="807" y="746"/>
      <point x="828" y="752" type="qcurve" smooth="yes"/>
      <point x="883" y="767"/>
      <point x="943" y="838"/>
      <point x="966" y="925"/>
      <point x="966" y="964" type="qcurve" smooth="yes"/>
      <point x="966" y="1003"/>
      <point x="943" y="1090"/>
      <point x="883" y="1161"/>
      <point x="828" y="1176" type="qcurve" smooth="yes"/>
      <point x="807" y="1182"/>
      <point x="757" y="1186"/>
      <point x="736" y="1186" type="qcurve" smooth="yes"/>
      <point x="412" y="1186" type="line"/>
    </contour>
  </outline>
</glyph>
<glyph name="Q" format="2">
  <advance width="1516"/>
  <unicode hex="0051"/>
  <outline>
    <contour>
      <point x="1171" y="208" type="line"/>
      <point x="1246" y="153" type="line" smooth="yes"/>
      <point x="1313" y="104"/>
      <point x="1388" y="76"/>
      <point x="1471" y="71" type="curve"/>
      <point x="1445" y="-170" type="line"/>
      <point x="1362" y="-165"/>
      <point x="1291" y="-151"/>
      <point x="1231" y="-130" type="curve" smooth="yes"/>
      <point x="1170" y="-109"/>
      <point x="1102" y="-61"/>
      <point x="1025" y="13" type="curve"/>
      <point x="1025" y="13"/>
      <point x="1025" y="13"/>
      <point x="1025" y="13" type="curve"/>
      <point x="986" y="50" type="line"/>
    </contour>
    <contour>
      <point x="758" y="-30" type="curve" smooth="yes"/>
      <point x="635" y="-30"/>
      <point x="527" y="-7"/>
      <point x="433" y="38" type="curve" smooth="yes"/>
      <point x="363" y="71"/>
      <point x="301" y="118"/>
      <point x="247" y="177" type="curve" smooth="yes"/>
      <point x="194" y="236"/>
      <point x="152" y="303"/>
      <point x="121" y="378" type="curve" smooth="yes"/>
      <point x="80" y="477"/>
      <point x="60" y="592"/>
      <point x="60" y="720" type="curve" smooth="yes"/>
      <point x="60" y="848"/>
      <point x="80" y="963"/>
      <point x="121" y="1062" type="curve" smooth="yes"/>
      <point x="152" y="1137"/>
      <point x="194" y="1204"/>
      <point x="247" y="1263" type="curve" smooth="yes"/>
      <point x="301" y="1322"/>
      <point x="363" y="1369"/>
      <point x="433" y="1402" type="curve" smooth="yes"/>
      <point x="527" y="1447"/>
      <point x="635" y="1470"/>
      <point x="758" y="1470" type="curve" smooth="yes"/>
      <point x="881" y="1470"/>
      <point x="989" y="1447"/>
      <point x="1083" y="1402" type="curve" smooth="yes"/>
      <point x="1153" y="1369"/>
      <point x="1215" y="1322"/>
      <point x="1269" y="1263" type="curve" smooth="yes"/>
      <point x="1322" y="1204"/>
      <point x="1364" y="1137"/>
      <point x="1395" y="1062" type="curve" smooth="yes"/>
      <point x="1436" y="963"/>
      <point x="1456" y="848"/>
      <point x="1456" y="720" type="curve" smooth="yes"/>
      <point x="1456" y="592"/>
      <point x="1436" y="477"/>
      <point x="1395" y="378" type="curve" smooth="yes"/>
      <point x="1364" y="303"/>
      <point x="1322" y="236"/>
      <point x="1269" y="177" type="curve" smooth="yes"/>
      <point x="1215" y="118"/>
      <point x="1153" y="71"/>
      <point x="1083" y="38" type="curve" smooth="yes"/>
      <point x="989" y="-7"/>
      <point x="881" y="-30"/>
    </contour>
    <contour>
      <point x="758" y="226" type="curve" smooth="yes"/>
      <point x="825" y="226"/>
      <point x="885" y="237"/>
      <point x="936" y="260" type="curve" smooth="yes"/>
      <point x="987" y="282"/>
      <point x="1031" y="315"/>
      <point x="1066" y="360" type="curve" smooth="yes"/>
      <point x="1095" y="397"/>
      <point x="1118" y="440"/>
      <point x="1135" y="490" type="curve" smooth="yes"/>
      <point x="1157" y="556"/>
      <point x="1168" y="632"/>
      <point x="1168" y="720" type="curve" smooth="yes"/>
      <point x="1168" y="791"/>
      <point x="1161" y="854"/>
      <point x="1147" y="910" type="curve" smooth="yes"/>
      <point x="1129" y="984"/>
      <point x="1098" y="1046"/>
      <point x="1055" y="1094" type="curve" smooth="yes"/>
      <point x="1023" y="1130"/>
      <point x="984" y="1158"/>
      <point x="938" y="1179" type="curve" smooth="yes"/>
      <point x="887" y="1202"/>
      <point x="827" y="1214"/>
      <point x="758" y="1214" type="curve" smooth="yes"/>
      <point x="691" y="1214"/>
      <point x="631" y="1203"/>
      <point x="580" y="1181" type="curve" smooth="yes"/>
      <point x="529" y="1158"/>
      <point x="485" y="1125"/>
      <point x="450" y="1080" type="curve" smooth="yes"/>
      <point x="421" y="1043"/>
      <point x="398" y="1000"/>
      <point x="381" y="950" type="curve" smooth="yes"/>
      <point x="359" y="884"/>
      <point x="348" y="808"/>
      <point x="348" y="720" type="curve"/>
      <point x="348" y="720" type="line"/>
      <point x="348" y="649"/>
      <point x="355" y="586"/>
      <point x="369" y="530" type="curve" smooth="yes"/>
      <point x="387" y="456"/>
      <point x="418" y="394"/>
      <point x="461" y="346" type="curve" smooth="yes"/>
      <point x="493" y="310"/>
      <point x="532" y="282"/>
      <point x="578" y="261" type="curve" smooth="yes"/>
      <point x="629" y="238"/>
      <point x="689" y="226"/>
    </contour>
  </outline>
</glyph>
<glyph name="grave" format="2">
  <advance width="1110"/>
  <unicode hex="0060"/>
  <outline>
    <contour>
      <point x="577" y="1980" type="line"/>
      <point x="320" y="1980" type="line"/>
      <point x="486" y="1590" type="line"/>
      <point x="656" y="1590" type="line"/>
    </contour>
  </outline>
</glyph>
<glyph name="j" format="2">
  <advance width="602"/>
  <unicode hex="006A"/>
  <outline>
    <contour>
      <point x="-20" y="-480" type="line"/>
      <point x="-20" y="-226" type="line"/>
      <point x="28" y="-226" type="line" smooth="yes"/>
      <point x="121" y="-226"/>
      <point x="190" y="-142"/>
      <point x="190" y="-64" type="qcurve" smooth="yes"/>
      <point x="190" y="1080" type="line"/>
      <point x="462" y="1080" type="line"/>
      <point x="462" y="-196" type="line" smooth="yes"/>
      <point x="462" y="-325"/>
      <point x="301" y="-480"/>
      <point x="164" y="-480" type="qcurve" smooth="yes"/>
    </contour>
    <contour>
      <point x="326" y="1191" type="qcurve" smooth="yes"/>
      <point x="258" y="1191"/>
      <point x="167" y="1283"/>
      <point x="167" y="1349" type="qcurve" smooth="yes"/>
      <point x="167" y="1416"/>
      <point x="258" y="1507"/>
      <point x="326" y="1507" type="qcurve" smooth="yes"/>
      <point x="395" y="1507"/>
      <point x="485" y="1416"/>
      <point x="485" y="1349" type="qcurve" smooth="yes"/>
      <point x="485" y="1283"/>
      <point x="395" y="1191"/>
    </contour>
  </outline>
</glyph>
<glyph name="l" format="2">
  <advance width="670"/>
  <unicode hex="006C"/>
  <outline>
    <contour>
      <point x="630" y="240" type="curve"/>
      <point x="630" y="0" type="line"/>
      <point x="508" y="0" type="line" smooth="yes"/>
      <point x="337" y="0"/>
      <point x="209" y="71"/>
      <point x="172" y="219" type="curve" smooth="yes"/>
      <point x="164" y="249"/>
      <point x="160" y="282"/>
      <point x="160" y="318" type="curve" smooth="yes"/>
      <point x="160" y="1440" type="line"/>
      <point x="432" y="1440" type="line"/>
      <point x="432" y="467" type="line" smooth="yes"/>
      <point x="432" y="439"/>
      <point x="431" y="411"/>
      <point x="431" y="385" type="curve"/>
      <point x="433" y="305"/>
      <point x="450" y="240"/>
      <point x="562" y="240" type="curve" smooth="yes"/>
      <point x="585" y="240"/>
      <point x="607" y="240"/>
    </contour>
  </outline>
</glyph>
<glyph name="m" format="2">
  <advance width="1832"/>
  <unicode hex="006D"/>
  <outline>
    <contour>
      <point x="1440" y="0" type="line"/>
      <point x="1440" y="638" type="line" smooth="yes"/>
      <point x="1440" y="745"/>
      <point x="1339" y="864"/>
      <point x="1250" y="864" type="qcurve" smooth="yes"/>
      <point x="1193" y="864"/>
      <point x="1109" y="811"/>
      <point x="1062" y="716"/>
      <point x="1062" y="654" type="qcurve"/>
      <point x="948" y="730" type="line"/>
      <point x="948" y="841"/>
      <point x="1053" y="1011"/>
      <point x="1230" y="1106"/>
      <point x="1338" y="1106" type="qcurve" smooth="yes"/>
      <point x="1523" y="1106"/>
      <point x="1712" y="887"/>
      <point x="1712" y="710" type="qcurve" smooth="yes"/>
      <point x="1712" y="0" type="line"/>
    </contour>
    <contour>
      <point x="138" y="0" type="line"/>
      <point x="138" y="1080" type="line"/>
      <point x="378" y="1080" type="line"/>
      <point x="378" y="722" type="line"/>
      <point x="412" y="722" type="line"/>
      <point x="412" y="0" type="line"/>
    </contour>
    <contour>
      <point x="790" y="0" type="line"/>
      <point x="790" y="638" type="line" smooth="yes"/>
      <point x="790" y="745"/>
      <point x="689" y="864"/>
      <point x="600" y="864" type="qcurve" smooth="yes"/>
      <point x="515" y="864"/>
      <point x="412" y="747"/>
      <point x="412" y="654" type="qcurve"/>
      <point x="298" y="734" type="line"/>
      <point x="298" y="840"/>
      <point x="404" y="1008"/>
      <point x="583" y="1106"/>
      <point x="694" y="1106" type="qcurve" smooth="yes"/>
      <point x="821" y="1106"/>
      <point x="984" y="998"/>
      <point x="1062" y="818"/>
      <point x="1062" y="710" type="qcurve" smooth="yes"/>
      <point x="1062" y="0" type="line"/>
    </contour>
  </outline>
</glyph>
<glyph name="v" format="2">
  <advance width="1136"/>
  <unicode hex="0076"/>
  <outline>
    <contour>
      <point x="432" y="0" type="line"/>
      <point x="40" y="1080" type="line"/>
      <point x="312" y="1080" type="line"/>
      <point x="568" y="332" type="line"/>
      <point x="824" y="1080" type="line"/>
      <point x="1096" y="1080" type="line"/>
      <point x="704" y="0" type="line"/>
    </contour>
  </outline>
</glyph>
<glyph name="y" format="2">
  <advance width="1146"/>
  <unicode hex="0079"/>
  <outline>
    <contour>
      <point x="580" y="314" type="line"/>
      <point x="312" y="1080" type="line"/>
      <point x="40" y="1080" type="line"/>
      <point x="444" y="0" type="line"/>
      <point x="468" y="0" type="line"/>
      <point x="434" y="-96"/>
      <point x="396" y="-170"/>
      <point x="358" y="-196" type="curve" smooth="yes"/>
      <point x="324" y="-218"/>
      <point x="282" y="-222"/>
      <point x="220" y="-222" type="curve"/>
      <point x="220" y="-480" type="line"/>
      <point x="352" y="-480"/>
      <point x="430" y="-478"/>
      <point x="500" y="-426" type="curve" smooth="yes"/>
      <point x="580" y="-366"/>
      <point x="624" y="-258"/>
      <point x="666" y="-146" type="curve"/>
      <point x="1126" y="1080" type="line"/>
      <point x="856" y="1080" type="line"/>
    </contour>
  </outline>
</glyph>
<glyph name="z" format="2">
  <advance width="1070"/>
  <unicode hex="007A"/>
  <outline>
    <contour>
      <point x="40" y="0" type="line"/>
      <point x="40" y="34" type="line"/>
      <point x="570" y="844" type="line"/>
      <point x="100" y="844" type="line"/>
      <point x="100" y="1080" type="line"/>
      <point x="990" y="1080" type="line"/>
      <point x="990" y="1046" type="line"/>
      <point x="462" y="236" type="line"/>
      <point x="970" y="236" type="line"/>
      <point x="970" y="0" type="line"/>
    </contour>
  </outline>
</glyph>
<glyph name="bar" format="2">
  <advance width="632"/>
  <unicode hex="007C"/>
  <outline>
    <contour>
      <point x="180" y="0" type="line"/>
      <point x="180" y="1440" type="line"/>
      <point x="452" y="1440" type="line"/>
      <point x="452" y="0" type="line"/>
    </contour>
  </outline>
</glyph>
<glyph name="asciitilde" format="2">
  <advance width="1468"/>
  <unicode hex="007E"/>
  <outline>
    <contour>
      <point x="976" y="390" type="qcurve" smooth="yes"/>
      <point x="907" y="390"/>
      <point x="781" y="453"/>
      <point x="668" y="535"/>
      <point x="569" y="599"/>
      <point x="528" y="599" type="qcurve" smooth="yes"/>
      <point x="486" y="599"/>
      <point x="452" y="504"/>
      <point x="472" y="432" type="qcurve"/>
      <point x="235" y="432" type="line"/>
      <point x="205" y="555"/>
      <point x="240" y="754"/>
      <point x="373" y="872"/>
      <point x="491" y="872" type="qcurve" smooth="yes"/>
      <point x="560" y="872"/>
      <point x="686" y="809"/>
      <point x="800" y="726"/>
      <point x="898" y="663"/>
      <point x="940" y="663" type="qcurve" smooth="yes"/>
      <point x="982" y="663"/>
      <point x="1015" y="758"/>
      <point x="996" y="830" type="qcurve"/>
      <point x="1233" y="830" type="line"/>
      <point x="1262" y="707"/>
      <point x="1228" y="508"/>
      <point x="1095" y="390"/>
    </contour>
  </outline>
</glyph>
<glyph name="currency" format="2">
  <advance width="1360"/>
  <unicode hex="00A4"/>
  <outline>
    <contour>
      <point x="680" y="196" type="qcurve" smooth="yes"/>
      <point x="572" y="196"/>
      <point x="382" y="278"/>
      <point x="238" y="423"/>
      <point x="156" y="613"/>
      <point x="156" y="722" type="qcurve" smooth="yes"/>
      <point x="156" y="830"/>
      <point x="238" y="1020"/>
      <point x="382" y="1164"/>
      <point x="572" y="1246"/>
      <point x="680" y="1246" type="qcurve" smooth="yes"/>
      <point x="789" y="1246"/>
      <point x="979" y="1164"/>
      <point x="1124" y="1020"/>
      <point x="1206" y="830"/>
      <point x="1206" y="722" type="qcurve" smooth="yes"/>
      <point x="1206" y="613"/>
      <point x="1124" y="423"/>
      <point x="979" y="278"/>
      <point x="789" y="196"/>
    </contour>
    <contour>
      <point x="240" y="100" type="line"/>
      <point x="60" y="280" type="line"/>
      <point x="314" y="534" type="line"/>
      <point x="496" y="354" type="line"/>
    </contour>
    <contour>
      <point x="314" y="904" type="line"/>
      <point x="60" y="1158" type="line"/>
      <point x="240" y="1340" type="line"/>
      <point x="494" y="1086" type="line"/>
    </contour>
    <contour>
      <point x="1120" y="100" type="line"/>
      <point x="866" y="354" type="line"/>
      <point x="1046" y="534" type="line"/>
      <point x="1300" y="280" type="line"/>
    </contour>
    <contour>
      <point x="680" y="424" type="qcurve" smooth="yes"/>
      <point x="762" y="424"/>
      <point x="896" y="505"/>
      <point x="976" y="640"/>
      <point x="976" y="720" type="qcurve" smooth="yes"/>
      <point x="976" y="802"/>
      <point x="895" y="936"/>
      <point x="760" y="1016"/>
      <point x="680" y="1016" type="qcurve" smooth="yes"/>
      <point x="598" y="1016"/>
      <point x="464" y="936"/>
      <point x="384" y="802"/>
      <point x="384" y="720" type="qcurve" smooth="yes"/>
      <point x="384" y="640"/>
      <point x="464" y="505"/>
      <point x="598" y="424"/>
    </contour>
    <contour>
      <point x="1048" y="906" type="line"/>
      <point x="866" y="1086" type="line"/>
      <point x="1120" y="1340" type="line"/>
      <point x="1300" y="1158" type="line"/>
    </contour>
  </outline>
</glyph>
<glyph name="yen" format="2">
  <advance width="1260"/>
  <unicode hex="00A5"/>
  <outline>
    <contour>
      <point x="210" y="526" type="line"/>
      <point x="210" y="736" type="line"/>
      <point x="1050" y="736" type="line"/>
      <point x="1050" y="526" type="line"/>
    </contour>
    <contour>
      <point x="210" y="188" type="line"/>
      <point x="210" y="398" type="line"/>
      <point x="1050" y="398" type="line"/>
      <point x="1050" y="188" type="line"/>
    </contour>
    <contour>
      <point x="492" y="0" type="line"/>
      <point x="492" y="586" type="line"/>
      <point x="0" y="1440" type="line"/>
      <point x="318" y="1440" type="line"/>
      <point x="630" y="898" type="line"/>
      <point x="942" y="1440" type="line"/>
      <point x="1260" y="1440" type="line"/>
      <point x="768" y="586" type="line"/>
      <point x="768" y="0" type="line"/>
    </contour>
  </outline>
</glyph>
<glyph name="brokenbar" format="2">
  <advance width="632"/>
  <unicode hex="00A6"/>
  <outline>
    <contour>
      <point x="180" y="600" type="line"/>
      <point x="180" y="1440" type="line"/>
      <point x="452" y="1440" type="line"/>
      <point x="452" y="600" type="line"/>
    </contour>
    <contour>
      <point x="180" y="-440" type="line"/>
      <point x="180" y="400" type="line"/>
      <point x="452" y="400" type="line"/>
      <point x="452" y="-440" type="line"/>
    </contour>
  </outline>
</glyph>
<glyph name="copyright" format="2">
  <advance width="1828"/>
  <unicode hex="00A9"/>
  <outline>
    <contour>
      <point x="914" y="-140" type="qcurve" smooth="yes"/>
      <point x="737" y="-140"/>
      <point x="427" y="-7"/>
      <point x="193" y="227"/>
      <point x="60" y="537"/>
      <point x="60" y="714" type="qcurve" smooth="yes"/>
      <point x="60" y="891"/>
      <point x="193" y="1201"/>
      <point x="427" y="1435"/>
      <point x="737" y="1568"/>
      <point x="914" y="1568" type="qcurve" smooth="yes"/>
      <point x="1091" y="1568"/>
      <point x="1401" y="1435"/>
      <point x="1635" y="1201"/>
      <point x="1768" y="891"/>
      <point x="1768" y="714" type="qcurve" smooth="yes"/>
      <point x="1768" y="537"/>
      <point x="1635" y="227"/>
      <point x="1401" y="-7"/>
      <point x="1091" y="-140"/>
    </contour>
    <contour>
      <point x="932" y="286" type="qcurve" smooth="yes"/>
      <point x="829" y="286"/>
      <point x="685" y="350"/>
      <point x="628" y="420" type="qcurve" smooth="yes"/>
      <point x="576" y="486"/>
      <point x="528" y="632"/>
      <point x="528" y="714" type="qcurve" smooth="yes"/>
      <point x="528" y="800"/>
      <point x="579" y="946"/>
      <point x="628" y="1006" type="qcurve" smooth="yes"/>
      <point x="684" y="1074"/>
      <point x="833" y="1142"/>
      <point x="942" y="1142" type="qcurve" smooth="yes"/>
      <point x="999" y="1142"/>
      <point x="1093" y="1120"/>
      <point x="1144" y="1088" type="qcurve"/>
      <point x="1201" y="1054"/>
      <point x="1282" y="946"/>
      <point x="1298" y="872" type="qcurve"/>
      <point x="1094" y="818" type="line"/>
      <point x="1087" y="845"/>
      <point x="1058" y="893"/>
      <point x="1034" y="914" type="qcurve" smooth="yes"/>
      <point x="1012" y="934"/>
      <point x="959" y="952"/>
      <point x="930" y="952" type="qcurve" smooth="yes"/>
      <point x="885" y="952"/>
      <point x="816" y="916"/>
      <point x="790" y="884" type="qcurve" smooth="yes"/>
      <point x="763" y="850"/>
      <point x="744" y="761"/>
      <point x="744" y="714" type="qcurve" smooth="yes"/>
      <point x="744" y="668"/>
      <point x="765" y="582"/>
      <point x="790" y="546" type="qcurve" smooth="yes"/>
      <point x="814" y="513"/>
      <point x="885" y="478"/>
      <point x="934" y="478" type="qcurve" smooth="yes"/>
      <point x="1004" y="478"/>
      <point x="1038" y="512" type="qcurve" smooth="yes"/>
      <point x="1059" y="533"/>
      <point x="1081" y="573"/>
      <point x="1090" y="598" type="qcurve"/>
      <point x="1298" y="556" type="line"/>
      <point x="1282" y="498"/>
      <point x="1216" y="394"/>
      <point x="1166" y="356" type="qcurve" smooth="yes"/>
      <point x="1121" y="322"/>
      <point x="1012" y="286"/>
    </contour>
    <contour>
      <point x="914" y="114" type="qcurve" smooth="yes"/>
      <point x="1039" y="114"/>
      <point x="1256" y="207"/>
      <point x="1421" y="372"/>
      <point x="1514" y="590"/>
      <point x="1514" y="714" type="qcurve" smooth="yes"/>
      <point x="1514" y="839"/>
      <point x="1421" y="1056"/>
      <point x="1256" y="1221"/>
      <point x="1039" y="1314"/>
      <point x="914" y="1314" type="qcurve" smooth="yes"/>
      <point x="790" y="1314"/>
      <point x="572" y="1221"/>
      <point x="407" y="1056"/>
      <point x="314" y="839"/>
      <point x="314" y="714" type="qcurve" smooth="yes"/>
      <point x="314" y="590"/>
      <point x="407" y="372"/>
      <point x="572" y="207"/>
      <point x="790" y="114"/>
    </contour>
  </outline>
</glyph>
<glyph name="ordfeminine" format="2">
  <advance width="689"/>
  <unicode hex="00AA"/>
  <outline>
    <contour>
      <point x="264" y="786" type="qcurve" smooth="yes"/>
      <point x="194" y="786"/>
      <point x="98" y="839"/>
      <point x="48" y="929"/>
      <point x="48" y="983" type="qcurve" smooth="yes"/>
      <point x="48" y="1028"/>
      <point x="76" y="1102"/>
      <point x="137" y="1158"/>
      <point x="190" y="1178" type="qcurve" smooth="yes"/>
      <point x="226" y="1191"/>
      <point x="325" y="1212"/>
      <point x="451" y="1231"/>
      <point x="527" y="1242" type="qcurve"/>
      <point x="468" y="1210" type="line"/>
      <point x="468" y="1267"/>
      <point x="413" y="1321"/>
      <point x="348" y="1321" type="qcurve" smooth="yes"/>
      <point x="312" y="1321"/>
      <point x="234" y="1286"/>
      <point x="218" y="1242" type="qcurve"/>
      <point x="71" y="1289" type="line"/>
      <point x="95" y="1369"/>
      <point x="231" y="1470"/>
      <point x="348" y="1470" type="qcurve" smooth="yes"/>
      <point x="434" y="1470"/>
      <point x="567" y="1417"/>
      <point x="601" y="1352" type="qcurve" smooth="yes"/>
      <point x="620" y="1316"/>
      <point x="628" y="1244"/>
      <point x="628" y="1200" type="qcurve" smooth="yes"/>
      <point x="628" y="804" type="line"/>
      <point x="485" y="804" type="line"/>
      <point x="485" y="937" type="line"/>
      <point x="505" y="910" type="line"/>
      <point x="458" y="844"/>
      <point x="348" y="786"/>
    </contour>
    <contour>
      <point x="299" y="914" type="qcurve" smooth="yes"/>
      <point x="344" y="914"/>
      <point x="406" y="946"/>
      <point x="442" y="987"/>
      <point x="449" y="1001" type="qcurve"/>
      <point x="461" y="1027"/>
      <point x="466" y="1097"/>
      <point x="466" y="1121" type="qcurve"/>
      <point x="514" y="1109" type="line"/>
      <point x="441" y="1097"/>
      <point x="351" y="1081"/>
      <point x="296" y="1068"/>
      <point x="275" y="1060" type="qcurve" smooth="yes"/>
      <point x="251" y="1051"/>
      <point x="221" y="1028"/>
      <point x="208" y="1001"/>
      <point x="208" y="985" type="qcurve" smooth="yes"/>
      <point x="208" y="963"/>
      <point x="230" y="931"/>
      <point x="271" y="914"/>
    </contour>
    <contour>
      <point x="42" y="560" type="line"/>
      <point x="42" y="698" type="line"/>
      <point x="647" y="698" type="line"/>
      <point x="647" y="560" type="line"/>
    </contour>
  </outline>
</glyph>
<glyph name="macron" format="2">
  <advance width="1024"/>
  <unicode hex="00AF"/>
  <outline>
    <contour>
      <point x="240" y="1680" type="line"/>
      <point x="240" y="1888" type="line"/>
      <point x="784" y="1888" type="line"/>
      <point x="784" y="1680" type="line"/>
    </contour>
  </outline>
</glyph>
<glyph name="degree" format="2">
  <advance width="900"/>
  <unicode hex="00B0"/>
  <outline>
    <contour>
      <point x="420" y="750" type="qcurve" smooth="yes"/>
      <point x="321" y="750"/>
      <point x="157" y="847"/>
      <point x="60" y="1010"/>
      <point x="60" y="1110" type="qcurve" smooth="yes"/>
      <point x="60" y="1208"/>
      <point x="160" y="1372"/>
      <point x="324" y="1470"/>
      <point x="420" y="1470" type="qcurve" smooth="yes"/>
      <point x="519" y="1470"/>
      <point x="682" y="1373"/>
      <point x="780" y="1210"/>
      <point x="780" y="1110" type="qcurve" smooth="yes"/>
      <point x="780" y="1010"/>
      <point x="682" y="847"/>
      <point x="519" y="750"/>
    </contour>
    <contour>
      <point x="420" y="980" type="qcurve" smooth="yes"/>
      <point x="455" y="980"/>
      <point x="514" y="1016"/>
      <point x="550" y="1075"/>
      <point x="550" y="1110" type="qcurve" smooth="yes"/>
      <point x="550" y="1145"/>
      <point x="514" y="1204"/>
      <point x="455" y="1240"/>
      <point x="420" y="1240" type="qcurve" smooth="yes"/>
      <point x="385" y="1240"/>
      <point x="326" y="1204"/>
      <point x="290" y="1145"/>
      <point x="290" y="1110" type="qcurve" smooth="yes"/>
      <point x="290" y="1075"/>
      <point x="326" y="1016"/>
      <point x="385" y="980"/>
    </contour>
  </outline>
</glyph>
<glyph name="threesuperior" format="2">
  <advance width="818"/>
  <unicode hex="00B3"/>
  <outline>
    <contour>
      <point x="382" y="518" type="qcurve" smooth="yes"/>
      <point x="280" y="518"/>
      <point x="109" y="638"/>
      <point x="80" y="740" type="qcurve"/>
      <point x="246" y="784" type="line"/>
      <point x="260" y="733"/>
      <point x="337" y="680"/>
      <point x="382" y="680" type="qcurve" smooth="yes"/>
      <point x="441" y="680"/>
      <point x="524" y="762"/>
      <point x="524" y="820" type="qcurve" smooth="yes"/>
      <point x="524" y="879"/>
      <point x="444" y="962"/>
      <point x="382" y="962" type="qcurve" smooth="yes"/>
      <point x="363" y="962"/>
      <point x="327" y="951"/>
      <point x="312" y="942" type="qcurve"/>
      <point x="234" y="1076" type="line"/>
      <point x="522" y="1316" type="line"/>
      <point x="536" y="1278" type="line"/>
      <point x="116" y="1278" type="line"/>
      <point x="116" y="1440" type="line"/>
      <point x="682" y="1440" type="line"/>
      <point x="682" y="1278" type="line"/>
      <point x="458" y="1062" type="line"/>
      <point x="456" y="1110" type="line"/>
      <point x="534" y="1098"/>
      <point x="642" y="1013"/>
      <point x="698" y="890"/>
      <point x="698" y="820" type="qcurve" smooth="yes"/>
      <point x="698" y="734"/>
      <point x="611" y="597"/>
      <point x="467" y="518"/>
    </contour>
  </outline>
</glyph>
<glyph name="periodcentered" format="2">
  <advance width="560"/>
  <unicode hex="00B7"/>
  <outline>
    <contour>
      <point x="284" y="470" type="qcurve" smooth="yes"/>
      <point x="215" y="470"/>
      <point x="120" y="561"/>
      <point x="120" y="630" type="qcurve" smooth="yes"/>
      <point x="120" y="699"/>
      <point x="215" y="790"/>
      <point x="284" y="790" type="qcurve" smooth="yes"/>
      <point x="347" y="790"/>
      <point x="440" y="699"/>
      <point x="440" y="630" type="qcurve" smooth="yes"/>
      <point x="440" y="561"/>
      <point x="347" y="470"/>
    </contour>
  </outline>
</glyph>
<glyph name="ordmasculine" format="2">
  <advance width="818"/>
  <unicode hex="00BA"/>
  <outline>
    <contour>
      <point x="409" y="786" type="qcurve" smooth="yes"/>
      <point x="311" y="786"/>
      <point x="163" y="874"/>
      <point x="81" y="1028"/>
      <point x="81" y="1128" type="qcurve" smooth="yes"/>
      <point x="81" y="1229"/>
      <point x="165" y="1384"/>
      <point x="313" y="1470"/>
      <point x="409" y="1470" type="qcurve" smooth="yes"/>
      <point x="506" y="1470"/>
      <point x="655" y="1382"/>
      <point x="737" y="1228"/>
      <point x="737" y="1128" type="qcurve" smooth="yes"/>
      <point x="737" y="1027"/>
      <point x="654" y="873"/>
      <point x="506" y="786"/>
    </contour>
    <contour>
      <point x="409" y="938" type="qcurve" smooth="yes"/>
      <point x="487" y="938"/>
      <point x="565" y="1045"/>
      <point x="565" y="1128" type="qcurve" smooth="yes"/>
      <point x="565" y="1214"/>
      <point x="486" y="1318"/>
      <point x="409" y="1318" type="qcurve" smooth="yes"/>
      <point x="355" y="1318"/>
      <point x="287" y="1270"/>
      <point x="254" y="1184"/>
      <point x="254" y="1128" type="qcurve" smooth="yes"/>
      <point x="254" y="1041"/>
      <point x="332" y="938"/>
    </contour>
    <contour>
      <point x="81" y="560" type="line"/>
      <point x="81" y="698" type="line"/>
      <point x="737" y="698" type="line"/>
      <point x="737" y="560" type="line"/>
    </contour>
  </outline>
</glyph>
<glyph name="Atilde" format="2">
  <advance width="1366"/>
  <unicode hex="00C3"/>
  <outline>
    <contour>
      <point x="856" y="1646" type="qcurve" smooth="yes"/>
      <point x="807" y="1646"/>
      <point x="718" y="1691"/>
      <point x="637" y="1749"/>
      <point x="567" y="1794"/>
      <point x="538" y="1794" type="qcurve" smooth="yes"/>
      <point x="508" y="1794"/>
      <point x="485" y="1727"/>
      <point x="498" y="1676" type="qcurve"/>
      <point x="330" y="1676" type="line"/>
      <point x="299" y="1807"/>
      <point x="386" y="1988"/>
      <point x="512" y="1988" type="qcurve" smooth="yes"/>
      <point x="561" y="1988"/>
      <point x="650" y="1943"/>
      <point x="731" y="1885"/>
      <point x="801" y="1840"/>
      <point x="830" y="1840" type="qcurve" smooth="yes"/>
      <point x="860" y="1840"/>
      <point x="884" y="1907"/>
      <point x="870" y="1958" type="qcurve"/>
      <point x="1038" y="1958" type="line"/>
      <point x="1070" y="1828"/>
      <point x="982" y="1646"/>
    </contour>
    <contour>
      <point x="40" y="0" type="line"/>
      <point x="480" y="1440" type="line"/>
      <point x="886" y="1440" type="line"/>
      <point x="1326" y="0" type="line"/>
      <point x="1046" y="0" type="line"/>
      <point x="654" y="1270" type="line"/>
      <point x="706" y="1270" type="line"/>
      <point x="320" y="0" type="line"/>
    </contour>
    <contour>
      <point x="304" y="300" type="line"/>
      <point x="304" y="554" type="line"/>
      <point x="1064" y="554" type="line"/>
      <point x="1064" y="300" type="line"/>
    </contour>
  </outline>
</glyph>
<glyph name="Ecircumflex" format="2">
  <advance width="1180"/>
  <unicode hex="00CA"/>
  <outline>
    <contour>
      <point x="196" y="1590" type="line"/>
      <point x="484" y="1920" type="line"/>
      <point x="708" y="1920" type="line"/>
      <point x="996" y="1590" type="line"/>
      <point x="746" y="1590" type="line"/>
      <point x="596" y="1770" type="line"/>
      <point x="446" y="1590" type="line"/>
    </contour>
    <contour>
      <point x="140" y="0" type="line"/>
      <point x="140" y="1440" type="line"/>
      <point x="1080" y="1440" type="line"/>
      <point x="1080" y="1186" type="line"/>
      <point x="412" y="1186" type="line"/>
      <point x="412" y="878" type="line"/>
      <point x="960" y="878" type="line"/>
      <point x="960" y="624" type="line"/>
      <point x="412" y="624" type="line"/>
      <point x="412" y="254" type="line"/>
      <point x="1080" y="254" type="line"/>
      <point x="1080" y="0" type="line"/>
    </contour>
  </outline>
</glyph>
<glyph name="Igrave" format="2">
  <advance width="592"/>
  <unicode hex="00CC"/>
  <outline>
    <contour>
      <point x="282" y="1980" type="line"/>
      <point x="361" y="1590" type="line"/>
      <point x="191" y="1590" type="line"/>
      <point x="25" y="1980" type="line"/>
    </contour>
    <contour>
      <point x="160" y="0" type="line"/>
      <point x="160" y="1440" type="line"/>
      <point x="432" y="1440" type="line"/>
      <point x="432" y="0" type="line"/>
    </contour>
  </outline>
</glyph>
<glyph name="Iacute" format="2">
  <advance width="592"/>
  <unicode hex="00CD"/>
  <outline>
    <contour>
      <point x="310" y="1980" type="line"/>
      <point x="567" y="1980" type="line"/>
      <point x="401" y="1590" type="line"/>
      <point x="231" y="1590" type="line"/>
    </contour>
    <contour>
      <point x="160" y="0" type="line"/>
      <point x="160" y="1440" type="line"/>
      <point x="432" y="1440" type="line"/>
      <point x="432" y="0" type="line"/>
    </contour>
  </outline>
</glyph>
<glyph name="Eth" format="2">
  <advance width="1428"/>
  <unicode hex="00D0"/>
  <outline>
    <contour>
      <point x="20" y="616" type="line"/>
      <point x="20" y="826" type="line"/>
      <point x="710" y="826" type="line"/>
      <point x="710" y="616" type="line"/>
    </contour>
    <contour>
      <point x="148" y="0" type="line"/>
      <point x="148" y="1440" type="line"/>
      <point x="614" y="1440" type="line" smooth="yes"/>
      <point x="631" y="1440"/>
      <point x="737" y="1438"/>
      <point x="786" y="1432" type="qcurve" smooth="yes"/>
      <point x="960" y="1411"/>
      <point x="1202" y="1211"/>
      <point x="1328" y="903"/>
      <point x="1328" y="720" type="qcurve" smooth="yes"/>
      <point x="1328" y="537"/>
      <point x="1202" y="229"/>
      <point x="960" y="29"/>
      <point x="786" y="8" type="qcurve" smooth="yes"/>
      <point x="737" y="2"/>
      <point x="631" y="0"/>
      <point x="614" y="0" type="qcurve" smooth="yes"/>
    </contour>
    <contour>
      <point x="424" y="256" type="line"/>
      <point x="614" y="256" type="line" smooth="yes"/>
      <point x="641" y="256"/>
      <point x="733" y="259"/>
      <point x="770" y="266" type="qcurve" smooth="yes"/>
      <point x="864" y="285"/>
      <point x="983" y="423"/>
      <point x="1040" y="617"/>
      <point x="1040" y="720" type="qcurve" smooth="yes"/>
      <point x="1040" y="828"/>
      <point x="981" y="1022"/>
      <point x="861" y="1156"/>
      <point x="770" y="1174" type="qcurve" smooth="yes"/>
      <point x="733" y="1182"/>
      <point x="641" y="1184"/>
      <point x="614" y="1184" type="qcurve" smooth="yes"/>
      <point x="424" y="1184" type="line"/>
    </contour>
  </outline>
</glyph>
<glyph name="Ntilde" format="2">
  <advance width="1458"/>
  <unicode hex="00D1"/>
  <outline>
    <contour>
      <point x="922" y="1596" type="qcurve" smooth="yes"/>
      <point x="873" y="1596"/>
      <point x="784" y="1641"/>
      <point x="703" y="1699"/>
      <point x="633" y="1744"/>
      <point x="604" y="1744" type="qcurve" smooth="yes"/>
      <point x="574" y="1744"/>
      <point x="551" y="1677"/>
      <point x="564" y="1626" type="qcurve"/>
      <point x="396" y="1626" type="line"/>
      <point x="365" y="1757"/>
      <point x="452" y="1938"/>
      <point x="578" y="1938" type="qcurve" smooth="yes"/>
      <point x="627" y="1938"/>
      <point x="716" y="1893"/>
      <point x="797" y="1835"/>
      <point x="867" y="1790"/>
      <point x="896" y="1790" type="qcurve" smooth="yes"/>
      <point x="926" y="1790"/>
      <point x="950" y="1857"/>
      <point x="936" y="1908" type="qcurve"/>
      <point x="1104" y="1908" type="line"/>
      <point x="1136" y="1778"/>
      <point x="1048" y="1596"/>
    </contour>
    <contour>
      <point x="140" y="0" type="line"/>
      <point x="140" y="1440" type="line"/>
      <point x="416" y="1440" type="line"/>
      <point x="1042" y="480" type="line"/>
      <point x="1042" y="1440" type="line"/>
      <point x="1318" y="1440" type="line"/>
      <point x="1318" y="0" type="line"/>
      <point x="1042" y="0" type="line"/>
      <point x="416" y="960" type="line"/>
      <point x="416" y="0" type="line"/>
    </contour>
  </outline>
</glyph>
<glyph name="Thorn" format="2">
  <advance width="1284"/>
  <unicode hex="00DE"/>
  <outline>
    <contour>
      <point x="140" y="0" type="line"/>
      <point x="140" y="1440" type="line"/>
      <point x="416" y="1440" type="line"/>
      <point x="416" y="1196" type="line"/>
      <point x="742" y="1196" type="line" smooth="yes"/>
      <point x="816" y="1196"/>
      <point x="888" y="1174" type="qcurve" smooth="yes"/>
      <point x="960" y="1152"/>
      <point x="1085" y="1064"/>
      <point x="1128" y="1002" type="qcurve"/>
      <point x="1173" y="942"/>
      <point x="1223" y="795"/>
      <point x="1224" y="720" type="qcurve" smooth="yes"/>
      <point x="1226" y="645"/>
      <point x="1173" y="498"/>
      <point x="1128" y="438" type="qcurve" smooth="yes"/>
      <point x="1065" y="351"/>
      <point x="861" y="246"/>
      <point x="742" y="246" type="qcurve" smooth="yes"/>
      <point x="416" y="246" type="line"/>
      <point x="416" y="0" type="line"/>
    </contour>
    <contour>
      <point x="416" y="500" type="line"/>
      <point x="740" y="500" type="line" smooth="yes"/>
      <point x="781" y="500"/>
      <point x="873" y="546"/>
      <point x="904" y="588" type="qcurve" smooth="yes"/>
      <point x="925" y="617"/>
      <point x="950" y="684"/>
      <point x="948" y="720" type="qcurve"/>
      <point x="947" y="759"/>
      <point x="922" y="834"/>
      <point x="896" y="862" type="qcurve"/>
      <point x="868" y="895"/>
      <point x="782" y="940"/>
      <point x="740" y="940" type="qcurve" smooth="yes"/>
      <point x="416" y="940" type="line"/>
    </contour>
  </outline>
</glyph>
<glyph name="aacute" format="2">
  <advance width="1166"/>
  <unicode hex="00E1"/>
  <outline>
    <contour>
      <point x="614" y="1620" type="line"/>
      <point x="535" y="1230" type="line"/>
      <point x="705" y="1230" type="line"/>
      <point x="871" y="1620" type="line"/>
    </contour>
    <contour>
      <point x="440" y="-30" type="qcurve" smooth="yes"/>
      <point x="324" y="-30"/>
      <point x="163" y="59"/>
      <point x="80" y="208"/>
      <point x="80" y="298" type="qcurve" smooth="yes"/>
      <point x="80" y="373"/>
      <point x="126" y="497"/>
      <point x="229" y="592"/>
      <point x="316" y="624" type="qcurve" smooth="yes"/>
      <point x="376" y="646"/>
      <point x="542" y="680"/>
      <point x="752" y="711"/>
      <point x="878" y="730" type="qcurve"/>
      <point x="780" y="676" type="line"/>
      <point x="780" y="772"/>
      <point x="688" y="862"/>
      <point x="580" y="862" type="qcurve" smooth="yes"/>
      <point x="520" y="862"/>
      <point x="390" y="804"/>
      <point x="364" y="730" type="qcurve"/>
      <point x="118" y="808" type="line"/>
      <point x="159" y="942"/>
      <point x="385" y="1110"/>
      <point x="580" y="1110" type="qcurve" smooth="yes"/>
      <point x="723" y="1110"/>
      <point x="945" y="1022"/>
      <point x="1002" y="914" type="qcurve" smooth="yes"/>
      <point x="1034" y="854"/>
      <point x="1046" y="734"/>
      <point x="1046" y="660" type="qcurve" smooth="yes"/>
      <point x="1046" y="0" type="line"/>
      <point x="808" y="0" type="line"/>
      <point x="808" y="222" type="line"/>
      <point x="842" y="176" type="line"/>
      <point x="763" y="67"/>
      <point x="580" y="-30"/>
    </contour>
    <contour>
      <point x="498" y="184" type="qcurve" smooth="yes"/>
      <point x="573" y="184"/>
      <point x="676" y="237"/>
      <point x="737" y="305"/>
      <point x="748" y="328" type="qcurve" smooth="yes"/>
      <point x="769" y="372"/>
      <point x="776" y="489"/>
      <point x="776" y="528" type="qcurve"/>
      <point x="856" y="508" type="line"/>
      <point x="735" y="488"/>
      <point x="585" y="461"/>
      <point x="493" y="439"/>
      <point x="458" y="426" type="qcurve" smooth="yes"/>
      <point x="418" y="410"/>
      <point x="369" y="373"/>
      <point x="346" y="329"/>
      <point x="346" y="302" type="qcurve" smooth="yes"/>
      <point x="346" y="265"/>
      <point x="383" y="212"/>
      <point x="451" y="184"/>
    </contour>
  </outline>
</glyph>
<glyph name="atilde" format="2">
  <advance width="1166"/>
  <unicode hex="00E3"/>
  <outline>
    <contour>
      <point x="790" y="1236" type="qcurve" smooth="yes"/>
      <point x="741" y="1236"/>
      <point x="652" y="1281"/>
      <point x="571" y="1339"/>
      <point x="501" y="1384"/>
      <point x="472" y="1384" type="qcurve" smooth="yes"/>
      <point x="442" y="1384"/>
      <point x="419" y="1317"/>
      <point x="432" y="1266" type="qcurve"/>
      <point x="264" y="1266" type="line"/>
      <point x="233" y="1397"/>
      <point x="320" y="1578"/>
      <point x="446" y="1578" type="qcurve" smooth="yes"/>
      <point x="495" y="1578"/>
      <point x="584" y="1533"/>
      <point x="665" y="1475"/>
      <point x="735" y="1430"/>
      <point x="764" y="1430" type="qcurve" smooth="yes"/>
      <point x="794" y="1430"/>
      <point x="818" y="1497"/>
      <point x="804" y="1548" type="qcurve"/>
      <point x="972" y="1548" type="line"/>
      <point x="1004" y="1418"/>
      <point x="916" y="1236"/>
    </contour>
    <contour>
      <point x="440" y="-30" type="qcurve" smooth="yes"/>
      <point x="324" y="-30"/>
      <point x="163" y="59"/>
      <point x="80" y="208"/>
      <point x="80" y="298" type="qcurve" smooth="yes"/>
      <point x="80" y="373"/>
      <point x="126" y="497"/>
      <point x="229" y="592"/>
      <point x="316" y="624" type="qcurve" smooth="yes"/>
      <point x="376" y="646"/>
      <point x="542" y="680"/>
      <point x="752" y="711"/>
      <point x="878" y="730" type="qcurve"/>
      <point x="780" y="676" type="line"/>
      <point x="780" y="772"/>
      <point x="688" y="862"/>
      <point x="580" y="862" type="qcurve" smooth="yes"/>
      <point x="520" y="862"/>
      <point x="390" y="804"/>
      <point x="364" y="730" type="qcurve"/>
      <point x="118" y="808" type="line"/>
      <point x="159" y="942"/>
      <point x="385" y="1110"/>
      <point x="580" y="1110" type="qcurve" smooth="yes"/>
      <point x="723" y="1110"/>
      <point x="945" y="1022"/>
      <point x="1002" y="914" type="qcurve" smooth="yes"/>
      <point x="1034" y="854"/>
      <point x="1046" y="734"/>
      <point x="1046" y="660" type="qcurve" smooth="yes"/>
      <point x="1046" y="0" type="line"/>
      <point x="808" y="0" type="line"/>
      <point x="808" y="222" type="line"/>
      <point x="842" y="176" type="line"/>
      <point x="763" y="67"/>
      <point x="580" y="-30"/>
    </contour>
    <contour>
      <point x="498" y="184" type="qcurve" smooth="yes"/>
      <point x="573" y="184"/>
      <point x="676" y="237"/>
      <point x="737" y="305"/>
      <point x="748" y="328" type="qcurve" smooth="yes"/>
      <point x="769" y="372"/>
      <point x="776" y="489"/>
      <point x="776" y="528" type="qcurve"/>
      <point x="856" y="508" type="line"/>
      <point x="735" y="488"/>
      <point x="585" y="461"/>
      <point x="493" y="439"/>
      <point x="458" y="426" type="qcurve" smooth="yes"/>
      <point x="418" y="410"/>
      <point x="369" y="373"/>
      <point x="346" y="329"/>
      <point x="346" y="302" type="qcurve" smooth="yes"/>
      <point x="346" y="265"/>
      <point x="383" y="212"/>
      <point x="451" y="184"/>
    </contour>
  </outline>
</glyph>
<glyph name="ae" format="2">
  <advance width="1868"/>
  <unicode hex="00E6"/>
  <outline>
    <contour>
      <point x="1321" y="-30" type="qcurve" smooth="yes"/>
      <point x="1161" y="-30"/>
      <point x="922" y="114"/>
      <point x="790" y="365"/>
      <point x="790" y="526" type="qcurve" smooth="yes"/>
      <point x="790" y="701"/>
      <point x="919" y="964"/>
      <point x="1151" y="1110"/>
      <point x="1306" y="1110" type="qcurve" smooth="yes"/>
      <point x="1473" y="1110"/>
      <point x="1696" y="944"/>
      <point x="1798" y="652"/>
      <point x="1784" y="464" type="qcurve"/>
      <point x="1529" y="464" type="line"/>
      <point x="1529" y="564" type="line" smooth="yes"/>
      <point x="1529" y="711"/>
      <point x="1443" y="874"/>
      <point x="1306" y="874" type="qcurve" smooth="yes"/>
      <point x="1214" y="874"/>
      <point x="1107" y="787"/>
      <point x="1062" y="636"/>
      <point x="1062" y="540" type="qcurve" smooth="yes"/>
      <point x="1062" y="395"/>
      <point x="1185" y="224"/>
      <point x="1306" y="224" type="qcurve" smooth="yes"/>
      <point x="1377" y="224"/>
      <point x="1488" y="293"/>
      <point x="1517" y="360" type="qcurve"/>
      <point x="1774" y="282" type="line"/>
      <point x="1737" y="184"/>
      <point x="1596" y="44"/>
      <point x="1417" y="-30"/>
    </contour>
    <contour>
      <point x="498" y="182" type="qcurve" smooth="yes"/>
      <point x="581" y="182"/>
      <point x="712" y="264"/>
      <point x="740" y="312" type="qcurve" smooth="yes"/>
      <point x="756" y="340"/>
      <point x="774" y="407"/>
      <point x="780" y="486"/>
      <point x="778" y="532" type="qcurve"/>
      <point x="876" y="498" type="line"/>
      <point x="648" y="470" type="line"/>
      <point x="609" y="466"/>
      <point x="506" y="447"/>
      <point x="410" y="410"/>
      <point x="346" y="348"/>
      <point x="346" y="300" type="qcurve" smooth="yes"/>
      <point x="346" y="249"/>
      <point x="426" y="182"/>
    </contour>
    <contour>
      <point x="454" y="-30" type="qcurve" smooth="yes"/>
      <point x="273" y="-30"/>
      <point x="80" y="152"/>
      <point x="80" y="290" type="qcurve" smooth="yes"/>
      <point x="80" y="376"/>
      <point x="149" y="496"/>
      <point x="262" y="573"/>
      <point x="398" y="619"/>
      <point x="535" y="643"/>
      <point x="592" y="650" type="qcurve" smooth="yes"/>
      <point x="838" y="682" type="line"/>
      <point x="774" y="630" type="line"/>
      <point x="785" y="718"/>
      <point x="734" y="819"/>
      <point x="637" y="862"/>
      <point x="580" y="862" type="qcurve" smooth="yes"/>
      <point x="510" y="862"/>
      <point x="391" y="798"/>
      <point x="362" y="730" type="qcurve"/>
      <point x="118" y="804" type="line"/>
      <point x="154" y="886"/>
      <point x="283" y="1025"/>
      <point x="468" y="1110"/>
      <point x="588" y="1110" type="qcurve" smooth="yes"/>
      <point x="764" y="1110"/>
      <point x="983" y="966"/>
      <point x="1022" y="840" type="qcurve" smooth="yes"/>
      <point x="1040" y="782"/>
      <point x="1046" y="673"/>
      <point x="1046" y="644" type="qcurve"/>
      <point x="908" y="212" type="line"/>
      <point x="855" y="126"/>
      <point x="719" y="19"/>
      <point x="553" y="-30"/>
    </contour>
    <contour>
      <point x="982" y="464" type="line"/>
      <point x="982" y="674" type="line"/>
      <point x="1659" y="674" type="line"/>
      <point x="1659" y="464" type="line"/>
    </contour>
  </outline>
</glyph>
<glyph name="ccedilla" format="2">
  <advance width="1166"/>
  <unicode hex="00E7"/>
  <outline>
    <contour>
      <point x="586" y="-484" type="qcurve" smooth="yes"/>
      <point x="544" y="-484"/>
      <point x="474" y="-462"/>
      <point x="444" y="-446" type="qcurve"/>
      <point x="502" y="-290" type="line"/>
      <point x="541" y="-302"/>
      <point x="562" y="-302" type="qcurve" smooth="yes"/>
      <point x="589" y="-302"/>
      <point x="618" y="-272"/>
      <point x="618" y="-256" type="qcurve" smooth="yes"/>
      <point x="618" y="-220"/>
      <point x="541" y="-185"/>
      <point x="488" y="-170" type="qcurve"/>
      <point x="558" y="34" type="line"/>
      <point x="716" y="36" type="line"/>
      <point x="680" y="-72" type="line"/>
      <point x="739" y="-102"/>
      <point x="802" y="-197"/>
      <point x="802" y="-262" type="qcurve" smooth="yes"/>
      <point x="802" y="-361"/>
      <point x="673" y="-484"/>
    </contour>
    <contour>
      <point x="616" y="-30" type="qcurve" smooth="yes"/>
      <point x="448" y="-30"/>
      <point x="208" y="120"/>
      <point x="80" y="378"/>
      <point x="80" y="540" type="qcurve" smooth="yes"/>
      <point x="80" y="704"/>
      <point x="213" y="962"/>
      <point x="455" y="1110"/>
      <point x="620" y="1110" type="qcurve" smooth="yes"/>
      <point x="811" y="1110"/>
      <point x="1070" y="917"/>
      <point x="1106" y="750" type="qcurve"/>
      <point x="834" y="678" type="line"/>
      <point x="810" y="762"/>
      <point x="691" y="856"/>
      <point x="616" y="856" type="qcurve" smooth="yes"/>
      <point x="530" y="856"/>
      <point x="420" y="773"/>
      <point x="368" y="630"/>
      <point x="368" y="540" type="qcurve" smooth="yes"/>
      <point x="368" y="399"/>
      <point x="493" y="224"/>
      <point x="616" y="224" type="qcurve" smooth="yes"/>
      <point x="708" y="224"/>
      <point x="804" y="308"/>
      <point x="828" y="386" type="qcurve"/>
      <point x="1106" y="328" type="line"/>
      <point x="1060" y="156"/>
      <point x="804" y="-30"/>
    </contour>
  </outline>
</glyph>
<glyph name="ecircumflex" format="2">
  <advance width="1216"/>
  <unicode hex="00EA"/>
  <outline>
    <contour>
      <point x="222" y="1230" type="line"/>
      <point x="510" y="1560" type="line"/>
      <point x="734" y="1560" type="line"/>
      <point x="1022" y="1230" type="line"/>
      <point x="772" y="1230" type="line"/>
      <point x="622" y="1410" type="line"/>
      <point x="472" y="1230" type="line"/>
    </contour>
    <contour>
      <point x="642" y="-30" type="qcurve" smooth="yes"/>
      <point x="476" y="-30"/>
      <point x="223" y="113"/>
      <point x="80" y="364"/>
      <point x="80" y="526" type="qcurve" smooth="yes"/>
      <point x="80" y="703"/>
      <point x="220" y="965"/>
      <point x="466" y="1110"/>
      <point x="626" y="1110" type="qcurve" smooth="yes"/>
      <point x="796" y="1110"/>
      <point x="1034" y="950"/>
      <point x="1148" y="660"/>
      <point x="1131" y="464" type="qcurve"/>
      <point x="862" y="464" type="line"/>
      <point x="862" y="564" type="line" smooth="yes"/>
      <point x="862" y="729"/>
      <point x="757" y="874"/>
      <point x="638" y="874" type="qcurve" smooth="yes"/>
      <point x="499" y="874"/>
      <point x="368" y="705"/>
      <point x="368" y="540" type="qcurve" smooth="yes"/>
      <point x="368" y="389"/>
      <point x="499" y="224"/>
      <point x="626" y="224" type="qcurve" smooth="yes"/>
      <point x="706" y="224"/>
      <point x="820" y="294"/>
      <point x="850" y="360" type="qcurve"/>
      <point x="1122" y="282" type="line"/>
      <point x="1061" y="134"/>
      <point x="798" y="-30"/>
    </contour>
    <contour>
      <point x="284" y="464" type="line"/>
      <point x="284" y="666" type="line"/>
      <point x="1000" y="666" type="line"/>
      <point x="1000" y="464" type="line"/>
    </contour>
  </outline>
</glyph>
<glyph name="igrave" format="2">
  <advance width="592"/>
  <unicode hex="00EC"/>
  <outline>
    <contour>
      <point x="282" y="1620" type="line"/>
      <point x="361" y="1230" type="line"/>
      <point x="191" y="1230" type="line"/>
      <point x="25" y="1620" type="line"/>
    </contour>
    <contour>
      <point x="160" y="0" type="line"/>
      <point x="160" y="1080" type="line"/>
      <point x="432" y="1080" type="line"/>
      <point x="432" y="0" type="line"/>
    </contour>
  </outline>
</glyph>
<glyph name="iacute" format="2">
  <advance width="592"/>
  <unicode hex="00ED"/>
  <outline>
    <contour>
      <point x="310" y="1620" type="line"/>
      <point x="567" y="1620" type="line"/>
      <point x="401" y="1230" type="line"/>
      <point x="231" y="1230" type="line"/>
    </contour>
    <contour>
      <point x="160" y="0" type="line"/>
      <point x="160" y="1080" type="line"/>
      <point x="432" y="1080" type="line"/>
      <point x="432" y="0" type="line"/>
    </contour>
  </outline>
</glyph>
<glyph name="eth" format="2">
  <advance width="1202"/>
  <unicode hex="00F0"/>
  <outline>
    <contour>
      <point x="602" y="-30" type="qcurve" smooth="yes"/>
      <point x="448" y="-30"/>
      <point x="213" y="105"/>
      <point x="80" y="345"/>
      <point x="80" y="502" type="qcurve" smooth="yes"/>
      <point x="80" y="660"/>
      <point x="213" y="901"/>
      <point x="448" y="1036"/>
      <point x="602" y="1036" type="qcurve" smooth="yes"/>
      <point x="668" y="1036"/>
      <point x="787" y="1005"/>
      <point x="866" y="966" type="qcurve"/>
      <point x="853" y="1051"/>
      <point x="715" y="1204"/>
      <point x="512" y="1306"/>
      <point x="402" y="1314" type="qcurve"/>
      <point x="444" y="1520" type="line"/>
      <point x="597" y="1516"/>
      <point x="838" y="1406"/>
      <point x="920" y="1304" type="qcurve" smooth="yes"/>
      <point x="992" y="1216"/>
      <point x="1081" y="995"/>
      <point x="1122" y="704"/>
      <point x="1122" y="510" type="qcurve" smooth="yes"/>
      <point x="1122" y="345"/>
      <point x="995" y="102"/>
      <point x="761" y="-30"/>
    </contour>
    <contour>
      <point x="602" y="210" type="qcurve" smooth="yes"/>
      <point x="719" y="210"/>
      <point x="850" y="365"/>
      <point x="850" y="504" type="qcurve" smooth="yes"/>
      <point x="850" y="642"/>
      <point x="719" y="796"/>
      <point x="602" y="796" type="qcurve" smooth="yes"/>
      <point x="481" y="796"/>
      <point x="352" y="645"/>
      <point x="352" y="504" type="qcurve" smooth="yes"/>
      <point x="352" y="363"/>
      <point x="482" y="210"/>
    </contour>
    <contour>
      <point x="640" y="1058" type="line"/>
      <point x="492" y="1190" type="line"/>
      <point x="822" y="1566" type="line"/>
      <point x="970" y="1434" type="line"/>
    </contour>
  </outline>
</glyph>
<glyph name="otilde" format="2">
  <advance width="1254"/>
  <unicode hex="00F5"/>
  <outline>
    <contour>
      <point x="800" y="1236" type="qcurve" smooth="yes"/>
      <point x="751" y="1236"/>
      <point x="662" y="1281"/>
      <point x="581" y="1339"/>
      <point x="511" y="1384"/>
      <point x="482" y="1384" type="qcurve" smooth="yes"/>
      <point x="452" y="1384"/>
      <point x="429" y="1317"/>
      <point x="442" y="1266" type="qcurve"/>
      <point x="274" y="1266" type="line"/>
      <point x="243" y="1397"/>
      <point x="330" y="1578"/>
      <point x="456" y="1578" type="qcurve" smooth="yes"/>
      <point x="505" y="1578"/>
      <point x="594" y="1533"/>
      <point x="675" y="1475"/>
      <point x="745" y="1430"/>
      <point x="774" y="1430" type="qcurve" smooth="yes"/>
      <point x="804" y="1430"/>
      <point x="828" y="1497"/>
      <point x="814" y="1548" type="qcurve"/>
      <point x="982" y="1548" type="line"/>
      <point x="1014" y="1418"/>
      <point x="926" y="1236"/>
    </contour>
    <contour>
      <point x="626" y="-30" type="qcurve" smooth="yes"/>
      <point x="463" y="-30"/>
      <point x="217" y="116"/>
      <point x="80" y="373"/>
      <point x="80" y="540" type="qcurve" smooth="yes"/>
      <point x="80" y="709"/>
      <point x="220" y="966"/>
      <point x="466" y="1110"/>
      <point x="626" y="1110" type="qcurve" smooth="yes"/>
      <point x="789" y="1110"/>
      <point x="1036" y="964"/>
      <point x="1174" y="707"/>
      <point x="1174" y="540" type="qcurve" smooth="yes"/>
      <point x="1174" y="372"/>
      <point x="1035" y="115"/>
      <point x="788" y="-30"/>
    </contour>
    <contour>
      <point x="626" y="224" type="qcurve" smooth="yes"/>
      <point x="757" y="224"/>
      <point x="886" y="401"/>
      <point x="886" y="540" type="qcurve" smooth="yes"/>
      <point x="886" y="684"/>
      <point x="755" y="856"/>
      <point x="626" y="856" type="qcurve" smooth="yes"/>
      <point x="537" y="856"/>
      <point x="423" y="776"/>
      <point x="368" y="634"/>
      <point x="368" y="540" type="qcurve" smooth="yes"/>
      <point x="368" y="395"/>
      <point x="499" y="224"/>
    </contour>
  </outline>
</glyph>
<glyph name="uacute" format="2">
  <advance width="1272"/>
  <unicode hex="00FA"/>
  <outline>
    <contour>
      <point x="624" y="1620" type="line"/>
      <point x="545" y="1230" type="line"/>
      <point x="715" y="1230" type="line"/>
      <point x="881" y="1620" type="line"/>
    </contour>
    <contour>
      <point x="542" y="-32" type="qcurve" smooth="yes"/>
      <point x="415" y="-32"/>
      <point x="255" y="54"/>
      <point x="166" y="186"/>
      <point x="128" y="329"/>
      <point x="120" y="447"/>
      <point x="120" y="474" type="qcurve" smooth="yes"/>
      <point x="120" y="1080" type="line"/>
      <point x="396" y="1080" type="line"/>
      <point x="396" y="570" type="line" smooth="yes"/>
      <point x="396" y="533"/>
      <point x="404" y="418"/>
      <point x="446" y="302"/>
      <point x="541" y="224"/>
      <point x="628" y="224" type="qcurve" smooth="yes"/>
      <point x="663" y="224"/>
      <point x="743" y="246"/>
      <point x="813" y="309"/>
      <point x="858" y="432"/>
      <point x="858" y="532" type="qcurve"/>
      <point x="1014" y="458" type="line"/>
      <point x="1014" y="330"/>
      <point x="910" y="106"/>
      <point x="701" y="-32"/>
    </contour>
    <contour>
      <point x="892" y="0" type="line"/>
      <point x="892" y="358" type="line"/>
      <point x="858" y="358" type="line"/>
      <point x="858" y="1080" type="line"/>
      <point x="1132" y="1080" type="line"/>
      <point x="1132" y="0" type="line"/>
    </contour>
  </outline>
</glyph>
<glyph name="yacute" format="2">
  <advance width="1146"/>
  <unicode hex="00FD"/>
  <outline>
    <component base="y"/>
    <contour>
      <point x="597" y="1620" type="line"/>
      <point x="518" y="1230" type="line"/>
      <point x="688" y="1230" type="line"/>
      <point x="854" y="1620" type="line"/>
    </contour>
  </outline>
</glyph>
<glyph name="Amacron" format="2">
  <advance width="1366"/>
  <unicode hex="0100"/>
  <outline>
    <contour>
      <point x="412" y="1680" type="line"/>
      <point x="412" y="1888" type="line"/>
      <point x="956" y="1888" type="line"/>
      <point x="956" y="1680" type="line"/>
    </contour>
    <contour>
      <point x="40" y="0" type="line"/>
      <point x="480" y="1440" type="line"/>
      <point x="886" y="1440" type="line"/>
      <point x="1326" y="0" type="line"/>
      <point x="1046" y="0" type="line"/>
      <point x="654" y="1270" type="line"/>
      <point x="706" y="1270" type="line"/>
      <point x="320" y="0" type="line"/>
    </contour>
    <contour>
      <point x="304" y="300" type="line"/>
      <point x="304" y="554" type="line"/>
      <point x="1064" y="554" type="line"/>
      <point x="1064" y="300" type="line"/>
    </contour>
  </outline>
</glyph>
<glyph name="aogonek" format="2">
  <advance width="1166"/>
  <unicode hex="0105"/>
  <outline>
    <contour>
      <point x="840" y="-478" type="qcurve" smooth="yes"/>
      <point x="774" y="-478"/>
      <point x="674" y="-414"/>
      <point x="618" y="-311"/>
      <point x="618" y="-252" type="qcurve" smooth="yes"/>
      <point x="618" y="-178"/>
      <point x="701" y="-30"/>
      <point x="843" y="94"/>
      <point x="932" y="132" type="qcurve"/>
      <point x="1046" y="0" type="line"/>
      <point x="985" y="-31"/>
      <point x="885" y="-115"/>
      <point x="826" y="-199"/>
      <point x="826" y="-230" type="qcurve" smooth="yes"/>
      <point x="826" y="-251"/>
      <point x="856" y="-280"/>
      <point x="878" y="-280" type="qcurve" smooth="yes"/>
      <point x="893" y="-280"/>
      <point x="928" y="-265"/>
      <point x="946" y="-250" type="qcurve"/>
      <point x="1040" y="-374" type="line"/>
      <point x="1004" y="-423"/>
      <point x="897" y="-478"/>
    </contour>
    <contour>
      <point x="440" y="-30" type="qcurve" smooth="yes"/>
      <point x="324" y="-30"/>
      <point x="163" y="59"/>
      <point x="80" y="208"/>
      <point x="80" y="298" type="qcurve" smooth="yes"/>
      <point x="80" y="373"/>
      <point x="126" y="497"/>
      <point x="229" y="592"/>
      <point x="316" y="624" type="qcurve" smooth="yes"/>
      <point x="376" y="646"/>
      <point x="542" y="680"/>
      <point x="752" y="711"/>
      <point x="878" y="730" type="qcurve"/>
      <point x="780" y="676" type="line"/>
      <point x="780" y="772"/>
      <point x="688" y="862"/>
      <point x="580" y="862" type="qcurve" smooth="yes"/>
      <point x="520" y="862"/>
      <point x="390" y="804"/>
      <point x="364" y="730" type="qcurve"/>
      <point x="118" y="808" type="line"/>
      <point x="159" y="942"/>
      <point x="385" y="1110"/>
      <point x="580" y="1110" type="qcurve" smooth="yes"/>
      <point x="723" y="1110"/>
      <point x="945" y="1022"/>
      <point x="1002" y="914" type="qcurve" smooth="yes"/>
      <point x="1034" y="854"/>
      <point x="1046" y="734"/>
      <point x="1046" y="660" type="qcurve" smooth="yes"/>
      <point x="1046" y="0" type="line"/>
      <point x="808" y="0" type="line"/>
      <point x="808" y="222" type="line"/>
      <point x="842" y="176" type="line"/>
      <point x="763" y="67"/>
      <point x="580" y="-30"/>
    </contour>
    <contour>
      <point x="498" y="184" type="qcurve" smooth="yes"/>
      <point x="573" y="184"/>
      <point x="676" y="237"/>
      <point x="737" y="305"/>
      <point x="748" y="328" type="qcurve" smooth="yes"/>
      <point x="769" y="372"/>
      <point x="776" y="489"/>
      <point x="776" y="528" type="qcurve"/>
      <point x="856" y="508" type="line"/>
      <point x="735" y="488"/>
      <point x="585" y="461"/>
      <point x="493" y="439"/>
      <point x="458" y="426" type="qcurve" smooth="yes"/>
      <point x="418" y="410"/>
      <point x="369" y="373"/>
      <point x="346" y="329"/>
      <point x="346" y="302" type="qcurve" smooth="yes"/>
      <point x="346" y="265"/>
      <point x="383" y="212"/>
      <point x="451" y="184"/>
    </contour>
  </outline>
</glyph>
<glyph name="cdotaccent" format="2">
  <advance width="1166"/>
  <unicode hex="010B"/>
  <outline>
    <contour>
      <point x="653" y="1266" type="qcurve" smooth="yes"/>
      <point x="585" y="1266"/>
      <point x="494" y="1358"/>
      <point x="494" y="1424" type="qcurve" smooth="yes"/>
      <point x="494" y="1491"/>
      <point x="585" y="1582"/>
      <point x="653" y="1582" type="qcurve" smooth="yes"/>
      <point x="722" y="1582"/>
      <point x="812" y="1491"/>
      <point x="812" y="1424" type="qcurve" smooth="yes"/>
      <point x="812" y="1358"/>
      <point x="722" y="1266"/>
    </contour>
    <contour>
      <point x="616" y="-30" type="qcurve" smooth="yes"/>
      <point x="448" y="-30"/>
      <point x="208" y="120"/>
      <point x="80" y="378"/>
      <point x="80" y="540" type="qcurve" smooth="yes"/>
      <point x="80" y="704"/>
      <point x="213" y="962"/>
      <point x="455" y="1110"/>
      <point x="620" y="1110" type="qcurve" smooth="yes"/>
      <point x="811" y="1110"/>
      <point x="1070" y="917"/>
      <point x="1106" y="750" type="qcurve"/>
      <point x="834" y="678" type="line"/>
      <point x="810" y="762"/>
      <point x="691" y="856"/>
      <point x="616" y="856" type="qcurve" smooth="yes"/>
      <point x="530" y="856"/>
      <point x="420" y="773"/>
      <point x="368" y="630"/>
      <point x="368" y="540" type="qcurve" smooth="yes"/>
      <point x="368" y="399"/>
      <point x="493" y="224"/>
      <point x="616" y="224" type="qcurve" smooth="yes"/>
      <point x="708" y="224"/>
      <point x="804" y="308"/>
      <point x="828" y="386" type="qcurve"/>
      <point x="1106" y="328" type="line"/>
      <point x="1060" y="156"/>
      <point x="804" y="-30"/>
    </contour>
  </outline>
</glyph>
<glyph name="dcroat" format="2">
  <advance width="1250"/>
  <unicode hex="0111"/>
  <outline>
    <contour>
      <point x="690" y="1160" type="line"/>
      <point x="690" y="1368" type="line"/>
      <point x="1234" y="1368" type="line"/>
      <point x="1234" y="1160" type="line"/>
    </contour>
    <contour>
      <point x="578" y="-30" type="qcurve" smooth="yes"/>
      <point x="429" y="-30"/>
      <point x="205" y="120"/>
      <point x="80" y="378"/>
      <point x="80" y="540" type="qcurve" smooth="yes"/>
      <point x="80" y="705"/>
      <point x="207" y="962"/>
      <point x="437" y="1110"/>
      <point x="592" y="1110" type="qcurve" smooth="yes"/>
      <point x="746" y="1110"/>
      <point x="956" y="960"/>
      <point x="1064" y="702"/>
      <point x="1064" y="540" type="qcurve" smooth="yes"/>
      <point x="1064" y="378"/>
      <point x="955" y="120"/>
      <point x="739" y="-30"/>
    </contour>
    <contour>
      <point x="622" y="212" type="qcurve" smooth="yes"/>
      <point x="713" y="212"/>
      <point x="822" y="294"/>
      <point x="870" y="442"/>
      <point x="870" y="540" type="qcurve" smooth="yes"/>
      <point x="870" y="638"/>
      <point x="822" y="786"/>
      <point x="717" y="868"/>
      <point x="632" y="868" type="qcurve" smooth="yes"/>
      <point x="541" y="868"/>
      <point x="424" y="779"/>
      <point x="368" y="630"/>
      <point x="368" y="540" type="qcurve" smooth="yes"/>
      <point x="368" y="449"/>
      <point x="422" y="300"/>
      <point x="534" y="212"/>
    </contour>
    <contour>
      <point x="870" y="0" type="line"/>
      <point x="870" y="740" type="line"/>
      <point x="836" y="740" type="line"/>
      <point x="836" y="1440" type="line"/>
      <point x="1110" y="1440" type="line"/>
      <point x="1110" y="0" type="line"/>
    </contour>
  </outline>
</glyph>
<glyph name="Edotaccent" format="2">
  <advance width="1180"/>
  <unicode hex="0116"/>
  <outline>
    <contour>
      <point x="609" y="1626" type="qcurve" smooth="yes"/>
      <point x="541" y="1626"/>
      <point x="450" y="1718"/>
      <point x="450" y="1784" type="qcurve" smooth="yes"/>
      <point x="450" y="1851"/>
      <point x="541" y="1942"/>
      <point x="609" y="1942" type="qcurve" smooth="yes"/>
      <point x="678" y="1942"/>
      <point x="768" y="1851"/>
      <point x="768" y="1784" type="qcurve" smooth="yes"/>
      <point x="768" y="1718"/>
      <point x="678" y="1626"/>
    </contour>
    <contour>
      <point x="140" y="0" type="line"/>
      <point x="140" y="1440" type="line"/>
      <point x="1080" y="1440" type="line"/>
      <point x="1080" y="1186" type="line"/>
      <point x="412" y="1186" type="line"/>
      <point x="412" y="878" type="line"/>
      <point x="960" y="878" type="line"/>
      <point x="960" y="624" type="line"/>
      <point x="412" y="624" type="line"/>
      <point x="412" y="254" type="line"/>
      <point x="1080" y="254" type="line"/>
      <point x="1080" y="0" type="line"/>
    </contour>
  </outline>
</glyph>
<glyph name="Ecaron" format="2">
  <advance width="1180"/>
  <unicode hex="011A"/>
  <outline>
    <contour>
      <point x="216" y="1920" type="line"/>
      <point x="466" y="1920" type="line"/>
      <point x="616" y="1740" type="line"/>
      <point x="766" y="1920" type="line"/>
      <point x="1016" y="1920" type="line"/>
      <point x="728" y="1590" type="line"/>
      <point x="504" y="1590" type="line"/>
    </contour>
    <contour>
      <point x="140" y="0" type="line"/>
      <point x="140" y="1440" type="line"/>
      <point x="1080" y="1440" type="line"/>
      <point x="1080" y="1186" type="line"/>
      <point x="412" y="1186" type="line"/>
      <point x="412" y="878" type="line"/>
      <point x="960" y="878" type="line"/>
      <point x="960" y="624" type="line"/>
      <point x="412" y="624" type="line"/>
      <point x="412" y="254" type="line"/>
      <point x="1080" y="254" type="line"/>
      <point x="1080" y="0" type="line"/>
    </contour>
  </outline>
</glyph>
<glyph name="gdotaccent" format="2">
  <advance width="1248"/>
  <unicode hex="0121"/>
  <outline>
    <contour>
      <point x="673" y="1266" type="qcurve" smooth="yes"/>
      <point x="605" y="1266"/>
      <point x="514" y="1358"/>
      <point x="514" y="1424" type="qcurve" smooth="yes"/>
      <point x="514" y="1491"/>
      <point x="605" y="1582"/>
      <point x="673" y="1582" type="qcurve" smooth="yes"/>
      <point x="742" y="1582"/>
      <point x="832" y="1491"/>
      <point x="832" y="1424" type="qcurve" smooth="yes"/>
      <point x="832" y="1358"/>
      <point x="742" y="1266"/>
    </contour>
    <contour>
      <point x="602" y="-510" type="qcurve" smooth="yes"/>
      <point x="510" y="-510"/>
      <point x="344" y="-451"/>
      <point x="213" y="-346"/>
      <point x="172" y="-276" type="qcurve"/>
      <point x="424" y="-154" type="line"/>
      <point x="450" y="-202"/>
      <point x="547" y="-252"/>
      <point x="604" y="-252" type="qcurve" smooth="yes"/>
      <point x="665" y="-252"/>
      <point x="773" y="-211"/>
      <point x="838" y="-130"/>
      <point x="836" y="-70" type="qcurve"/>
      <point x="836" y="244" type="line"/>
      <point x="870" y="244" type="line"/>
      <point x="870" y="1080" type="line"/>
      <point x="1108" y="1080" type="line"/>
      <point x="1108" y="-74" type="line" smooth="yes"/>
      <point x="1108" y="-114"/>
      <point x="1101" y="-185"/>
      <point x="1092" y="-220" type="qcurve" smooth="yes"/>
      <point x="1066" y="-319"/>
      <point x="925" y="-447"/>
      <point x="721" y="-510"/>
    </contour>
    <contour>
      <point x="578" y="-30" type="qcurve" smooth="yes"/>
      <point x="429" y="-30"/>
      <point x="205" y="120"/>
      <point x="80" y="378"/>
      <point x="80" y="540" type="qcurve" smooth="yes"/>
      <point x="80" y="705"/>
      <point x="207" y="962"/>
      <point x="437" y="1110"/>
      <point x="592" y="1110" type="qcurve" smooth="yes"/>
      <point x="746" y="1110"/>
      <point x="956" y="960"/>
      <point x="1064" y="702"/>
      <point x="1064" y="540" type="qcurve" smooth="yes"/>
      <point x="1064" y="378"/>
      <point x="955" y="120"/>
      <point x="739" y="-30"/>
    </contour>
    <contour>
      <point x="622" y="212" type="qcurve" smooth="yes"/>
      <point x="713" y="212"/>
      <point x="822" y="294"/>
      <point x="870" y="442"/>
      <point x="870" y="540" type="qcurve" smooth="yes"/>
      <point x="870" y="638"/>
      <point x="822" y="786"/>
      <point x="717" y="868"/>
      <point x="632" y="868" type="qcurve" smooth="yes"/>
      <point x="541" y="868"/>
      <point x="424" y="779"/>
      <point x="368" y="630"/>
      <point x="368" y="540" type="qcurve" smooth="yes"/>
      <point x="368" y="449"/>
      <point x="422" y="300"/>
      <point x="534" y="212"/>
    </contour>
  </outline>
</glyph>
<glyph name="uni0122" format="2">
  <advance width="1482"/>
  <unicode hex="0122"/>
  <outline>
    <contour>
      <point x="652" y="-150" type="line"/>
      <point x="573" y="-540" type="line"/>
      <point x="743" y="-540" type="line"/>
      <point x="909" y="-150" type="line"/>
    </contour>
    <contour>
      <point x="1140" y="0" type="line"/>
      <point x="1414" y="0" type="line"/>
      <point x="1414" y="806" type="line"/>
      <point x="1140" y="806" type="line"/>
    </contour>
    <contour>
      <point x="745" y="1470" type="qcurve" smooth="yes"/>
      <point x="594" y="1470"/>
      <point x="342" y="1361"/>
      <point x="160" y="1163"/>
      <point x="60" y="887"/>
      <point x="60" y="720" type="qcurve" smooth="yes"/>
      <point x="60" y="543"/>
      <point x="156" y="264"/>
      <point x="332" y="71"/>
      <point x="577" y="-30"/>
      <point x="725" y="-30" type="qcurve" smooth="yes"/>
      <point x="797" y="-30"/>
      <point x="927" y="-2"/>
      <point x="1035" y="51"/>
      <point x="1117" y="126"/>
      <point x="1140" y="173" type="qcurve"/>
      <point x="1404" y="806" type="line"/>
      <point x="665" y="806" type="line"/>
      <point x="665" y="552" type="line"/>
      <point x="1118" y="552" type="line"/>
      <point x="1113" y="469"/>
      <point x="1051" y="347"/>
      <point x="953" y="266"/>
      <point x="825" y="226"/>
      <point x="753" y="226" type="qcurve" smooth="yes"/>
      <point x="653" y="226"/>
      <point x="501" y="292"/>
      <point x="399" y="419"/>
      <point x="348" y="603"/>
      <point x="348" y="720" type="qcurve" smooth="yes"/>
      <point x="348" y="837"/>
      <point x="404" y="1021"/>
      <point x="509" y="1147"/>
      <point x="659" y="1214"/>
      <point x="754" y="1214" type="qcurve" smooth="yes"/>
      <point x="825" y="1214"/>
      <point x="946" y="1176"/>
      <point x="1040" y="1104"/>
      <point x="1104" y="1001"/>
      <point x="1119" y="936" type="qcurve"/>
      <point x="1397" y="976" type="line"/>
      <point x="1363" y="1099"/>
      <point x="1247" y="1285"/>
      <point x="1085" y="1408"/>
      <point x="874" y="1470"/>
    </contour>
  </outline>
</glyph>
<glyph name="hcircumflex" format="2">
  <advance width="1272"/>
  <unicode hex="0125"/>
  <outline>
    <contour>
      <point x="-145" y="1590" type="line"/>
      <point x="143" y="1920" type="line"/>
      <point x="367" y="1920" type="line"/>
      <point x="655" y="1590" type="line"/>
      <point x="405" y="1590" type="line"/>
      <point x="255" y="1770" type="line"/>
      <point x="105" y="1590" type="line"/>
    </contour>
    <contour>
      <point x="876" y="0" type="line"/>
      <point x="876" y="510" type="line" smooth="yes"/>
      <point x="876" y="547"/>
      <point x="868" y="662"/>
      <point x="826" y="778"/>
      <point x="731" y="856"/>
      <point x="644" y="856" type="qcurve" smooth="yes"/>
      <point x="609" y="856"/>
      <point x="529" y="834"/>
      <point x="459" y="771"/>
      <point x="414" y="649"/>
      <point x="414" y="548" type="qcurve"/>
      <point x="258" y="622" type="line"/>
      <point x="258" y="750"/>
      <point x="362" y="974"/>
      <point x="571" y="1112"/>
      <point x="730" y="1112" type="qcurve" smooth="yes"/>
      <point x="857" y="1112"/>
      <point x="1017" y="1026"/>
      <point x="1106" y="894"/>
      <point x="1144" y="751"/>
      <point x="1152" y="633"/>
      <point x="1152" y="606" type="qcurve" smooth="yes"/>
      <point x="1152" y="0" type="line"/>
    </contour>
    <contour>
      <point x="138" y="0" type="line"/>
      <point x="138" y="1440" type="line"/>
      <point x="380" y="1440" type="line"/>
      <point x="380" y="700" type="line"/>
      <point x="414" y="700" type="line"/>
      <point x="414" y="0" type="line"/>
    </contour>
  </outline>
</glyph>
<glyph name="itilde" format="2">
  <advance width="592"/>
  <unicode hex="0129"/>
  <outline>
    <contour>
      <point x="468" y="1236" type="qcurve" smooth="yes"/>
      <point x="419" y="1236"/>
      <point x="330" y="1281"/>
      <point x="249" y="1339"/>
      <point x="179" y="1384"/>
      <point x="150" y="1384" type="qcurve" smooth="yes"/>
      <point x="120" y="1384"/>
      <point x="97" y="1317"/>
      <point x="110" y="1266" type="qcurve"/>
      <point x="-58" y="1266" type="line"/>
      <point x="-89" y="1397"/>
      <point x="-2" y="1578"/>
      <point x="124" y="1578" type="qcurve" smooth="yes"/>
      <point x="173" y="1578"/>
      <point x="262" y="1533"/>
      <point x="343" y="1475"/>
      <point x="413" y="1430"/>
      <point x="442" y="1430" type="qcurve" smooth="yes"/>
      <point x="472" y="1430"/>
      <point x="496" y="1497"/>
      <point x="482" y="1548" type="qcurve"/>
      <point x="650" y="1548" type="line"/>
      <point x="682" y="1418"/>
      <point x="594" y="1236"/>
    </contour>
    <contour>
      <point x="160" y="0" type="line"/>
      <point x="160" y="1080" type="line"/>
      <point x="432" y="1080" type="line"/>
      <point x="432" y="0" type="line"/>
    </contour>
  </outline>
</glyph>
<glyph name="imacron" format="2">
  <advance width="592"/>
  <unicode hex="012B"/>
  <outline>
    <contour>
      <point x="24" y="1320" type="line"/>
      <point x="24" y="1528" type="line"/>
      <point x="568" y="1528" type="line"/>
      <point x="568" y="1320" type="line"/>
    </contour>
    <contour>
      <point x="160" y="0" type="line"/>
      <point x="160" y="1080" type="line"/>
      <point x="432" y="1080" type="line"/>
      <point x="432" y="0" type="line"/>
    </contour>
  </outline>
</glyph>
<glyph name="iogonek" format="2">
  <advance width="592"/>
  <unicode hex="012F"/>
  <outline>
    <contour>
      <point x="226" y="-478" type="qcurve" smooth="yes"/>
      <point x="160" y="-478"/>
      <point x="60" y="-414"/>
      <point x="4" y="-311"/>
      <point x="4" y="-252" type="qcurve" smooth="yes"/>
      <point x="4" y="-178"/>
      <point x="87" y="-30"/>
      <point x="229" y="94"/>
      <point x="318" y="132" type="qcurve"/>
      <point x="432" y="0" type="line"/>
      <point x="371" y="-31"/>
      <point x="271" y="-115"/>
      <point x="212" y="-199"/>
      <point x="212" y="-230" type="qcurve" smooth="yes"/>
      <point x="212" y="-251"/>
      <point x="242" y="-280"/>
      <point x="264" y="-280" type="qcurve" smooth="yes"/>
      <point x="279" y="-280"/>
      <point x="314" y="-265"/>
      <point x="332" y="-250" type="qcurve"/>
      <point x="426" y="-374" type="line"/>
      <point x="390" y="-423"/>
      <point x="283" y="-478"/>
    </contour>
    <contour>
      <point x="160" y="0" type="line"/>
      <point x="160" y="1080" type="line"/>
      <point x="432" y="1080" type="line"/>
      <point x="432" y="0" type="line"/>
    </contour>
    <contour>
      <point x="296" y="1191" type="qcurve" smooth="yes"/>
      <point x="228" y="1191"/>
      <point x="137" y="1283"/>
      <point x="137" y="1349" type="qcurve" smooth="yes"/>
      <point x="137" y="1416"/>
      <point x="228" y="1507"/>
      <point x="296" y="1507" type="qcurve" smooth="yes"/>
      <point x="365" y="1507"/>
      <point x="455" y="1416"/>
      <point x="455" y="1349" type="qcurve" smooth="yes"/>
      <point x="455" y="1283"/>
      <point x="365" y="1191"/>
    </contour>
  </outline>
</glyph>
<glyph name="Idotaccent" format="2">
  <advance width="592"/>
  <unicode hex="0130"/>
  <outline>
    <contour>
      <point x="297" y="1626" type="qcurve" smooth="yes"/>
      <point x="229" y="1626"/>
      <point x="138" y="1718"/>
      <point x="138" y="1784" type="qcurve" smooth="yes"/>
      <point x="138" y="1851"/>
      <point x="229" y="1942"/>
      <point x="297" y="1942" type="qcurve" smooth="yes"/>
      <point x="366" y="1942"/>
      <point x="456" y="1851"/>
      <point x="456" y="1784" type="qcurve" smooth="yes"/>
      <point x="456" y="1718"/>
      <point x="366" y="1626"/>
    </contour>
    <contour>
      <point x="160" y="0" type="line"/>
      <point x="160" y="1440" type="line"/>
      <point x="432" y="1440" type="line"/>
      <point x="432" y="0" type="line"/>
    </contour>
  </outline>
</glyph>
<glyph name="uni0136" format="2">
  <advance width="1330"/>
  <unicode hex="0136"/>
  <outline>
    <contour>
      <point x="586" y="-150" type="line"/>
      <point x="507" y="-540" type="line"/>
      <point x="677" y="-540" type="line"/>
      <point x="843" y="-150" type="line"/>
    </contour>
    <contour>
      <point x="960" y="1440" type="line"/>
      <point x="1292" y="1440" type="line"/>
      <point x="271" y="323" type="line"/>
      <point x="273" y="696" type="line"/>
    </contour>
    <contour>
      <point x="993" y="0" type="line"/>
      <point x="423" y="696" type="line"/>
      <point x="676" y="799" type="line"/>
      <point x="1330" y="0" type="line"/>
    </contour>
    <contour>
      <point x="140" y="0" type="line"/>
      <point x="140" y="1440" type="line"/>
      <point x="402" y="1440" type="line"/>
      <point x="402" y="0" type="line"/>
    </contour>
  </outline>
</glyph>
<glyph name="Lacute" format="2">
  <advance width="1082"/>
  <unicode hex="0139"/>
  <outline>
    <contour>
      <point x="310" y="1980" type="line"/>
      <point x="231" y="1590" type="line"/>
      <point x="401" y="1590" type="line"/>
      <point x="567" y="1980" type="line"/>
    </contour>
    <contour>
      <point x="160" y="0" type="line"/>
      <point x="160" y="1440" type="line"/>
      <point x="432" y="1440" type="line"/>
      <point x="432" y="254" type="line"/>
      <point x="1052" y="254" type="line"/>
      <point x="1052" y="0" type="line"/>
    </contour>
  </outline>
</glyph>
<glyph name="lacute" format="2">
  <advance width="687"/>
  <unicode hex="013A"/>
  <outline>
    <component base="l"/>
    <contour>
      <point x="310" y="1980" type="line"/>
      <point x="231" y="1590" type="line"/>
      <point x="401" y="1590" type="line"/>
      <point x="567" y="1980" type="line"/>
    </contour>
  </outline>
</glyph>
<glyph name="Lcommaaccent" format="2">
  <advance width="1082"/>
  <unicode hex="013B"/>
  <outline>
    <contour>
      <point x="478" y="-150" type="line"/>
      <point x="399" y="-540" type="line"/>
      <point x="569" y="-540" type="line"/>
      <point x="735" y="-150" type="line"/>
    </contour>
    <contour>
      <point x="160" y="0" type="line"/>
      <point x="160" y="1440" type="line"/>
      <point x="432" y="1440" type="line"/>
      <point x="432" y="254" type="line"/>
      <point x="1052" y="254" type="line"/>
      <point x="1052" y="0" type="line"/>
    </contour>
  </outline>
</glyph>
<glyph name="lcommaaccent" format="2">
  <advance width="692"/>
  <unicode hex="013C"/>
  <outline>
    <component base="l"/>
    <contour>
      <point x="168" y="-150" type="line"/>
      <point x="89" y="-540" type="line"/>
      <point x="259" y="-540" type="line"/>
      <point x="425" y="-150" type="line"/>
    </contour>
  </outline>
</glyph>
<glyph name="lslash" format="2">
  <advance width="812"/>
  <unicode hex="0142"/>
  <outline>
    <contour>
      <point x="46" y="382" type="line"/>
      <point x="46" y="675" type="line"/>
      <point x="766" y="1088" type="line"/>
      <point x="766" y="794" type="line"/>
    </contour>
    <contour>
      <point x="543" y="370" type="qcurve" smooth="yes"/>
      <point x="543" y="348"/>
      <point x="550" y="312"/>
      <point x="557" y="298" type="qcurve" smooth="yes"/>
      <point x="572" y="269"/>
      <point x="629" y="240"/>
      <point x="673" y="240" type="qcurve"/>
      <point x="673" y="240"/>
      <point x="673" y="240"/>
      <point x="673" y="240" type="qcurve"/>
      <point x="673" y="240"/>
      <point x="673" y="240"/>
      <point x="673" y="240" type="qcurve"/>
      <point x="741" y="240" type="line"/>
      <point x="741" y="0" type="line"/>
      <point x="619" y="0" type="line" smooth="yes"/>
      <point x="587" y="0"/>
      <point x="530" y="6"/>
      <point x="504" y="12" type="qcurve" smooth="yes"/>
      <point x="452" y="23"/>
      <point x="371" y="69"/>
      <point x="342" y="104" type="qcurve" smooth="yes"/>
      <point x="328" y="121"/>
      <point x="304" y="161"/>
      <point x="295" y="184" type="qcurve" smooth="yes"/>
      <point x="283" y="213"/>
      <point x="271" y="280"/>
      <point x="271" y="318" type="qcurve" smooth="yes"/>
      <point x="271" y="1439" type="line"/>
      <point x="543" y="1440" type="line"/>
      <point x="543" y="467" type="line" smooth="yes"/>
      <point x="543" y="443"/>
      <point x="543" y="394"/>
    </contour>
  </outline>
</glyph>
<glyph name="Nacute" format="2">
  <advance width="1458"/>
  <unicode hex="0143"/>
  <outline>
    <contour>
      <point x="752" y="1980" type="line"/>
      <point x="673" y="1590" type="line"/>
      <point x="843" y="1590" type="line"/>
      <point x="1009" y="1980" type="line"/>
    </contour>
    <contour>
      <point x="140" y="0" type="line"/>
      <point x="140" y="1440" type="line"/>
      <point x="416" y="1440" type="line"/>
      <point x="1042" y="480" type="line"/>
      <point x="1042" y="1440" type="line"/>
      <point x="1318" y="1440" type="line"/>
      <point x="1318" y="0" type="line"/>
      <point x="1042" y="0" type="line"/>
      <point x="416" y="960" type="line"/>
      <point x="416" y="0" type="line"/>
    </contour>
  </outline>
</glyph>
<glyph name="uni0145" format="2">
  <advance width="1458"/>
  <unicode hex="0145"/>
  <outline>
    <contour>
      <point x="622" y="-150" type="line"/>
      <point x="543" y="-540" type="line"/>
      <point x="713" y="-540" type="line"/>
      <point x="879" y="-150" type="line"/>
    </contour>
    <contour>
      <point x="140" y="0" type="line"/>
      <point x="140" y="1440" type="line"/>
      <point x="416" y="1440" type="line"/>
      <point x="1042" y="480" type="line"/>
      <point x="1042" y="1440" type="line"/>
      <point x="1318" y="1440" type="line"/>
      <point x="1318" y="0" type="line"/>
      <point x="1042" y="0" type="line"/>
      <point x="416" y="960" type="line"/>
      <point x="416" y="0" type="line"/>
    </contour>
  </outline>
</glyph>
<glyph name="omacron" format="2">
  <advance width="1254"/>
  <unicode hex="014D"/>
  <outline>
    <contour>
      <point x="356" y="1320" type="line"/>
      <point x="356" y="1528" type="line"/>
      <point x="900" y="1528" type="line"/>
      <point x="900" y="1320" type="line"/>
    </contour>
    <contour>
      <point x="626" y="-30" type="qcurve" smooth="yes"/>
      <point x="463" y="-30"/>
      <point x="217" y="116"/>
      <point x="80" y="373"/>
      <point x="80" y="540" type="qcurve" smooth="yes"/>
      <point x="80" y="709"/>
      <point x="220" y="966"/>
      <point x="466" y="1110"/>
      <point x="626" y="1110" type="qcurve" smooth="yes"/>
      <point x="789" y="1110"/>
      <point x="1036" y="964"/>
      <point x="1174" y="707"/>
      <point x="1174" y="540" type="qcurve" smooth="yes"/>
      <point x="1174" y="372"/>
      <point x="1035" y="115"/>
      <point x="788" y="-30"/>
    </contour>
    <contour>
      <point x="626" y="224" type="qcurve" smooth="yes"/>
      <point x="757" y="224"/>
      <point x="886" y="401"/>
      <point x="886" y="540" type="qcurve" smooth="yes"/>
      <point x="886" y="684"/>
      <point x="755" y="856"/>
      <point x="626" y="856" type="qcurve" smooth="yes"/>
      <point x="537" y="856"/>
      <point x="423" y="776"/>
      <point x="368" y="634"/>
      <point x="368" y="540" type="qcurve" smooth="yes"/>
      <point x="368" y="395"/>
      <point x="499" y="224"/>
    </contour>
  </outline>
</glyph>
<glyph name="ohungarumlaut" format="2">
  <advance width="1254"/>
  <unicode hex="0151"/>
  <outline>
    <contour>
      <point x="825" y="1620" type="line"/>
      <point x="746" y="1230" type="line"/>
      <point x="916" y="1230" type="line"/>
      <point x="1082" y="1620" type="line"/>
    </contour>
    <contour>
      <point x="401" y="1620" type="line"/>
      <point x="322" y="1230" type="line"/>
      <point x="492" y="1230" type="line"/>
      <point x="658" y="1620" type="line"/>
    </contour>
    <contour>
      <point x="626" y="-30" type="qcurve" smooth="yes"/>
      <point x="463" y="-30"/>
      <point x="217" y="116"/>
      <point x="80" y="373"/>
      <point x="80" y="540" type="qcurve" smooth="yes"/>
      <point x="80" y="709"/>
      <point x="220" y="966"/>
      <point x="466" y="1110"/>
      <point x="626" y="1110" type="qcurve" smooth="yes"/>
      <point x="789" y="1110"/>
      <point x="1036" y="964"/>
      <point x="1174" y="707"/>
      <point x="1174" y="540" type="qcurve" smooth="yes"/>
      <point x="1174" y="372"/>
      <point x="1035" y="115"/>
      <point x="788" y="-30"/>
    </contour>
    <contour>
      <point x="626" y="224" type="qcurve" smooth="yes"/>
      <point x="757" y="224"/>
      <point x="886" y="401"/>
      <point x="886" y="540" type="qcurve" smooth="yes"/>
      <point x="886" y="684"/>
      <point x="755" y="856"/>
      <point x="626" y="856" type="qcurve" smooth="yes"/>
      <point x="537" y="856"/>
      <point x="423" y="776"/>
      <point x="368" y="634"/>
      <point x="368" y="540" type="qcurve" smooth="yes"/>
      <point x="368" y="395"/>
      <point x="499" y="224"/>
    </contour>
  </outline>
</glyph>
<glyph name="Rcommaaccent" format="2">
  <advance width="1340"/>
  <unicode hex="0156"/>
  <outline>
    <contour>
      <point x="542" y="-150" type="line"/>
      <point x="463" y="-540" type="line"/>
      <point x="633" y="-540" type="line"/>
      <point x="799" y="-150" type="line"/>
    </contour>
    <contour>
      <point x="962" y="0" type="line"/>
      <point x="658" y="586" type="line"/>
      <point x="938" y="640" type="line"/>
      <point x="1270" y="0" type="line"/>
    </contour>
    <contour>
      <point x="140" y="0" type="line"/>
      <point x="140" y="1440" type="line"/>
      <point x="748" y="1440" type="line" smooth="yes"/>
      <point x="769" y="1440"/>
      <point x="840" y="1437"/>
      <point x="868" y="1432" type="qcurve" smooth="yes"/>
      <point x="997" y="1412"/>
      <point x="1162" y="1288"/>
      <point x="1240" y="1100"/>
      <point x="1240" y="984" type="qcurve" smooth="yes"/>
      <point x="1240" y="888"/>
      <point x="1161" y="697"/>
      <point x="996" y="556"/>
      <point x="868" y="536" type="qcurve" smooth="yes"/>
      <point x="840" y="532"/>
      <point x="768" y="528"/>
      <point x="748" y="528" type="qcurve" smooth="yes"/>
      <point x="412" y="528" type="line"/>
      <point x="412" y="0" type="line"/>
    </contour>
    <contour>
      <point x="412" y="782" type="line"/>
      <point x="736" y="782" type="line" smooth="yes"/>
      <point x="757" y="782"/>
      <point x="809" y="783"/>
      <point x="828" y="792" type="qcurve" smooth="yes"/>
      <point x="911" y="830"/>
      <point x="966" y="933"/>
      <point x="966" y="984" type="qcurve" smooth="yes"/>
      <point x="966" y="1035"/>
      <point x="911" y="1154"/>
      <point x="828" y="1176" type="qcurve" smooth="yes"/>
      <point x="807" y="1182"/>
      <point x="757" y="1186"/>
      <point x="736" y="1186" type="qcurve" smooth="yes"/>
      <point x="412" y="1186" type="line"/>
    </contour>
  </outline>
</glyph>
<glyph name="scedilla" format="2">
  <advance width="1094"/>
  <unicode hex="015F"/>
  <outline>
    <contour>
      <point x="532" y="-484" type="qcurve" smooth="yes"/>
      <point x="490" y="-484"/>
      <point x="420" y="-462"/>
      <point x="390" y="-446" type="qcurve"/>
      <point x="448" y="-290" type="line"/>
      <point x="487" y="-302"/>
      <point x="508" y="-302" type="qcurve" smooth="yes"/>
      <point x="535" y="-302"/>
      <point x="564" y="-272"/>
      <point x="564" y="-256" type="qcurve" smooth="yes"/>
      <point x="564" y="-220"/>
      <point x="487" y="-185"/>
      <point x="434" y="-170" type="qcurve"/>
      <point x="504" y="34" type="line"/>
      <point x="662" y="36" type="line"/>
      <point x="626" y="-72" type="line"/>
      <point x="685" y="-102"/>
      <point x="748" y="-197"/>
      <point x="748" y="-262" type="qcurve" smooth="yes"/>
      <point x="748" y="-361"/>
      <point x="619" y="-484"/>
    </contour>
    <contour>
      <point x="562" y="-30" type="qcurve" smooth="yes"/>
      <point x="358" y="-30"/>
      <point x="107" y="155"/>
      <point x="80" y="324" type="qcurve"/>
      <point x="358" y="366" type="line"/>
      <point x="375" y="290"/>
      <point x="492" y="204"/>
      <point x="582" y="204" type="qcurve" smooth="yes"/>
      <point x="656" y="204"/>
      <point x="736" y="261"/>
      <point x="736" y="312" type="qcurve" smooth="yes"/>
      <point x="736" y="344"/>
      <point x="704" y="383"/>
      <point x="593" y="421"/>
      <point x="476" y="452" type="qcurve" smooth="yes"/>
      <point x="344" y="486"/>
      <point x="186" y="570"/>
      <point x="116" y="687"/>
      <point x="116" y="770" type="qcurve" smooth="yes"/>
      <point x="116" y="874"/>
      <point x="222" y="1027"/>
      <point x="415" y="1110"/>
      <point x="546" y="1110" type="qcurve" smooth="yes"/>
      <point x="673" y="1110"/>
      <point x="869" y="1032"/>
      <point x="990" y="888"/>
      <point x="1004" y="790" type="qcurve"/>
      <point x="726" y="740" type="line"/>
      <point x="719" y="800"/>
      <point x="629" y="870"/>
      <point x="552" y="876" type="qcurve" smooth="yes"/>
      <point x="477" y="881"/>
      <point x="386" y="831"/>
      <point x="386" y="784" type="qcurve" smooth="yes"/>
      <point x="386" y="756"/>
      <point x="425" y="718"/>
      <point x="548" y="678"/>
      <point x="674" y="646" type="qcurve" smooth="yes"/>
      <point x="797" y="614"/>
      <point x="946" y="529"/>
      <point x="1014" y="410"/>
      <point x="1014" y="326" type="qcurve" smooth="yes"/>
      <point x="1014" y="160"/>
      <point x="774" y="-30"/>
    </contour>
  </outline>
</glyph>
<glyph name="uni0163" format="2">
  <advance width="888"/>
  <unicode hex="0163"/>
  <outline>
    <contour>
      <point x="472" y="-484" type="qcurve" smooth="yes"/>
      <point x="430" y="-484"/>
      <point x="360" y="-462"/>
      <point x="330" y="-446" type="qcurve"/>
      <point x="388" y="-290" type="line"/>
      <point x="427" y="-302"/>
      <point x="448" y="-302" type="qcurve" smooth="yes"/>
      <point x="475" y="-302"/>
      <point x="504" y="-272"/>
      <point x="504" y="-256" type="qcurve" smooth="yes"/>
      <point x="504" y="-220"/>
      <point x="427" y="-185"/>
      <point x="374" y="-170" type="qcurve"/>
      <point x="444" y="34" type="line"/>
      <point x="602" y="36" type="line"/>
      <point x="566" y="-72" type="line"/>
      <point x="625" y="-102"/>
      <point x="688" y="-197"/>
      <point x="688" y="-262" type="qcurve" smooth="yes"/>
      <point x="688" y="-361"/>
      <point x="559" y="-484"/>
    </contour>
    <contour>
      <point x="788" y="0" type="line"/>
      <point x="676" y="-21"/>
      <point x="461" y="-16"/>
      <point x="292" y="55"/>
      <point x="248" y="134" type="qcurve" smooth="yes"/>
      <point x="208" y="208"/>
      <point x="204" y="361"/>
      <point x="204" y="458" type="qcurve" smooth="yes"/>
      <point x="204" y="1380" type="line"/>
      <point x="476" y="1380" type="line"/>
      <point x="476" y="474" type="line" smooth="yes"/>
      <point x="476" y="411"/>
      <point x="479" y="310"/>
      <point x="498" y="280" type="qcurve" smooth="yes"/>
      <point x="534" y="223"/>
      <point x="692" y="213"/>
      <point x="788" y="226" type="qcurve"/>
    </contour>
    <contour>
      <point x="20" y="870" type="line"/>
      <point x="20" y="1080" type="line"/>
      <point x="788" y="1080" type="line"/>
      <point x="788" y="870" type="line"/>
    </contour>
  </outline>
</glyph>
<glyph name="Uring" format="2">
  <advance width="1452"/>
  <unicode hex="016E"/>
  <outline>
    <contour>
      <point x="734" y="1550" type="qcurve" smooth="yes"/>
      <point x="660" y="1550"/>
      <point x="537" y="1623"/>
      <point x="464" y="1746"/>
      <point x="464" y="1820" type="qcurve" smooth="yes"/>
      <point x="464" y="1895"/>
      <point x="537" y="2017"/>
      <point x="660" y="2090"/>
      <point x="734" y="2090" type="qcurve" smooth="yes"/>
      <point x="809" y="2090"/>
      <point x="931" y="2017"/>
      <point x="1004" y="1895"/>
      <point x="1004" y="1820" type="qcurve" smooth="yes"/>
      <point x="1004" y="1746"/>
      <point x="931" y="1623"/>
      <point x="809" y="1550"/>
    </contour>
    <contour>
      <point x="734" y="1710" type="qcurve" smooth="yes"/>
      <point x="780" y="1710"/>
      <point x="844" y="1775"/>
      <point x="844" y="1820" type="qcurve" smooth="yes"/>
      <point x="844" y="1866"/>
      <point x="780" y="1930"/>
      <point x="734" y="1930" type="qcurve" smooth="yes"/>
      <point x="689" y="1930"/>
      <point x="624" y="1866"/>
      <point x="624" y="1820" type="qcurve" smooth="yes"/>
      <point x="624" y="1775"/>
      <point x="689" y="1710"/>
    </contour>
    <contour>
      <point x="726" y="-30" type="qcurve" smooth="yes"/>
      <point x="552" y="-30"/>
      <point x="288" y="111"/>
      <point x="140" y="367"/>
      <point x="140" y="540" type="qcurve" smooth="yes"/>
      <point x="140" y="1438" type="line"/>
      <point x="416" y="1440" type="line"/>
      <point x="416" y="542" type="line" smooth="yes"/>
      <point x="416" y="471"/>
      <point x="464" y="355"/>
      <point x="549" y="271"/>
      <point x="662" y="226"/>
      <point x="726" y="226" type="qcurve" smooth="yes"/>
      <point x="792" y="226"/>
      <point x="905" y="272"/>
      <point x="989" y="356"/>
      <point x="1036" y="472"/>
      <point x="1036" y="542" type="qcurve" smooth="yes"/>
      <point x="1036" y="1440" type="line"/>
      <point x="1312" y="1440" type="line"/>
      <point x="1312" y="540" type="line" smooth="yes"/>
      <point x="1312" y="367"/>
      <point x="1164" y="111"/>
      <point x="900" y="-30"/>
    </contour>
  </outline>
</glyph>
<glyph name="uogonek" format="2">
  <advance width="1272"/>
  <unicode hex="0173"/>
  <outline>
    <contour>
      <point x="926" y="-478" type="qcurve" smooth="yes"/>
      <point x="860" y="-478"/>
      <point x="760" y="-414"/>
      <point x="704" y="-311"/>
      <point x="704" y="-252" type="qcurve" smooth="yes"/>
      <point x="704" y="-178"/>
      <point x="787" y="-30"/>
      <point x="929" y="94"/>
      <point x="1018" y="132" type="qcurve"/>
      <point x="1132" y="0" type="line"/>
      <point x="1071" y="-31"/>
      <point x="971" y="-115"/>
      <point x="912" y="-199"/>
      <point x="912" y="-230" type="qcurve" smooth="yes"/>
      <point x="912" y="-251"/>
      <point x="942" y="-280"/>
      <point x="964" y="-280" type="qcurve" smooth="yes"/>
      <point x="979" y="-280"/>
      <point x="1014" y="-265"/>
      <point x="1032" y="-250" type="qcurve"/>
      <point x="1126" y="-374" type="line"/>
      <point x="1090" y="-423"/>
      <point x="983" y="-478"/>
    </contour>
    <contour>
      <point x="542" y="-32" type="qcurve" smooth="yes"/>
      <point x="415" y="-32"/>
      <point x="255" y="54"/>
      <point x="166" y="186"/>
      <point x="128" y="329"/>
      <point x="120" y="447"/>
      <point x="120" y="474" type="qcurve" smooth="yes"/>
      <point x="120" y="1080" type="line"/>
      <point x="396" y="1080" type="line"/>
      <point x="396" y="570" type="line" smooth="yes"/>
      <point x="396" y="533"/>
      <point x="404" y="418"/>
      <point x="446" y="302"/>
      <point x="541" y="224"/>
      <point x="628" y="224" type="qcurve" smooth="yes"/>
      <point x="663" y="224"/>
      <point x="743" y="246"/>
      <point x="813" y="309"/>
      <point x="858" y="432"/>
      <point x="858" y="532" type="qcurve"/>
      <point x="1014" y="458" type="line"/>
      <point x="1014" y="330"/>
      <point x="910" y="106"/>
      <point x="701" y="-32"/>
    </contour>
    <contour>
      <point x="892" y="0" type="line"/>
      <point x="892" y="358" type="line"/>
      <point x="858" y="358" type="line"/>
      <point x="858" y="1080" type="line"/>
      <point x="1132" y="1080" type="line"/>
      <point x="1132" y="0" type="line"/>
    </contour>
  </outline>
</glyph>
<glyph name="Wcircumflex" format="2">
  <advance width="1978"/>
  <unicode hex="0174"/>
  <outline>
    <contour>
      <point x="586" y="1590" type="line"/>
      <point x="874" y="1920" type="line"/>
      <point x="1098" y="1920" type="line"/>
      <point x="1386" y="1590" type="line"/>
      <point x="1136" y="1590" type="line"/>
      <point x="986" y="1770" type="line"/>
      <point x="836" y="1590" type="line"/>
    </contour>
    <contour>
      <point x="442" y="0" type="line"/>
      <point x="20" y="1440" type="line"/>
      <point x="306" y="1440" type="line"/>
      <point x="576" y="450" type="line"/>
      <point x="846" y="1438" type="line"/>
      <point x="1132" y="1440" type="line"/>
      <point x="1402" y="450" type="line"/>
      <point x="1672" y="1440" type="line"/>
      <point x="1958" y="1440" type="line"/>
      <point x="1536" y="0" type="line"/>
      <point x="1268" y="0" type="line"/>
      <point x="989" y="972" type="line"/>
      <point x="710" y="0" type="line"/>
    </contour>
  </outline>
</glyph>
<glyph name="Ycircumflex" format="2">
  <advance width="1260"/>
  <unicode hex="0176"/>
  <outline>
    <contour>
      <point x="226" y="1590" type="line"/>
      <point x="514" y="1920" type="line"/>
      <point x="738" y="1920" type="line"/>
      <point x="1026" y="1590" type="line"/>
      <point x="776" y="1590" type="line"/>
      <point x="626" y="1770" type="line"/>
      <point x="476" y="1590" type="line"/>
    </contour>
    <contour>
      <point x="492" y="0" type="line"/>
      <point x="492" y="586" type="line"/>
      <point x="0" y="1440" type="line"/>
      <point x="318" y="1440" type="line"/>
      <point x="630" y="898" type="line"/>
      <point x="942" y="1440" type="line"/>
      <point x="1260" y="1440" type="line"/>
      <point x="768" y="586" type="line"/>
      <point x="768" y="0" type="line"/>
    </contour>
  </outline>
</glyph>
<glyph name="zdotaccent" format="2">
  <advance width="1070"/>
  <unicode hex="017C"/>
  <outline>
    <contour>
      <point x="561" y="1266" type="qcurve" smooth="yes"/>
      <point x="493" y="1266"/>
      <point x="402" y="1358"/>
      <point x="402" y="1424" type="qcurve" smooth="yes"/>
      <point x="402" y="1491"/>
      <point x="493" y="1582"/>
      <point x="561" y="1582" type="qcurve" smooth="yes"/>
      <point x="630" y="1582"/>
      <point x="720" y="1491"/>
      <point x="720" y="1424" type="qcurve" smooth="yes"/>
      <point x="720" y="1358"/>
      <point x="630" y="1266"/>
    </contour>
    <contour>
      <point x="40" y="0" type="line"/>
      <point x="40" y="34" type="line"/>
      <point x="570" y="844" type="line"/>
      <point x="100" y="844" type="line"/>
      <point x="100" y="1080" type="line"/>
      <point x="990" y="1080" type="line"/>
      <point x="990" y="1046" type="line"/>
      <point x="462" y="236" type="line"/>
      <point x="970" y="236" type="line"/>
      <point x="970" y="0" type="line"/>
    </contour>
  </outline>
</glyph>
<glyph name="zcaron" format="2">
  <advance width="1070"/>
  <unicode hex="017E"/>
  <outline>
    <contour>
      <point x="150" y="1560" type="line"/>
      <point x="400" y="1560" type="line"/>
      <point x="550" y="1380" type="line"/>
      <point x="700" y="1560" type="line"/>
      <point x="950" y="1560" type="line"/>
      <point x="662" y="1230" type="line"/>
      <point x="438" y="1230" type="line"/>
    </contour>
    <contour>
      <point x="40" y="0" type="line"/>
      <point x="40" y="34" type="line"/>
      <point x="570" y="844" type="line"/>
      <point x="100" y="844" type="line"/>
      <point x="100" y="1080" type="line"/>
      <point x="990" y="1080" type="line"/>
      <point x="990" y="1046" type="line"/>
      <point x="462" y="236" type="line"/>
      <point x="970" y="236" type="line"/>
      <point x="970" y="0" type="line"/>
    </contour>
  </outline>
</glyph>
<glyph name="florin" format="2">
  <advance width="1412"/>
  <unicode hex="0192"/>
  <outline>
    <contour>
      <point x="354" y="-30" type="qcurve" smooth="yes"/>
      <point x="308" y="-30"/>
      <point x="213" y="-14"/>
      <point x="121" y="14"/>
      <point x="80" y="32" type="qcurve"/>
      <point x="194" y="260" type="line"/>
      <point x="212" y="250"/>
      <point x="260" y="235"/>
      <point x="309" y="226"/>
      <point x="330" y="226" type="qcurve" smooth="yes"/>
      <point x="376" y="226"/>
      <point x="437" y="267"/>
      <point x="476" y="334"/>
      <point x="497" y="411"/>
      <point x="502" y="446" type="qcurve" smooth="yes"/>
      <point x="592" y="1008" type="line" smooth="yes"/>
      <point x="598" y="1046"/>
      <point x="624" y="1161"/>
      <point x="680" y="1288"/>
      <point x="779" y="1400"/>
      <point x="935" y="1470"/>
      <point x="1048" y="1470" type="qcurve" smooth="yes"/>
      <point x="1099" y="1470"/>
      <point x="1197" y="1455"/>
      <point x="1289" y="1426"/>
      <point x="1332" y="1406" type="qcurve"/>
      <point x="1208" y="1182" type="line"/>
      <point x="1211" y="1182"/>
      <point x="1175" y="1198"/>
      <point x="1114" y="1214"/>
      <point x="1078" y="1214" type="qcurve" smooth="yes"/>
      <point x="1044" y="1214"/>
      <point x="981" y="1196"/>
      <point x="929" y="1160"/>
      <point x="894" y="1107"/>
      <point x="888" y="1072" type="qcurve" smooth="yes"/>
      <point x="778" y="408" type="line" smooth="yes"/>
      <point x="762" y="309"/>
      <point x="693" y="148"/>
      <point x="588" y="32"/>
      <point x="445" y="-30"/>
    </contour>
    <contour>
      <point x="262" y="616" type="line"/>
      <point x="262" y="826" type="line"/>
      <point x="1188" y="826" type="line"/>
      <point x="1188" y="616" type="line"/>
    </contour>
  </outline>
</glyph>
<glyph name="Tcommaaccent" format="2">
  <advance width="1220"/>
  <unicode hex="021A"/>
  <outline>
    <contour>
      <point x="482" y="-150" type="line"/>
      <point x="403" y="-540" type="line"/>
      <point x="573" y="-540" type="line"/>
      <point x="739" y="-150" type="line"/>
    </contour>
    <contour>
      <point x="474" y="0" type="line"/>
      <point x="474" y="1186" type="line"/>
      <point x="20" y="1186" type="line"/>
      <point x="20" y="1440" type="line"/>
      <point x="1200" y="1440" type="line"/>
      <point x="1200" y="1186" type="line"/>
      <point x="746" y="1186" type="line"/>
      <point x="746" y="0" type="line"/>
    </contour>
  </outline>
</glyph>
<glyph name="dotaccent" format="2">
  <advance width="752"/>
  <unicode hex="02D9"/>
  <outline>
    <contour>
      <point x="377" y="1942" type="qcurve" smooth="yes"/>
      <point x="309" y="1942"/>
      <point x="218" y="1851"/>
      <point x="218" y="1784" type="qcurve" smooth="yes"/>
      <point x="218" y="1718"/>
      <point x="309" y="1626"/>
      <point x="377" y="1626" type="qcurve" smooth="yes"/>
      <point x="446" y="1626"/>
      <point x="536" y="1718"/>
      <point x="536" y="1784" type="qcurve" smooth="yes"/>
      <point x="536" y="1851"/>
      <point x="446" y="1942"/>
    </contour>
  </outline>
</glyph>
<glyph name="ring" format="2">
  <advance width="1140"/>
  <unicode hex="02DA"/>
  <outline>
    <contour>
      <point x="570" y="1550" type="qcurve" smooth="yes"/>
      <point x="496" y="1550"/>
      <point x="373" y="1623"/>
      <point x="300" y="1746"/>
      <point x="300" y="1820" type="qcurve" smooth="yes"/>
      <point x="300" y="1895"/>
      <point x="373" y="2017"/>
      <point x="496" y="2090"/>
      <point x="570" y="2090" type="qcurve" smooth="yes"/>
      <point x="645" y="2090"/>
      <point x="767" y="2017"/>
      <point x="840" y="1895"/>
      <point x="840" y="1820" type="qcurve" smooth="yes"/>
      <point x="840" y="1746"/>
      <point x="767" y="1623"/>
      <point x="645" y="1550"/>
    </contour>
    <contour>
      <point x="570" y="1710" type="qcurve" smooth="yes"/>
      <point x="616" y="1710"/>
      <point x="680" y="1775"/>
      <point x="680" y="1820" type="qcurve" smooth="yes"/>
      <point x="680" y="1866"/>
      <point x="616" y="1930"/>
      <point x="570" y="1930" type="qcurve" smooth="yes"/>
      <point x="525" y="1930"/>
      <point x="460" y="1866"/>
      <point x="460" y="1820" type="qcurve" smooth="yes"/>
      <point x="460" y="1775"/>
      <point x="525" y="1710"/>
    </contour>
  </outline>
</glyph>
<glyph name="hungarumlaut" format="2">
  <advance width="1196"/>
  <unicode hex="02DD"/>
  <outline>
    <contour>
      <point x="735" y="1980" type="line"/>
      <point x="656" y="1590" type="line"/>
      <point x="826" y="1590" type="line"/>
      <point x="992" y="1980" type="line"/>
    </contour>
    <contour>
      <point x="311" y="1980" type="line"/>
      <point x="232" y="1590" type="line"/>
      <point x="402" y="1590" type="line"/>
      <point x="568" y="1980" type="line"/>
    </contour>
  </outline>
</glyph>
<glyph name="dieresistonos" format="2">
  <advance width="1200"/>
  <unicode hex="0385"/>
  <outline>
    <contour>
      <point x="546" y="1620" type="line"/>
      <point x="467" y="1230" type="line"/>
      <point x="637" y="1230" type="line"/>
      <point x="803" y="1620" type="line"/>
    </contour>
    <contour>
      <point x="937" y="1216" type="qcurve" smooth="yes"/>
      <point x="879" y="1216"/>
      <point x="802" y="1295"/>
      <point x="802" y="1351" type="qcurve" smooth="yes"/>
      <point x="802" y="1407"/>
      <point x="879" y="1485"/>
      <point x="937" y="1485" type="qcurve" smooth="yes"/>
      <point x="996" y="1485"/>
      <point x="1072" y="1407"/>
      <point x="1072" y="1351" type="qcurve" smooth="yes"/>
      <point x="1072" y="1295"/>
      <point x="996" y="1216"/>
    </contour>
    <contour>
      <point x="263" y="1216" type="qcurve" smooth="yes"/>
      <point x="205" y="1216"/>
      <point x="128" y="1295"/>
      <point x="128" y="1351" type="qcurve" smooth="yes"/>
      <point x="128" y="1407"/>
      <point x="205" y="1485"/>
      <point x="263" y="1485" type="qcurve" smooth="yes"/>
      <point x="322" y="1485"/>
      <point x="398" y="1407"/>
      <point x="398" y="1351" type="qcurve" smooth="yes"/>
      <point x="398" y="1295"/>
      <point x="322" y="1216"/>
    </contour>
  </outline>
</glyph>
<glyph name="Delta" format="2">
  <advance width="1366"/>
  <unicode hex="0394"/>
  <outline>
    <contour>
      <point x="230" y="0" type="line"/>
      <point x="230" y="254" type="line"/>
      <point x="1140" y="254" type="line"/>
      <point x="1140" y="0" type="line"/>
    </contour>
    <contour>
      <point x="480" y="1440" type="line"/>
      <point x="886" y="1440" type="line"/>
      <point x="1326" y="0" type="line"/>
      <point x="1046" y="0" type="line"/>
      <point x="680" y="1184" type="line"/>
      <point x="320" y="0" type="line"/>
      <point x="40" y="0" type="line"/>
    </contour>
  </outline>
</glyph>
<glyph name="Psi" format="2">
  <advance width="1532"/>
  <unicode hex="03A8"/>
  <outline>
    <contour>
      <point x="630" y="0" type="line"/>
      <point x="630" y="302" type="line"/>
      <point x="517" y="307"/>
      <point x="320" y="375"/>
      <point x="180" y="522"/>
      <point x="154" y="646" type="qcurve" smooth="yes"/>
      <point x="147" y="681"/>
      <point x="140" y="762"/>
      <point x="140" y="790" type="qcurve" smooth="yes"/>
      <point x="140" y="1440" type="line"/>
      <point x="394" y="1440" type="line"/>
      <point x="394" y="816" type="line" smooth="yes"/>
      <point x="394" y="801"/>
      <point x="397" y="745"/>
      <point x="406" y="710" type="qcurve" smooth="yes"/>
      <point x="432" y="613"/>
      <point x="552" y="556"/>
      <point x="630" y="554" type="qcurve"/>
      <point x="630" y="1440" type="line"/>
      <point x="902" y="1440" type="line"/>
      <point x="902" y="554" type="line"/>
      <point x="985" y="557"/>
      <point x="1111" y="629"/>
      <point x="1130" y="726" type="qcurve" smooth="yes"/>
      <point x="1136" y="756"/>
      <point x="1138" y="806"/>
      <point x="1138" y="816" type="qcurve" smooth="yes"/>
      <point x="1138" y="1440" type="line"/>
      <point x="1392" y="1440" type="line"/>
      <point x="1392" y="790" type="line" smooth="yes"/>
      <point x="1392" y="754"/>
      <point x="1386" y="685"/>
      <point x="1378" y="650" type="qcurve" smooth="yes"/>
      <point x="1350" y="525"/>
      <point x="1210" y="377"/>
      <point x="1014" y="308"/>
      <point x="902" y="302" type="qcurve"/>
      <point x="902" y="0" type="line"/>
    </contour>
  </outline>
</glyph>
<glyph name="beta" format="2">
  <advance width="1232"/>
  <unicode hex="03B2"/>
  <outline>
    <contour>
      <point x="138" y="-480" type="line"/>
      <point x="138" y="1080" type="line" smooth="yes"/>
      <point x="138" y="1103"/>
      <point x="145" y="1155"/>
      <point x="154" y="1188" type="qcurve" smooth="yes"/>
      <point x="183" y="1287"/>
      <point x="319" y="1412"/>
      <point x="496" y="1470"/>
      <point x="588" y="1470" type="qcurve" smooth="yes"/>
      <point x="723" y="1470"/>
      <point x="935" y="1361"/>
      <point x="1058" y="1172"/>
      <point x="1058" y="1052" type="qcurve" smooth="yes"/>
      <point x="1058" y="980"/>
      <point x="1008" y="849"/>
      <point x="954" y="798" type="qcurve"/>
      <point x="1007" y="776"/>
      <point x="1088" y="703"/>
      <point x="1143" y="606"/>
      <point x="1172" y="489"/>
      <point x="1172" y="424" type="qcurve" smooth="yes"/>
      <point x="1172" y="279"/>
      <point x="1038" y="76"/>
      <point x="798" y="-30"/>
      <point x="638" y="-30" type="qcurve" smooth="yes"/>
      <point x="577" y="-30"/>
      <point x="463" y="-14"/>
      <point x="412" y="4" type="qcurve"/>
      <point x="412" y="-480" type="line"/>
    </contour>
    <contour>
      <point x="650" y="222" type="qcurve" smooth="yes"/>
      <point x="724" y="222"/>
      <point x="837" y="274"/>
      <point x="900" y="370"/>
      <point x="900" y="436" type="qcurve" smooth="yes"/>
      <point x="900" y="546"/>
      <point x="732" y="644"/>
      <point x="598" y="644" type="qcurve"/>
      <point x="598" y="880" type="line"/>
      <point x="659" y="884"/>
      <point x="742" y="927"/>
      <point x="784" y="999"/>
      <point x="784" y="1046" type="qcurve" smooth="yes"/>
      <point x="784" y="1130"/>
      <point x="668" y="1216"/>
      <point x="594" y="1216" type="qcurve" smooth="yes"/>
      <point x="554" y="1216"/>
      <point x="464" y="1182"/>
      <point x="438" y="1132" type="qcurve"/>
      <point x="419" y="1093"/>
      <point x="412" y="1006"/>
      <point x="412" y="986" type="qcurve" smooth="yes"/>
      <point x="412" y="450" type="line" smooth="yes"/>
      <point x="412" y="435"/>
      <point x="416" y="363"/>
      <point x="426" y="334" type="qcurve"/>
      <point x="449" y="273"/>
      <point x="584" y="222"/>
    </contour>
  </outline>
</glyph>
<glyph name="theta" format="2">
  <advance width="1392"/>
  <unicode hex="03B8"/>
  <outline>
    <contour>
      <point x="310" y="616" type="line"/>
      <point x="310" y="824" type="line"/>
      <point x="1098" y="824" type="line"/>
      <point x="1098" y="616" type="line"/>
    </contour>
    <contour>
      <point x="696" y="-30" type="qcurve" smooth="yes"/>
      <point x="553" y="-30"/>
      <point x="325" y="72"/>
      <point x="165" y="267"/>
      <point x="80" y="545"/>
      <point x="80" y="720" type="qcurve" smooth="yes"/>
      <point x="80" y="896"/>
      <point x="165" y="1173"/>
      <point x="325" y="1368"/>
      <point x="553" y="1470"/>
      <point x="696" y="1470" type="qcurve" smooth="yes"/>
      <point x="839" y="1470"/>
      <point x="1067" y="1368"/>
      <point x="1227" y="1173"/>
      <point x="1312" y="896"/>
      <point x="1312" y="720" type="qcurve" smooth="yes"/>
      <point x="1312" y="545"/>
      <point x="1227" y="267"/>
      <point x="1067" y="72"/>
      <point x="839" y="-30"/>
    </contour>
    <contour>
      <point x="696" y="226" type="qcurve" smooth="yes"/>
      <point x="780" y="226"/>
      <point x="904" y="297"/>
      <point x="984" y="428"/>
      <point x="1024" y="610"/>
      <point x="1024" y="720" type="qcurve" smooth="yes"/>
      <point x="1024" y="830"/>
      <point x="984" y="1012"/>
      <point x="904" y="1143"/>
      <point x="780" y="1214"/>
      <point x="696" y="1214" type="qcurve" smooth="yes"/>
      <point x="612" y="1214"/>
      <point x="488" y="1143"/>
      <point x="408" y="1012"/>
      <point x="368" y="830"/>
      <point x="368" y="720" type="qcurve" smooth="yes"/>
      <point x="368" y="610"/>
      <point x="408" y="428"/>
      <point x="488" y="297"/>
      <point x="612" y="226"/>
    </contour>
  </outline>
</glyph>
<glyph name="lambda" format="2">
  <advance width="1176"/>
  <unicode hex="03BB"/>
  <outline>
    <contour>
      <point x="80" y="0" type="line"/>
      <point x="472" y="1080" type="line"/>
      <point x="449" y="1136"/>
      <point x="391" y="1203"/>
      <point x="304" y="1232"/>
      <point x="238" y="1232" type="qcurve" smooth="yes"/>
      <point x="186" y="1232" type="line"/>
      <point x="186" y="1470" type="line"/>
      <point x="264" y="1470" type="line" smooth="yes"/>
      <point x="281" y="1470"/>
      <point x="389" y="1466"/>
      <point x="440" y="1454" type="qcurve" smooth="yes"/>
      <point x="529" y="1433"/>
      <point x="640" y="1322"/>
      <point x="713" y="1167"/>
      <point x="744" y="1080" type="qcurve" smooth="yes"/>
      <point x="1136" y="0" type="line"/>
      <point x="864" y="0" type="line"/>
      <point x="608" y="748" type="line"/>
      <point x="352" y="0" type="line"/>
    </contour>
  </outline>
</glyph>
<glyph name="uni03BC" format="2">
  <advance width="1290"/>
  <unicode hex="03BC"/>
  <outline>
    <contour>
      <point x="138" y="-480" type="line"/>
      <point x="138" y="1080" type="line"/>
      <point x="414" y="1080" type="line"/>
      <point x="414" y="570" type="line" smooth="yes"/>
      <point x="414" y="533"/>
      <point x="422" y="418"/>
      <point x="464" y="302"/>
      <point x="559" y="224"/>
      <point x="646" y="224" type="qcurve" smooth="yes"/>
      <point x="681" y="224"/>
      <point x="761" y="246"/>
      <point x="831" y="309"/>
      <point x="876" y="432"/>
      <point x="876" y="532" type="qcurve" smooth="yes"/>
      <point x="876" y="1080" type="line"/>
      <point x="1150" y="1080" type="line"/>
      <point x="1150" y="0" type="line"/>
      <point x="910" y="0" type="line"/>
      <point x="910" y="112" type="line"/>
      <point x="852" y="46"/>
      <point x="677" y="-32"/>
      <point x="560" y="-32" type="qcurve" smooth="yes"/>
      <point x="506" y="-32"/>
      <point x="416" y="-15"/>
      <point x="378" y="0" type="qcurve"/>
      <point x="378" y="-480" type="line"/>
    </contour>
  </outline>
</glyph>
<glyph name="xi" format="2">
  <advance width="1160"/>
  <unicode hex="03BE"/>
  <outline>
    <contour>
      <point x="908" y="-240" type="line"/>
      <point x="917" y="-126"/>
      <point x="849" y="-25"/>
      <point x="713" y="0"/>
      <point x="620" y="0" type="qcurve" smooth="yes"/>
      <point x="435" y="0"/>
      <point x="196" y="107"/>
      <point x="80" y="301"/>
      <point x="80" y="432" type="qcurve" smooth="yes"/>
      <point x="80" y="542"/>
      <point x="166" y="722"/>
      <point x="268" y="764" type="qcurve"/>
      <point x="210" y="823"/>
      <point x="140" y="976"/>
      <point x="140" y="1072" type="qcurve" smooth="yes"/>
      <point x="140" y="1180"/>
      <point x="227" y="1332"/>
      <point x="373" y="1426"/>
      <point x="553" y="1470"/>
      <point x="646" y="1470" type="qcurve" smooth="yes"/>
      <point x="805" y="1470"/>
      <point x="1053" y="1363"/>
      <point x="1134" y="1280" type="qcurve"/>
      <point x="948" y="1080" type="line"/>
      <point x="906" y="1137"/>
      <point x="754" y="1216"/>
      <point x="646" y="1216" type="qcurve" smooth="yes"/>
      <point x="552" y="1216"/>
      <point x="428" y="1144"/>
      <point x="428" y="1064" type="qcurve" smooth="yes"/>
      <point x="428" y="979"/>
      <point x="568" y="899"/>
      <point x="674" y="894" type="qcurve" smooth="yes"/>
      <point x="691" y="893"/>
      <point x="744" y="892"/>
      <point x="795" y="892"/>
      <point x="808" y="892" type="qcurve"/>
      <point x="808" y="636" type="line"/>
      <point x="799" y="636"/>
      <point x="778" y="636"/>
      <point x="717" y="634"/>
      <point x="648" y="632" type="qcurve" smooth="yes"/>
      <point x="560" y="629"/>
      <point x="435" y="595"/>
      <point x="368" y="518"/>
      <point x="368" y="452" type="qcurve" smooth="yes"/>
      <point x="368" y="373"/>
      <point x="460" y="289"/>
      <point x="615" y="256"/>
      <point x="710" y="254" type="qcurve" smooth="yes"/>
      <point x="759" y="253"/>
      <point x="842" y="249"/>
      <point x="915" y="237"/>
      <point x="950" y="224" type="qcurve" smooth="yes"/>
      <point x="1026" y="196"/>
      <point x="1135" y="73"/>
      <point x="1173" y="-115"/>
      <point x="1144" y="-240" type="qcurve"/>
    </contour>
  </outline>
</glyph>
<glyph name="pi" format="2">
  <advance width="1364"/>
  <unicode hex="03C0"/>
  <outline>
    <contour>
      <point x="240" y="0" type="line"/>
      <point x="240" y="840" type="line"/>
      <point x="80" y="840" type="line"/>
      <point x="80" y="1080" type="line"/>
      <point x="1284" y="1080" type="line"/>
      <point x="1284" y="840" type="line"/>
      <point x="1124" y="840" type="line"/>
      <point x="1124" y="0" type="line"/>
      <point x="852" y="0" type="line"/>
      <point x="852" y="840" type="line"/>
      <point x="512" y="840" type="line"/>
      <point x="512" y="0" type="line"/>
    </contour>
  </outline>
</glyph>
<glyph name="rho" format="2">
  <advance width="1296"/>
  <unicode hex="03C1"/>
  <outline>
    <contour>
      <point x="138" y="-480" type="line"/>
      <point x="138" y="460" type="line" smooth="yes"/>
      <point x="138" y="514"/>
      <point x="142" y="625"/>
      <point x="152" y="680" type="qcurve" smooth="yes"/>
      <point x="176" y="808"/>
      <point x="316" y="1002"/>
      <point x="537" y="1110"/>
      <point x="682" y="1110" type="qcurve" smooth="yes"/>
      <point x="852" y="1110"/>
      <point x="1091" y="963"/>
      <point x="1216" y="707"/>
      <point x="1216" y="544" type="qcurve" smooth="yes"/>
      <point x="1216" y="379"/>
      <point x="1091" y="119"/>
      <point x="865" y="-30"/>
      <point x="712" y="-30" type="qcurve" smooth="yes"/>
      <point x="622" y="-30"/>
      <point x="466" y="23"/>
      <point x="412" y="68" type="qcurve"/>
      <point x="412" y="-480" type="line"/>
    </contour>
    <contour>
      <point x="676" y="212" type="qcurve" smooth="yes"/>
      <point x="766" y="212"/>
      <point x="885" y="295"/>
      <point x="944" y="444"/>
      <point x="944" y="542" type="qcurve" smooth="yes"/>
      <point x="944" y="642"/>
      <point x="884" y="788"/>
      <point x="765" y="868"/>
      <point x="676" y="868" type="qcurve" smooth="yes"/>
      <point x="584" y="868"/>
      <point x="466" y="786"/>
      <point x="410" y="638"/>
      <point x="410" y="540" type="qcurve" smooth="yes"/>
      <point x="410" y="439"/>
      <point x="470" y="292"/>
      <point x="588" y="212"/>
    </contour>
  </outline>
</glyph>
<glyph name="sigmafinal" format="2">
  <advance width="1166"/>
  <unicode hex="03C2"/>
  <outline>
    <contour>
      <point x="854" y="-240" type="line"/>
      <point x="854" y="-123"/>
      <point x="773" y="-25"/>
      <point x="634" y="-3"/>
      <point x="546" y="0" type="qcurve" smooth="yes"/>
      <point x="472" y="2"/>
      <point x="335" y="42"/>
      <point x="217" y="120"/>
      <point x="129" y="241"/>
      <point x="80" y="410"/>
      <point x="80" y="520" type="qcurve" smooth="yes"/>
      <point x="80" y="699"/>
      <point x="213" y="964"/>
      <point x="455" y="1110"/>
      <point x="620" y="1110" type="qcurve" smooth="yes"/>
      <point x="811" y="1110"/>
      <point x="1070" y="917"/>
      <point x="1106" y="750" type="qcurve"/>
      <point x="834" y="678" type="line"/>
      <point x="809" y="762"/>
      <point x="694" y="856"/>
      <point x="608" y="856" type="qcurve" smooth="yes"/>
      <point x="527" y="856"/>
      <point x="431" y="773"/>
      <point x="388" y="627"/>
      <point x="388" y="534" type="qcurve" smooth="yes"/>
      <point x="388" y="470"/>
      <point x="411" y="367"/>
      <point x="469" y="295"/>
      <point x="574" y="256"/>
      <point x="656" y="254" type="qcurve"/>
      <point x="680" y="254"/>
      <point x="769" y="252"/>
      <point x="870" y="240"/>
      <point x="912" y="224" type="qcurve" smooth="yes"/>
      <point x="988" y="195"/>
      <point x="1080" y="64"/>
      <point x="1109" y="-125"/>
      <point x="1090" y="-240" type="qcurve"/>
    </contour>
  </outline>
</glyph>
<glyph name="sigma" format="2">
  <advance width="1294"/>
  <unicode hex="03C3"/>
  <outline>
    <contour>
      <point x="626" y="-30" type="qcurve" smooth="yes"/>
      <point x="463" y="-30"/>
      <point x="217" y="119"/>
      <point x="80" y="371"/>
      <point x="80" y="526" type="qcurve" smooth="yes"/>
      <point x="80" y="658"/>
      <point x="178" y="878"/>
      <point x="357" y="1031"/>
      <point x="478" y="1062" type="qcurve" smooth="yes"/>
      <point x="534" y="1076"/>
      <point x="684" y="1080"/>
      <point x="786" y="1080" type="qcurve" smooth="yes"/>
      <point x="1234" y="1080" type="line"/>
      <point x="1234" y="840" type="line"/>
      <point x="974" y="840" type="line"/>
      <point x="1032" y="912" type="line"/>
      <point x="1092" y="843"/>
      <point x="1174" y="642"/>
      <point x="1174" y="526" type="qcurve" smooth="yes"/>
      <point x="1174" y="370"/>
      <point x="1035" y="118"/>
      <point x="788" y="-30"/>
    </contour>
    <contour>
      <point x="626" y="224" type="qcurve" smooth="yes"/>
      <point x="757" y="224"/>
      <point x="886" y="399"/>
      <point x="886" y="526" type="qcurve" smooth="yes"/>
      <point x="886" y="652"/>
      <point x="755" y="826"/>
      <point x="626" y="826" type="qcurve" smooth="yes"/>
      <point x="537" y="826"/>
      <point x="423" y="743"/>
      <point x="368" y="607"/>
      <point x="368" y="526" type="qcurve" smooth="yes"/>
      <point x="368" y="393"/>
      <point x="499" y="224"/>
    </contour>
  </outline>
</glyph>
<glyph name="upsilon" format="2">
  <advance width="1256"/>
  <unicode hex="03C5"/>
  <outline>
    <contour>
      <point x="120" y="494" type="qcurve" smooth="yes"/>
      <point x="120" y="1080" type="line"/>
      <point x="396" y="1080" type="line"/>
      <point x="396" y="570" type="line" smooth="yes"/>
      <point x="396" y="533"/>
      <point x="404" y="418"/>
      <point x="446" y="302"/>
      <point x="541" y="224"/>
      <point x="628" y="224" type="qcurve" smooth="yes"/>
      <point x="715" y="224"/>
      <point x="810" y="302"/>
      <point x="852" y="418"/>
      <point x="860" y="533"/>
      <point x="860" y="570" type="qcurve" smooth="yes"/>
      <point x="860" y="1080" type="line"/>
      <point x="1136" y="1080" type="line"/>
      <point x="1136" y="494" type="line" smooth="yes"/>
      <point x="1136" y="441"/>
      <point x="1125" y="303"/>
      <point x="1078" y="162"/>
      <point x="970" y="42"/>
      <point x="779" y="-32"/>
      <point x="628" y="-32" type="qcurve" smooth="yes"/>
      <point x="477" y="-32"/>
      <point x="286" y="42"/>
      <point x="178" y="162"/>
      <point x="131" y="303"/>
      <point x="120" y="441"/>
    </contour>
  </outline>
</glyph>
<glyph name="psi" format="2">
  <advance width="1492"/>
  <unicode hex="03C8"/>
  <outline>
    <contour>
      <point x="616" y="-450" type="line"/>
      <point x="616" y="-58" type="line"/>
      <point x="501" y="-53"/>
      <point x="301" y="14"/>
      <point x="160" y="161"/>
      <point x="134" y="286" type="qcurve" smooth="yes"/>
      <point x="127" y="321"/>
      <point x="120" y="402"/>
      <point x="120" y="430" type="qcurve" smooth="yes"/>
      <point x="120" y="1080" type="line"/>
      <point x="374" y="1080" type="line"/>
      <point x="374" y="456" type="line" smooth="yes"/>
      <point x="374" y="441"/>
      <point x="377" y="385"/>
      <point x="386" y="350" type="qcurve" smooth="yes"/>
      <point x="403" y="284"/>
      <point x="471" y="218"/>
      <point x="563" y="195"/>
      <point x="616" y="194" type="qcurve"/>
      <point x="616" y="1080" type="line"/>
      <point x="876" y="1080" type="line"/>
      <point x="876" y="194" type="line"/>
      <point x="932" y="195"/>
      <point x="1029" y="226"/>
      <point x="1097" y="300"/>
      <point x="1110" y="366" type="qcurve" smooth="yes"/>
      <point x="1116" y="396"/>
      <point x="1118" y="446"/>
      <point x="1118" y="456" type="qcurve" smooth="yes"/>
      <point x="1118" y="1080" type="line"/>
      <point x="1372" y="1080" type="line"/>
      <point x="1372" y="430" type="line" smooth="yes"/>
      <point x="1372" y="394"/>
      <point x="1366" y="325"/>
      <point x="1358" y="290" type="qcurve" smooth="yes"/>
      <point x="1330" y="164"/>
      <point x="1188" y="15"/>
      <point x="989" y="-53"/>
      <point x="876" y="-58" type="qcurve"/>
      <point x="876" y="-450" type="line"/>
    </contour>
  </outline>
</glyph>
<glyph name="iotadieresis" format="2">
  <advance width="845"/>
  <unicode hex="03CA"/>
  <outline>
    <contour>
      <point x="84" y="1194" type="qcurve" smooth="yes"/>
      <point x="16" y="1194"/>
      <point x="-75" y="1286"/>
      <point x="-75" y="1352" type="qcurve" smooth="yes"/>
      <point x="-75" y="1419"/>
      <point x="16" y="1510"/>
      <point x="84" y="1510" type="qcurve" smooth="yes"/>
      <point x="153" y="1510"/>
      <point x="243" y="1419"/>
      <point x="243" y="1352" type="qcurve" smooth="yes"/>
      <point x="243" y="1286"/>
      <point x="153" y="1194"/>
    </contour>
    <contour>
      <point x="506" y="1194" type="qcurve" smooth="yes"/>
      <point x="438" y="1194"/>
      <point x="347" y="1286"/>
      <point x="347" y="1352" type="qcurve" smooth="yes"/>
      <point x="347" y="1419"/>
      <point x="438" y="1510"/>
      <point x="506" y="1510" type="qcurve" smooth="yes"/>
      <point x="575" y="1510"/>
      <point x="665" y="1419"/>
      <point x="665" y="1352" type="qcurve" smooth="yes"/>
      <point x="665" y="1286"/>
      <point x="575" y="1194"/>
    </contour>
    <contour>
      <point x="429" y="-8" type="qcurve" smooth="yes"/>
      <point x="372" y="3"/>
      <point x="256" y="56"/>
      <point x="209" y="128" type="qcurve" smooth="yes"/>
      <point x="164" y="199"/>
      <point x="161" y="349"/>
      <point x="161" y="458" type="qcurve" smooth="yes"/>
      <point x="161" y="1080" type="line"/>
      <point x="433" y="1080" type="line"/>
      <point x="433" y="474" type="line" smooth="yes"/>
      <point x="433" y="408"/>
      <point x="436" y="312"/>
      <point x="455" y="280" type="qcurve"/>
      <point x="475" y="249"/>
      <point x="538" y="221"/>
      <point x="569" y="218" type="qcurve" smooth="yes"/>
      <point x="608" y="215"/>
      <point x="702" y="220"/>
      <point x="745" y="226" type="qcurve"/>
      <point x="745" y="0" type="line"/>
      <point x="703" y="-12"/>
      <point x="585" y="-20"/>
      <point x="469" y="-15"/>
    </contour>
  </outline>
</glyph>
<glyph name="omegatonos" format="2">
  <advance width="1610"/>
  <unicode hex="03CE"/>
  <outline>
    <contour>
      <point x="753" y="1620" type="line"/>
      <point x="1010" y="1620" type="line"/>
      <point x="844" y="1230" type="line"/>
      <point x="674" y="1230" type="line"/>
    </contour>
    <contour>
      <point x="512" y="-30" type="qcurve" smooth="yes"/>
      <point x="372" y="-30"/>
      <point x="179" y="121"/>
      <point x="80" y="370"/>
      <point x="80" y="518" type="qcurve" smooth="yes"/>
      <point x="80" y="703"/>
      <point x="231" y="1020"/>
      <point x="366" y="1110" type="qcurve"/>
      <point x="554" y="896" type="line"/>
      <point x="457" y="812"/>
      <point x="368" y="648"/>
      <point x="368" y="528" type="qcurve" smooth="yes"/>
      <point x="368" y="442"/>
      <point x="411" y="305"/>
      <point x="492" y="226"/>
      <point x="550" y="226" type="qcurve" smooth="yes"/>
      <point x="616" y="226"/>
      <point x="670" y="327"/>
      <point x="680" y="498"/>
      <point x="680" y="604" type="qcurve" smooth="yes"/>
      <point x="680" y="684" type="line"/>
      <point x="930" y="684" type="line"/>
      <point x="930" y="604" type="line" smooth="yes"/>
      <point x="930" y="495"/>
      <point x="941" y="324"/>
      <point x="995" y="226"/>
      <point x="1060" y="226" type="qcurve" smooth="yes"/>
      <point x="1120" y="226"/>
      <point x="1201" y="308"/>
      <point x="1242" y="445"/>
      <point x="1242" y="528" type="qcurve" smooth="yes"/>
      <point x="1242" y="653"/>
      <point x="1151" y="815"/>
      <point x="1056" y="896" type="qcurve"/>
      <point x="1244" y="1110" type="line"/>
      <point x="1382" y="1019"/>
      <point x="1530" y="698"/>
      <point x="1530" y="516" type="qcurve" smooth="yes"/>
      <point x="1530" y="366"/>
      <point x="1429" y="118"/>
      <point x="1236" y="-30"/>
      <point x="1098" y="-30" type="qcurve" smooth="yes"/>
      <point x="1001" y="-30"/>
      <point x="827" y="66"/>
      <point x="786" y="192" type="qcurve"/>
      <point x="824" y="192" type="line"/>
      <point x="784" y="66"/>
      <point x="610" y="-30"/>
    </contour>
  </outline>
</glyph>
<glyph name="Gjecyr" format="2">
  <advance width="1100"/>
  <unicode hex="0403"/>
  <outline>
    <contour>
      <point x="533" y="1980" type="line"/>
      <point x="790" y="1980" type="line"/>
      <point x="624" y="1590" type="line"/>
      <point x="454" y="1590" type="line"/>
    </contour>
    <contour>
      <point x="140" y="0" type="line"/>
      <point x="140" y="1440" type="line"/>
      <point x="1080" y="1440" type="line"/>
      <point x="1080" y="1186" type="line"/>
      <point x="412" y="1186" type="line"/>
      <point x="412" y="0" type="line"/>
    </contour>
  </outline>
</glyph>
<glyph name="uni040A" format="2">
  <advance width="2234"/>
  <unicode hex="040A"/>
  <outline>
    <contour>
      <point x="140" y="0" type="line"/>
      <point x="140" y="1440" type="line"/>
      <point x="412" y="1440" type="line"/>
      <point x="412" y="950" type="line"/>
      <point x="1180" y="950" type="line"/>
      <point x="1180" y="696" type="line"/>
      <point x="412" y="696" type="line"/>
      <point x="412" y="0" type="line"/>
    </contour>
    <contour>
      <point x="1054" y="0" type="line"/>
      <point x="1054" y="1440" type="line"/>
      <point x="1326" y="1440" type="line"/>
      <point x="1326" y="952" type="line"/>
      <point x="1662" y="952" type="line" smooth="yes"/>
      <point x="1682" y="952"/>
      <point x="1754" y="949"/>
      <point x="1782" y="944" type="qcurve" smooth="yes"/>
      <point x="1910" y="924"/>
      <point x="2075" y="794"/>
      <point x="2154" y="597"/>
      <point x="2154" y="476" type="qcurve" smooth="yes"/>
      <point x="2154" y="355"/>
      <point x="2076" y="158"/>
      <point x="1911" y="28"/>
      <point x="1782" y="8" type="qcurve" smooth="yes"/>
      <point x="1754" y="4"/>
      <point x="1683" y="0"/>
      <point x="1662" y="0" type="qcurve" smooth="yes"/>
    </contour>
    <contour>
      <point x="1326" y="254" type="line"/>
      <point x="1650" y="254" type="line" smooth="yes"/>
      <point x="1671" y="254"/>
      <point x="1721" y="258"/>
      <point x="1742" y="264" type="qcurve" smooth="yes"/>
      <point x="1797" y="279"/>
      <point x="1857" y="350"/>
      <point x="1880" y="437"/>
      <point x="1880" y="476" type="qcurve" smooth="yes"/>
      <point x="1880" y="515"/>
      <point x="1857" y="602"/>
      <point x="1797" y="673"/>
      <point x="1742" y="688" type="qcurve" smooth="yes"/>
      <point x="1721" y="694"/>
      <point x="1671" y="698"/>
      <point x="1650" y="698" type="qcurve" smooth="yes"/>
      <point x="1326" y="698" type="line"/>
    </contour>
  </outline>
</glyph>
<glyph name="uni040B" format="2">
  <advance width="1372"/>
  <unicode hex="040B"/>
  <outline>
    <contour>
      <point x="0" y="1200" type="line"/>
      <point x="0" y="1440" type="line"/>
      <point x="720" y="1440" type="line"/>
      <point x="720" y="1200" type="line"/>
    </contour>
    <contour>
      <point x="414" y="1440" type="line"/>
      <point x="414" y="812" type="line"/>
      <point x="376" y="874" type="line"/>
      <point x="432" y="924"/>
      <point x="635" y="976"/>
      <point x="744" y="976" type="qcurve" smooth="yes"/>
      <point x="924" y="976"/>
      <point x="1138" y="833"/>
      <point x="1232" y="580"/>
      <point x="1232" y="414" type="qcurve" smooth="yes"/>
      <point x="1232" y="0" type="line"/>
      <point x="956" y="0" type="line"/>
      <point x="956" y="332" type="line" smooth="yes"/>
      <point x="956" y="397"/>
      <point x="946" y="533"/>
      <point x="897" y="649"/>
      <point x="784" y="720"/>
      <point x="680" y="720" type="qcurve" smooth="yes"/>
      <point x="569" y="720"/>
      <point x="416" y="644"/>
      <point x="384" y="600" type="qcurve"/>
      <point x="414" y="722" type="line"/>
      <point x="414" y="0" type="line"/>
      <point x="140" y="0" type="line"/>
      <point x="140" y="1440" type="line"/>
    </contour>
  </outline>
</glyph>
<glyph name="uni040C" format="2">
  <advance width="1330"/>
  <unicode hex="040C"/>
  <outline>
    <contour>
      <point x="140" y="0" type="line"/>
      <point x="140" y="1440" type="line"/>
      <point x="412" y="1440" type="line"/>
      <point x="412" y="776" type="line"/>
      <point x="960" y="1440" type="line"/>
      <point x="1292" y="1440" type="line"/>
      <point x="690" y="730" type="line"/>
      <point x="1330" y="0" type="line"/>
      <point x="986" y="0" type="line"/>
      <point x="412" y="656" type="line"/>
      <point x="412" y="0" type="line"/>
    </contour>
    <contour>
      <point x="681" y="1980" type="line"/>
      <point x="938" y="1980" type="line"/>
      <point x="772" y="1590" type="line"/>
      <point x="602" y="1590" type="line"/>
    </contour>
  </outline>
</glyph>
<glyph name="Igravecyr" format="2">
  <advance width="1458"/>
  <unicode hex="040D"/>
  <outline>
    <contour>
      <point x="140" y="0" type="line"/>
      <point x="140" y="1440" type="line"/>
      <point x="416" y="1440" type="line"/>
      <point x="416" y="480" type="line"/>
      <point x="1042" y="1440" type="line"/>
      <point x="1318" y="1440" type="line"/>
      <point x="1318" y="0" type="line"/>
      <point x="1042" y="0" type="line"/>
      <point x="1042" y="960" type="line"/>
      <point x="416" y="0" type="line"/>
    </contour>
    <contour>
      <point x="741" y="1980" type="line"/>
      <point x="820" y="1590" type="line"/>
      <point x="650" y="1590" type="line"/>
      <point x="484" y="1980" type="line"/>
    </contour>
  </outline>
</glyph>
<glyph name="Becyr" format="2">
  <advance width="1300"/>
  <unicode hex="0411"/>
  <outline>
    <contour>
      <point x="140" y="0" type="line"/>
      <point x="140" y="1440" type="line"/>
      <point x="1128" y="1440" type="line"/>
      <point x="1128" y="1186" type="line"/>
      <point x="412" y="1186" type="line"/>
      <point x="412" y="912" type="line"/>
      <point x="748" y="912" type="line" smooth="yes"/>
      <point x="768" y="912"/>
      <point x="840" y="909"/>
      <point x="868" y="906" type="qcurve" smooth="yes"/>
      <point x="992" y="893"/>
      <point x="1157" y="766"/>
      <point x="1240" y="571"/>
      <point x="1240" y="456" type="qcurve" smooth="yes"/>
      <point x="1240" y="341"/>
      <point x="1158" y="146"/>
      <point x="993" y="19"/>
      <point x="868" y="6" type="qcurve" smooth="yes"/>
      <point x="840" y="3"/>
      <point x="769" y="0"/>
      <point x="748" y="0" type="qcurve" smooth="yes"/>
    </contour>
    <contour>
      <point x="412" y="254" type="line"/>
      <point x="736" y="254" type="line" smooth="yes"/>
      <point x="757" y="254"/>
      <point x="807" y="258"/>
      <point x="828" y="262" type="qcurve" smooth="yes"/>
      <point x="911" y="280"/>
      <point x="966" y="398"/>
      <point x="966" y="456" type="qcurve" smooth="yes"/>
      <point x="966" y="515"/>
      <point x="911" y="632"/>
      <point x="828" y="650" type="qcurve" smooth="yes"/>
      <point x="807" y="655"/>
      <point x="757" y="658"/>
      <point x="736" y="658" type="qcurve" smooth="yes"/>
      <point x="412" y="658" type="line"/>
    </contour>
  </outline>
</glyph>
<glyph name="uni0414" format="2">
  <advance width="1514"/>
  <unicode hex="0414"/>
  <outline>
    <contour>
      <point x="60" y="-240" type="line"/>
      <point x="60" y="254" type="line"/>
      <point x="125" y="254"/>
      <point x="216" y="319"/>
      <point x="274" y="438"/>
      <point x="308" y="598"/>
      <point x="316" y="692" type="qcurve" smooth="yes"/>
      <point x="326" y="812"/>
      <point x="342" y="1045"/>
      <point x="358" y="1296"/>
      <point x="368" y="1442" type="qcurve"/>
      <point x="1324" y="1440" type="line"/>
      <point x="1324" y="254" type="line"/>
      <point x="1434" y="254" type="line"/>
      <point x="1434" y="-240" type="line"/>
      <point x="1162" y="-240" type="line"/>
      <point x="1162" y="0" type="line"/>
      <point x="332" y="0" type="line"/>
      <point x="332" y="-240" type="line"/>
    </contour>
    <contour>
      <point x="466" y="254" type="qcurve"/>
      <point x="1052" y="254" type="line"/>
      <point x="1052" y="1186" type="line"/>
      <point x="616" y="1188" type="line"/>
      <point x="609" y="1089"/>
      <point x="600" y="923"/>
      <point x="588" y="753"/>
      <point x="578" y="648" type="qcurve" smooth="yes"/>
      <point x="568" y="543"/>
      <point x="548" y="408"/>
      <point x="507" y="308"/>
    </contour>
  </outline>
</glyph>
<glyph name="Zhecyr" format="2">
  <advance width="1848"/>
  <unicode hex="0416"/>
  <outline>
    <contour>
      <point x="20" y="0" type="line"/>
      <point x="530" y="730" type="line"/>
      <point x="58" y="1440" type="line"/>
      <point x="380" y="1440" type="line"/>
      <point x="788" y="796" type="line"/>
      <point x="788" y="1440" type="line"/>
      <point x="1060" y="1440" type="line"/>
      <point x="1060" y="796" type="line"/>
      <point x="1468" y="1440" type="line"/>
      <point x="1790" y="1440" type="line"/>
      <point x="1318" y="730" type="line"/>
      <point x="1828" y="0" type="line"/>
      <point x="1494" y="0" type="line"/>
      <point x="1060" y="636" type="line"/>
      <point x="1060" y="0" type="line"/>
      <point x="788" y="0" type="line"/>
      <point x="788" y="636" type="line"/>
      <point x="354" y="0" type="line"/>
    </contour>
  </outline>
</glyph>
<glyph name="uni0417" format="2">
  <advance width="1334"/>
  <unicode hex="0417"/>
  <outline>
    <contour>
      <point x="666" y="-30" type="qcurve" smooth="yes"/>
      <point x="513" y="-30"/>
      <point x="282" y="60"/>
      <point x="124" y="201"/>
      <point x="80" y="278" type="qcurve"/>
      <point x="310" y="438" type="line"/>
      <point x="334" y="388"/>
      <point x="422" y="290"/>
      <point x="568" y="226"/>
      <point x="678" y="226" type="qcurve" smooth="yes"/>
      <point x="782" y="226"/>
      <point x="909" y="286"/>
      <point x="966" y="380"/>
      <point x="966" y="432" type="qcurve" smooth="yes"/>
      <point x="966" y="501"/>
      <point x="885" y="575"/>
      <point x="757" y="604"/>
      <point x="686" y="606" type="qcurve" smooth="yes"/>
      <point x="617" y="608"/>
      <point x="556" y="610"/>
      <point x="535" y="610"/>
      <point x="526" y="610" type="qcurve"/>
      <point x="526" y="866" type="line"/>
      <point x="539" y="866"/>
      <point x="590" y="866"/>
      <point x="643" y="867"/>
      <point x="660" y="868" type="qcurve" smooth="yes"/>
      <point x="765" y="873"/>
      <point x="906" y="955"/>
      <point x="906" y="1042" type="qcurve" smooth="yes"/>
      <point x="906" y="1122"/>
      <point x="781" y="1216"/>
      <point x="676" y="1216" type="qcurve" smooth="yes"/>
      <point x="577" y="1216"/>
      <point x="422" y="1131"/>
      <point x="386" y="1080" type="qcurve"/>
      <point x="200" y="1280" type="line"/>
      <point x="275" y="1358"/>
      <point x="527" y="1470"/>
      <point x="684" y="1470" type="qcurve" smooth="yes"/>
      <point x="779" y="1470"/>
      <point x="961" y="1421"/>
      <point x="1107" y="1320"/>
      <point x="1194" y="1162"/>
      <point x="1194" y="1052" type="qcurve" smooth="yes"/>
      <point x="1194" y="959"/>
      <point x="1128" y="794"/>
      <point x="1066" y="738" type="qcurve"/>
      <point x="1156" y="698"/>
      <point x="1254" y="546"/>
      <point x="1254" y="432" type="qcurve" smooth="yes"/>
      <point x="1254" y="289"/>
      <point x="1095" y="82"/>
      <point x="828" y="-30"/>
    </contour>
  </outline>
</glyph>
<glyph name="uni041A" format="2">
  <advance width="1330"/>
  <unicode hex="041A"/>
  <outline>
    <contour>
      <point x="140" y="0" type="line"/>
      <point x="140" y="1440" type="line"/>
      <point x="412" y="1440" type="line"/>
      <point x="412" y="776" type="line"/>
      <point x="960" y="1440" type="line"/>
      <point x="1292" y="1440" type="line"/>
      <point x="690" y="730" type="line"/>
      <point x="1330" y="0" type="line"/>
      <point x="986" y="0" type="line"/>
      <point x="412" y="656" type="line"/>
      <point x="412" y="0" type="line"/>
    </contour>
  </outline>
</glyph>
<glyph name="Efcyr" format="2">
  <advance width="1496"/>
  <unicode hex="0424"/>
  <outline>
    <contour>
      <point x="612" y="0" type="line"/>
      <point x="612" y="210" type="line"/>
      <point x="501" y="191"/>
      <point x="302" y="246"/>
      <point x="148" y="387"/>
      <point x="60" y="610"/>
      <point x="60" y="760" type="qcurve" smooth="yes"/>
      <point x="60" y="910"/>
      <point x="148" y="1136"/>
      <point x="302" y="1281"/>
      <point x="501" y="1339"/>
      <point x="612" y="1320" type="qcurve"/>
      <point x="612" y="1440" type="line"/>
      <point x="882" y="1440" type="line"/>
      <point x="882" y="1320" type="line"/>
      <point x="993" y="1339"/>
      <point x="1193" y="1281"/>
      <point x="1347" y="1136"/>
      <point x="1436" y="910"/>
      <point x="1436" y="760" type="qcurve" smooth="yes"/>
      <point x="1436" y="610"/>
      <point x="1347" y="387"/>
      <point x="1193" y="246"/>
      <point x="993" y="191"/>
      <point x="882" y="210" type="qcurve"/>
      <point x="882" y="0" type="line"/>
    </contour>
    <contour>
      <point x="612" y="458" type="qcurve"/>
      <point x="612" y="1076" type="line"/>
      <point x="527" y="1090"/>
      <point x="418" y="1040"/>
      <point x="359" y="943"/>
      <point x="336" y="820"/>
      <point x="336" y="760" type="qcurve" smooth="yes"/>
      <point x="336" y="700"/>
      <point x="359" y="582"/>
      <point x="418" y="489"/>
      <point x="527" y="445"/>
    </contour>
    <contour>
      <point x="882" y="458" type="line"/>
      <point x="967" y="445"/>
      <point x="1075" y="490"/>
      <point x="1136" y="581"/>
      <point x="1160" y="696"/>
      <point x="1160" y="752" type="qcurve" smooth="yes"/>
      <point x="1160" y="808"/>
      <point x="1136" y="932"/>
      <point x="1075" y="1035"/>
      <point x="967" y="1090"/>
      <point x="882" y="1076" type="qcurve"/>
    </contour>
  </outline>
</glyph>
<glyph name="Tsecyr" format="2">
  <advance width="1522"/>
  <unicode hex="0426"/>
  <outline>
    <contour>
      <point x="1230" y="-240" type="line"/>
      <point x="1230" y="0" type="line"/>
      <point x="140" y="0" type="line"/>
      <point x="140" y="1440" type="line"/>
      <point x="412" y="1440" type="line"/>
      <point x="412" y="240" type="line"/>
      <point x="1068" y="240" type="line"/>
      <point x="1068" y="1400" type="line"/>
      <point x="1340" y="1400" type="line"/>
      <point x="1340" y="240" type="line"/>
      <point x="1502" y="240" type="line"/>
      <point x="1502" y="-240" type="line"/>
    </contour>
  </outline>
</glyph>
<glyph name="Checyr" format="2">
  <advance width="1372"/>
  <unicode hex="0427"/>
  <outline>
    <contour>
      <point x="958" y="0" type="line"/>
      <point x="958" y="628" type="line"/>
      <point x="996" y="566" type="line"/>
      <point x="941" y="517"/>
      <point x="738" y="464"/>
      <point x="628" y="464" type="qcurve" smooth="yes"/>
      <point x="448" y="464"/>
      <point x="234" y="607"/>
      <point x="140" y="860"/>
      <point x="140" y="1026" type="qcurve" smooth="yes"/>
      <point x="140" y="1440" type="line"/>
      <point x="416" y="1440" type="line"/>
      <point x="416" y="1108" type="line" smooth="yes"/>
      <point x="416" y="1043"/>
      <point x="426" y="907"/>
      <point x="475" y="791"/>
      <point x="589" y="720"/>
      <point x="692" y="720" type="qcurve" smooth="yes"/>
      <point x="803" y="720"/>
      <point x="957" y="797"/>
      <point x="988" y="840" type="qcurve"/>
      <point x="958" y="718" type="line"/>
      <point x="958" y="1440" type="line"/>
      <point x="1232" y="1440" type="line"/>
      <point x="1232" y="0" type="line"/>
    </contour>
  </outline>
</glyph>
<glyph name="Softcyr" format="2">
  <advance width="1318"/>
  <unicode hex="042C"/>
  <outline>
    <contour>
      <point x="138" y="0" type="line"/>
      <point x="138" y="1440" type="line"/>
      <point x="410" y="1440" type="line"/>
      <point x="410" y="952" type="line"/>
      <point x="746" y="952" type="line" smooth="yes"/>
      <point x="766" y="952"/>
      <point x="838" y="949"/>
      <point x="866" y="944" type="qcurve" smooth="yes"/>
      <point x="994" y="924"/>
      <point x="1159" y="794"/>
      <point x="1238" y="597"/>
      <point x="1238" y="476" type="qcurve" smooth="yes"/>
      <point x="1238" y="355"/>
      <point x="1160" y="158"/>
      <point x="995" y="28"/>
      <point x="866" y="8" type="qcurve" smooth="yes"/>
      <point x="838" y="4"/>
      <point x="767" y="0"/>
      <point x="746" y="0" type="qcurve" smooth="yes"/>
    </contour>
    <contour>
      <point x="410" y="254" type="line"/>
      <point x="734" y="254" type="line" smooth="yes"/>
      <point x="755" y="254"/>
      <point x="805" y="258"/>
      <point x="826" y="264" type="qcurve" smooth="yes"/>
      <point x="881" y="279"/>
      <point x="941" y="350"/>
      <point x="964" y="437"/>
      <point x="964" y="476" type="qcurve" smooth="yes"/>
      <point x="964" y="515"/>
      <point x="941" y="602"/>
      <point x="881" y="673"/>
      <point x="826" y="688" type="qcurve" smooth="yes"/>
      <point x="805" y="694"/>
      <point x="755" y="698"/>
      <point x="734" y="698" type="qcurve" smooth="yes"/>
      <point x="410" y="698" type="line"/>
    </contour>
  </outline>
</glyph>
<glyph name="uni042E" format="2">
  <advance width="1912"/>
  <unicode hex="042E"/>
  <outline>
    <contour>
      <point x="140" y="0" type="line"/>
      <point x="140" y="1440" type="line"/>
      <point x="412" y="1440" type="line"/>
      <point x="412" y="856" type="line"/>
      <point x="652" y="856" type="line"/>
      <point x="652" y="584" type="line"/>
      <point x="412" y="584" type="line"/>
      <point x="412" y="0" type="line"/>
    </contour>
    <contour>
      <point x="1236" y="-30" type="qcurve" smooth="yes"/>
      <point x="1093" y="-30"/>
      <point x="865" y="72"/>
      <point x="705" y="267"/>
      <point x="620" y="545"/>
      <point x="620" y="720" type="qcurve" smooth="yes"/>
      <point x="620" y="896"/>
      <point x="705" y="1173"/>
      <point x="865" y="1368"/>
      <point x="1093" y="1470"/>
      <point x="1236" y="1470" type="qcurve" smooth="yes"/>
      <point x="1379" y="1470"/>
      <point x="1607" y="1368"/>
      <point x="1767" y="1173"/>
      <point x="1852" y="896"/>
      <point x="1852" y="720" type="qcurve" smooth="yes"/>
      <point x="1852" y="545"/>
      <point x="1767" y="267"/>
      <point x="1607" y="72"/>
      <point x="1379" y="-30"/>
    </contour>
    <contour>
      <point x="1236" y="226" type="qcurve" smooth="yes"/>
      <point x="1320" y="226"/>
      <point x="1444" y="297"/>
      <point x="1524" y="428"/>
      <point x="1564" y="610"/>
      <point x="1564" y="720" type="qcurve" smooth="yes"/>
      <point x="1564" y="830"/>
      <point x="1524" y="1012"/>
      <point x="1444" y="1143"/>
      <point x="1320" y="1214"/>
      <point x="1236" y="1214" type="qcurve" smooth="yes"/>
      <point x="1152" y="1214"/>
      <point x="1028" y="1143"/>
      <point x="948" y="1012"/>
      <point x="908" y="830"/>
      <point x="908" y="720" type="qcurve" smooth="yes"/>
      <point x="908" y="610"/>
      <point x="948" y="428"/>
      <point x="1028" y="297"/>
      <point x="1152" y="226"/>
    </contour>
  </outline>
</glyph>
<glyph name="zhecyr" format="2">
  <advance width="1576"/>
  <unicode hex="0436"/>
  <outline>
    <contour>
      <point x="20" y="0" type="line"/>
      <point x="396" y="540" type="line"/>
      <point x="46" y="1080" type="line"/>
      <point x="342" y="1080" type="line"/>
      <point x="668" y="560" type="line"/>
      <point x="668" y="1080" type="line"/>
      <point x="908" y="1080" type="line"/>
      <point x="908" y="560" type="line"/>
      <point x="1234" y="1080" type="line"/>
      <point x="1530" y="1080" type="line"/>
      <point x="1180" y="540" type="line"/>
      <point x="1556" y="0" type="line"/>
      <point x="1242" y="0" type="line"/>
      <point x="908" y="520" type="line"/>
      <point x="908" y="0" type="line"/>
      <point x="668" y="0" type="line"/>
      <point x="668" y="520" type="line"/>
      <point x="334" y="0" type="line"/>
    </contour>
  </outline>
</glyph>
<glyph name="ishortcyr" format="2">
  <advance width="1242"/>
  <unicode hex="0439"/>
  <outline>
    <contour>
      <point x="656" y="1200" type="qcurve" smooth="yes"/>
      <point x="568" y="1200"/>
      <point x="424" y="1286"/>
      <point x="338" y="1430"/>
      <point x="338" y="1518" type="qcurve"/>
      <point x="548" y="1518" type="line"/>
      <point x="548" y="1473"/>
      <point x="611" y="1410"/>
      <point x="656" y="1410" type="qcurve" smooth="yes"/>
      <point x="701" y="1410"/>
      <point x="764" y="1473"/>
      <point x="764" y="1518" type="qcurve"/>
      <point x="974" y="1518" type="line"/>
      <point x="974" y="1430"/>
      <point x="888" y="1286"/>
      <point x="744" y="1200"/>
    </contour>
    <contour>
      <point x="1102" y="1080" type="line"/>
      <point x="1102" y="0" type="line"/>
      <point x="842" y="0" type="line"/>
      <point x="842" y="660" type="line"/>
      <point x="354" y="0" type="line"/>
      <point x="138" y="0" type="line"/>
      <point x="138" y="1080" type="line"/>
      <point x="398" y="1080" type="line"/>
      <point x="398" y="442" type="line"/>
      <point x="888" y="1080" type="line"/>
    </contour>
  </outline>
</glyph>
<glyph name="uni043C" format="2">
  <advance width="1430"/>
  <unicode hex="043C"/>
  <outline>
    <contour>
      <point x="138" y="0" type="line"/>
      <point x="138" y="1080" type="line"/>
      <point x="410" y="1080" type="line"/>
      <point x="714" y="499" type="line"/>
      <point x="1018" y="1080" type="line"/>
      <point x="1290" y="1080" type="line"/>
      <point x="1290" y="0" type="line"/>
      <point x="1018" y="0" type="line"/>
      <point x="1018" y="571" type="line"/>
      <point x="818" y="189" type="line"/>
      <point x="610" y="189" type="line"/>
      <point x="410" y="571" type="line"/>
      <point x="410" y="0" type="line"/>
    </contour>
  </outline>
</glyph>
<glyph name="uni0442" format="2">
  <advance width="1080"/>
  <unicode hex="0442"/>
  <outline>
    <contour>
      <point x="404" y="0" type="line"/>
      <point x="404" y="840" type="line"/>
      <point x="50" y="840" type="line"/>
      <point x="50" y="1080" type="line"/>
      <point x="1030" y="1080" type="line"/>
      <point x="1030" y="840" type="line"/>
      <point x="676" y="840" type="line"/>
      <point x="676" y="0" type="line"/>
    </contour>
  </outline>
</glyph>
<glyph name="tsecyr" format="2">
  <advance width="1328"/>
  <unicode hex="0446"/>
  <outline>
    <contour>
      <point x="1036" y="-240" type="line"/>
      <point x="1036" y="0" type="line"/>
      <point x="138" y="0" type="line"/>
      <point x="138" y="1080" type="line"/>
      <point x="410" y="1080" type="line"/>
      <point x="410" y="254" type="line"/>
      <point x="830" y="254" type="line"/>
      <point x="830" y="1080" type="line"/>
      <point x="1102" y="1080" type="line"/>
      <point x="1102" y="240" type="line"/>
      <point x="1308" y="240" type="line"/>
      <point x="1308" y="-240" type="line"/>
    </contour>
  </outline>
</glyph>
<glyph name="uni0448" format="2">
  <advance width="1602"/>
  <unicode hex="0448"/>
  <outline>
    <contour>
      <point x="138" y="0" type="line"/>
      <point x="138" y="1080" type="line"/>
      <point x="398" y="1080" type="line"/>
      <point x="398" y="240" type="line"/>
      <point x="670" y="240" type="line"/>
      <point x="670" y="1080" type="line"/>
      <point x="930" y="1080" type="line"/>
      <point x="930" y="240" type="line"/>
      <point x="1202" y="240" type="line"/>
      <point x="1202" y="1080" type="line"/>
      <point x="1462" y="1080" type="line"/>
      <point x="1462" y="0" type="line"/>
    </contour>
  </outline>
</glyph>
<glyph name="uni0449" format="2">
  <advance width="1570"/>
  <unicode hex="0449"/>
  <outline>
    <contour>
      <point x="1278" y="-240" type="line"/>
      <point x="1278" y="0" type="line"/>
      <point x="138" y="0" type="line"/>
      <point x="138" y="1080" type="line"/>
      <point x="398" y="1080" type="line"/>
      <point x="398" y="240" type="line"/>
      <point x="670" y="240" type="line"/>
      <point x="670" y="1080" type="line"/>
      <point x="930" y="1080" type="line"/>
      <point x="930" y="240" type="line"/>
      <point x="1202" y="240" type="line"/>
      <point x="1202" y="1080" type="line"/>
      <point x="1462" y="1080" type="line"/>
      <point x="1462" y="240" type="line"/>
      <point x="1550" y="240" type="line"/>
      <point x="1550" y="-240" type="line"/>
    </contour>
  </outline>
</glyph>
<glyph name="uni044C" format="2">
  <advance width="1160"/>
  <unicode hex="044C"/>
  <outline>
    <contour>
      <point x="138" y="0" type="line"/>
      <point x="138" y="1080" type="line"/>
      <point x="410" y="1080" type="line"/>
      <point x="410" y="736" type="line"/>
      <point x="584" y="736" type="line" smooth="yes"/>
      <point x="629" y="736"/>
      <point x="749" y="732"/>
      <point x="788" y="724" type="qcurve" smooth="yes"/>
      <point x="883" y="703"/>
      <point x="1013" y="611"/>
      <point x="1080" y="466"/>
      <point x="1080" y="366" type="qcurve" smooth="yes"/>
      <point x="1080" y="222"/>
      <point x="931" y="47"/>
      <point x="790" y="14" type="qcurve" smooth="yes"/>
      <point x="751" y="5"/>
      <point x="629" y="0"/>
      <point x="584" y="0" type="qcurve" smooth="yes"/>
    </contour>
    <contour>
      <point x="410" y="210" type="line"/>
      <point x="614" y="210" type="line" smooth="yes"/>
      <point x="632" y="210"/>
      <point x="676" y="214"/>
      <point x="698" y="220" type="qcurve" smooth="yes"/>
      <point x="740" y="232"/>
      <point x="804" y="314"/>
      <point x="804" y="366" type="qcurve" smooth="yes"/>
      <point x="804" y="423"/>
      <point x="738" y="504"/>
      <point x="694" y="516" type="qcurve" smooth="yes"/>
      <point x="673" y="522"/>
      <point x="631" y="526"/>
      <point x="614" y="526" type="qcurve" smooth="yes"/>
      <point x="410" y="526" type="line"/>
    </contour>
  </outline>
</glyph>
<glyph name="gjecyr" format="2">
  <advance width="970"/>
  <unicode hex="0453"/>
  <outline>
    <contour>
      <point x="493" y="1620" type="line"/>
      <point x="414" y="1230" type="line"/>
      <point x="584" y="1230" type="line"/>
      <point x="750" y="1620" type="line"/>
    </contour>
    <contour>
      <point x="140" y="0" type="line"/>
      <point x="140" y="1080" type="line"/>
      <point x="920" y="1080" type="line"/>
      <point x="920" y="826" type="line"/>
      <point x="412" y="826" type="line"/>
      <point x="412" y="0" type="line"/>
    </contour>
  </outline>
</glyph>
<glyph name="uni0457" format="2">
  <advance width="592"/>
  <unicode hex="0457"/>
  <outline>
    <contour>
      <point x="160" y="0" type="line"/>
      <point x="160" y="1080" type="line"/>
      <point x="432" y="1080" type="line"/>
      <point x="432" y="0" type="line"/>
    </contour>
    <contour>
      <point x="131" y="1193" type="qcurve" smooth="yes"/>
      <point x="83" y="1193"/>
      <point x="20" y="1285"/>
      <point x="20" y="1352" type="qcurve" smooth="yes"/>
      <point x="20" y="1418"/>
      <point x="83" y="1509"/>
      <point x="131" y="1509" type="qcurve" smooth="yes"/>
      <point x="179" y="1509"/>
      <point x="242" y="1418"/>
      <point x="242" y="1351" type="qcurve" smooth="yes"/>
      <point x="242" y="1285"/>
      <point x="179" y="1193"/>
    </contour>
    <contour>
      <point x="430" y="1193" type="qcurve" smooth="yes"/>
      <point x="382" y="1193"/>
      <point x="319" y="1285"/>
      <point x="319" y="1352" type="qcurve" smooth="yes"/>
      <point x="319" y="1418"/>
      <point x="382" y="1509"/>
      <point x="430" y="1509" type="qcurve" smooth="yes"/>
      <point x="478" y="1509"/>
      <point x="541" y="1418"/>
      <point x="541" y="1351" type="qcurve" smooth="yes"/>
      <point x="541" y="1285"/>
      <point x="478" y="1193"/>
    </contour>
  </outline>
</glyph>
<glyph name="uni0459" format="2">
  <advance width="1724"/>
  <unicode hex="0459"/>
  <outline>
    <contour>
      <point x="40" y="0" type="qcurve"/>
      <point x="40" y="226" type="line"/>
      <point x="99" y="215"/>
      <point x="163" y="240"/>
      <point x="196" y="315"/>
      <point x="208" y="380" type="qcurve" smooth="yes"/>
      <point x="224" y="466"/>
      <point x="249" y="696"/>
      <point x="267" y="953"/>
      <point x="274" y="1080" type="qcurve"/>
      <point x="1050" y="1080" type="line"/>
      <point x="1050" y="736" type="line"/>
      <point x="1148" y="736" type="line" smooth="yes"/>
      <point x="1208" y="736"/>
      <point x="1306" y="733"/>
      <point x="1352" y="724" type="qcurve" smooth="yes"/>
      <point x="1439" y="707"/>
      <point x="1571" y="616"/>
      <point x="1644" y="470"/>
      <point x="1644" y="370" type="qcurve" smooth="yes"/>
      <point x="1644" y="222"/>
      <point x="1486" y="40"/>
      <point x="1354" y="14" type="qcurve" smooth="yes"/>
      <point x="1300" y="4"/>
      <point x="1186" y="0"/>
      <point x="1148" y="0" type="qcurve" smooth="yes"/>
      <point x="778" y="0" type="line"/>
      <point x="778" y="826" type="line"/>
      <point x="512" y="826" type="line"/>
      <point x="508" y="774"/>
      <point x="495" y="630"/>
      <point x="480" y="475"/>
      <point x="462" y="334"/>
      <point x="452" y="284" type="qcurve" smooth="yes"/>
      <point x="428" y="157"/>
      <point x="334" y="11"/>
      <point x="170" y="-30"/>
    </contour>
    <contour>
      <point x="1050" y="210" type="line"/>
      <point x="1178" y="210" type="line" smooth="yes"/>
      <point x="1196" y="210"/>
      <point x="1240" y="214"/>
      <point x="1262" y="220" type="qcurve" smooth="yes"/>
      <point x="1290" y="228"/>
      <point x="1338" y="271"/>
      <point x="1368" y="332"/>
      <point x="1368" y="368" type="qcurve" smooth="yes"/>
      <point x="1368" y="425"/>
      <point x="1300" y="504"/>
      <point x="1258" y="516" type="qcurve" smooth="yes"/>
      <point x="1237" y="522"/>
      <point x="1195" y="526"/>
      <point x="1178" y="526" type="qcurve" smooth="yes"/>
      <point x="1050" y="526" type="line"/>
    </contour>
  </outline>
</glyph>
<glyph name="uni045A" format="2">
  <advance width="1690"/>
  <unicode hex="045A"/>
  <outline>
    <contour>
      <point x="138" y="0" type="line"/>
      <point x="138" y="1080" type="line"/>
      <point x="410" y="1080" type="line"/>
      <point x="410" y="736" type="line"/>
      <point x="744" y="736" type="line"/>
      <point x="744" y="1080" type="line"/>
      <point x="1016" y="1080" type="line"/>
      <point x="1016" y="736" type="line"/>
      <point x="1114" y="736" type="line" smooth="yes"/>
      <point x="1174" y="736"/>
      <point x="1272" y="733"/>
      <point x="1318" y="724" type="qcurve" smooth="yes"/>
      <point x="1405" y="707"/>
      <point x="1537" y="616"/>
      <point x="1610" y="470"/>
      <point x="1610" y="370" type="qcurve" smooth="yes"/>
      <point x="1610" y="222"/>
      <point x="1452" y="40"/>
      <point x="1320" y="14" type="qcurve" smooth="yes"/>
      <point x="1266" y="4"/>
      <point x="1152" y="0"/>
      <point x="1114" y="0" type="qcurve" smooth="yes"/>
      <point x="744" y="0" type="line"/>
      <point x="744" y="526" type="line"/>
      <point x="410" y="526" type="line"/>
      <point x="410" y="0" type="line"/>
    </contour>
    <contour>
      <point x="1016" y="210" type="line"/>
      <point x="1144" y="210" type="line" smooth="yes"/>
      <point x="1162" y="210"/>
      <point x="1206" y="214"/>
      <point x="1228" y="220" type="qcurve" smooth="yes"/>
      <point x="1256" y="228"/>
      <point x="1304" y="271"/>
      <point x="1334" y="332"/>
      <point x="1334" y="368" type="qcurve" smooth="yes"/>
      <point x="1334" y="425"/>
      <point x="1266" y="504"/>
      <point x="1224" y="516" type="qcurve" smooth="yes"/>
      <point x="1203" y="522"/>
      <point x="1161" y="526"/>
      <point x="1144" y="526" type="qcurve" smooth="yes"/>
      <point x="1016" y="526" type="line"/>
    </contour>
  </outline>
</glyph>
<glyph name="ushortcyr" format="2">
  <advance width="1140"/>
  <unicode hex="045E"/>
  <outline>
    <component base="ucyr"/>
    <contour>
      <point x="586" y="1200" type="qcurve" smooth="yes"/>
      <point x="498" y="1200"/>
      <point x="354" y="1286"/>
      <point x="268" y="1430"/>
      <point x="268" y="1518" type="qcurve"/>
      <point x="478" y="1518" type="line"/>
      <point x="478" y="1473"/>
      <point x="541" y="1410"/>
      <point x="586" y="1410" type="qcurve" smooth="yes"/>
      <point x="631" y="1410"/>
      <point x="694" y="1473"/>
      <point x="694" y="1518" type="qcurve"/>
      <point x="904" y="1518" type="line"/>
      <point x="904" y="1430"/>
      <point x="818" y="1286"/>
      <point x="674" y="1200"/>
    </contour>
  </outline>
</glyph>
<glyph name="dzhecyr" format="2">
  <advance width="1242"/>
  <unicode hex="045F"/>
  <outline>
    <contour>
      <point x="496" y="-240" type="line"/>
      <point x="496" y="0" type="line"/>
      <point x="138" y="0" type="line"/>
      <point x="138" y="1080" type="line"/>
      <point x="410" y="1080" type="line"/>
      <point x="410" y="254" type="line"/>
      <point x="830" y="254" type="line"/>
      <point x="830" y="1080" type="line"/>
      <point x="1102" y="1080" type="line"/>
      <point x="1102" y="0" type="line"/>
      <point x="768" y="0" type="line"/>
      <point x="768" y="-240" type="line"/>
    </contour>
  </outline>
</glyph>
<glyph name="uni04AF" format="2">
  <advance width="1136"/>
  <unicode hex="04AF"/>
  <outline>
    <contour>
      <point x="432" y="-360" type="line"/>
      <point x="432" y="0" type="line"/>
      <point x="40" y="1080" type="line"/>
      <point x="312" y="1080" type="line"/>
      <point x="568" y="332" type="line"/>
      <point x="824" y="1080" type="line"/>
      <point x="1096" y="1080" type="line"/>
      <point x="704" y="0" type="line"/>
      <point x="704" y="-360" type="line"/>
    </contour>
  </outline>
</glyph>
<glyph name="Wgrave" format="2">
  <advance width="1978"/>
  <unicode hex="1E80"/>
  <outline>
    <contour>
      <point x="966" y="1980" type="line"/>
      <point x="709" y="1980" type="line"/>
      <point x="875" y="1590" type="line"/>
      <point x="1045" y="1590" type="line"/>
    </contour>
    <contour>
      <point x="442" y="0" type="line"/>
      <point x="20" y="1440" type="line"/>
      <point x="306" y="1440" type="line"/>
      <point x="576" y="450" type="line"/>
      <point x="846" y="1438" type="line"/>
      <point x="1132" y="1440" type="line"/>
      <point x="1402" y="450" type="line"/>
      <point x="1672" y="1440" type="line"/>
      <point x="1958" y="1440" type="line"/>
      <point x="1536" y="0" type="line"/>
      <point x="1268" y="0" type="line"/>
      <point x="989" y="972" type="line"/>
      <point x="710" y="0" type="line"/>
    </contour>
  </outline>
</glyph>
<glyph name="Germandbls" format="2">
  <advance width="1528"/>
  <unicode hex="1E9E"/>
  <outline>
    <contour>
      <point x="950" y="-30" type="qcurve" smooth="yes"/>
      <point x="884" y="-30"/>
      <point x="769" y="-14"/>
      <point x="734" y="0" type="qcurve"/>
      <point x="734" y="266" type="line"/>
      <point x="774" y="250"/>
      <point x="864" y="236"/>
      <point x="910" y="236" type="qcurve" smooth="yes"/>
      <point x="977" y="236"/>
      <point x="1083" y="277"/>
      <point x="1145" y="366"/>
      <point x="1144" y="438" type="qcurve" smooth="yes"/>
      <point x="1144" y="525"/>
      <point x="1050" y="624"/>
      <point x="908" y="664"/>
      <point x="834" y="664" type="qcurve"/>
      <point x="784" y="832" type="line"/>
      <point x="1003" y="1179" type="line"/>
      <point x="954" y="1201"/>
      <point x="853" y="1216"/>
      <point x="806" y="1216" type="qcurve" smooth="yes"/>
      <point x="673" y="1216"/>
      <point x="476" y="1096"/>
      <point x="438" y="973" type="qcurve" smooth="yes"/>
      <point x="425" y="929"/>
      <point x="412" y="808"/>
      <point x="412" y="746" type="qcurve" smooth="yes"/>
      <point x="412" y="0" type="line"/>
      <point x="138" y="0" type="line"/>
      <point x="138" y="800" type="line" smooth="yes"/>
      <point x="138" y="898"/>
      <point x="159" y="1044"/>
      <point x="179" y="1099" type="qcurve" smooth="yes"/>
      <point x="227" y="1227"/>
      <point x="408" y="1391"/>
      <point x="644" y="1470"/>
      <point x="776" y="1470" type="qcurve" smooth="yes"/>
      <point x="920" y="1470"/>
      <point x="1125" y="1417"/>
      <point x="1276" y="1338"/>
      <point x="1339" y="1299" type="qcurve"/>
      <point x="1073" y="845" type="line"/>
      <point x="1167" y="824"/>
      <point x="1319" y="716"/>
      <point x="1408" y="545"/>
      <point x="1408" y="428" type="qcurve" smooth="yes"/>
      <point x="1408" y="221"/>
      <point x="1172" y="-30"/>
    </contour>
  </outline>
</glyph>
<glyph name="uni1EA0" format="2">
  <advance width="1366"/>
  <unicode hex="1EA0"/>
  <outline>
    <contour>
      <point x="684" y="-428" type="qcurve" smooth="yes"/>
      <point x="616" y="-428"/>
      <point x="525" y="-336"/>
      <point x="525" y="-270" type="qcurve" smooth="yes"/>
      <point x="525" y="-203"/>
      <point x="616" y="-112"/>
      <point x="684" y="-112" type="qcurve" smooth="yes"/>
      <point x="753" y="-112"/>
      <point x="843" y="-203"/>
      <point x="843" y="-270" type="qcurve" smooth="yes"/>
      <point x="843" y="-336"/>
      <point x="753" y="-428"/>
    </contour>
    <contour>
      <point x="40" y="0" type="line"/>
      <point x="480" y="1440" type="line"/>
      <point x="886" y="1440" type="line"/>
      <point x="1326" y="0" type="line"/>
      <point x="1046" y="0" type="line"/>
      <point x="654" y="1270" type="line"/>
      <point x="706" y="1270" type="line"/>
      <point x="320" y="0" type="line"/>
    </contour>
    <contour>
      <point x="304" y="300" type="line"/>
      <point x="304" y="554" type="line"/>
      <point x="1064" y="554" type="line"/>
      <point x="1064" y="300" type="line"/>
    </contour>
  </outline>
</glyph>
<glyph name="Ahoi" format="2">
  <advance width="1366"/>
  <unicode hex="1EA2"/>
  <outline>
    <contour>
      <point x="528" y="1886" type="qcurve"/>
      <point x="461" y="2019" type="line"/>
      <point x="523" y="2072"/>
      <point x="686" y="2099"/>
      <point x="830" y="2032"/>
      <point x="863" y="1943" type="qcurve" smooth="yes"/>
      <point x="890" y="1870"/>
      <point x="867" y="1752"/>
      <point x="792" y="1665"/>
      <point x="690" y="1616"/>
      <point x="639" y="1612" type="qcurve"/>
      <point x="597" y="1721" type="line"/>
      <point x="651" y="1735"/>
      <point x="728" y="1812"/>
      <point x="701" y="1871" type="qcurve" smooth="yes"/>
      <point x="684" y="1909"/>
      <point x="623" y="1924"/>
      <point x="555" y="1904"/>
    </contour>
    <contour>
      <point x="40" y="0" type="line"/>
      <point x="480" y="1440" type="line"/>
      <point x="886" y="1440" type="line"/>
      <point x="1326" y="0" type="line"/>
      <point x="1046" y="0" type="line"/>
      <point x="654" y="1270" type="line"/>
      <point x="706" y="1270" type="line"/>
      <point x="320" y="0" type="line"/>
    </contour>
    <contour>
      <point x="304" y="300" type="line"/>
      <point x="304" y="554" type="line"/>
      <point x="1064" y="554" type="line"/>
      <point x="1064" y="300" type="line"/>
    </contour>
  </outline>
</glyph>
<glyph name="Acircumflexhoi" format="2">
  <advance width="1366"/>
  <unicode hex="1EA8"/>
  <outline>
    <contour>
      <point x="280" y="1590" type="line"/>
      <point x="568" y="1920" type="line"/>
      <point x="792" y="1920" type="line"/>
      <point x="1080" y="1590" type="line"/>
      <point x="830" y="1590" type="line"/>
      <point x="680" y="1770" type="line"/>
      <point x="530" y="1590" type="line"/>
    </contour>
    <contour>
      <point x="1032" y="1886" type="qcurve"/>
      <point x="965" y="2019" type="line"/>
      <point x="1027" y="2072"/>
      <point x="1190" y="2099"/>
      <point x="1334" y="2032"/>
      <point x="1367" y="1943" type="qcurve" smooth="yes"/>
      <point x="1394" y="1870"/>
      <point x="1371" y="1752"/>
      <point x="1296" y="1665"/>
      <point x="1194" y="1616"/>
      <point x="1143" y="1612" type="qcurve"/>
      <point x="1101" y="1721" type="line"/>
      <point x="1155" y="1735"/>
      <point x="1232" y="1812"/>
      <point x="1205" y="1871" type="qcurve" smooth="yes"/>
      <point x="1188" y="1909"/>
      <point x="1127" y="1924"/>
      <point x="1059" y="1904"/>
    </contour>
    <contour>
      <point x="40" y="0" type="line"/>
      <point x="480" y="1440" type="line"/>
      <point x="886" y="1440" type="line"/>
      <point x="1326" y="0" type="line"/>
      <point x="1046" y="0" type="line"/>
      <point x="654" y="1270" type="line"/>
      <point x="706" y="1270" type="line"/>
      <point x="320" y="0" type="line"/>
    </contour>
    <contour>
      <point x="304" y="300" type="line"/>
      <point x="304" y="554" type="line"/>
      <point x="1064" y="554" type="line"/>
      <point x="1064" y="300" type="line"/>
    </contour>
  </outline>
</glyph>
<glyph name="Acircumflextilde" format="2">
  <advance width="1366"/>
  <unicode hex="1EAA"/>
  <outline>
    <contour>
      <point x="279" y="1590" type="line"/>
      <point x="567" y="1920" type="line"/>
      <point x="791" y="1920" type="line"/>
      <point x="1079" y="1590" type="line"/>
      <point x="829" y="1590" type="line"/>
      <point x="679" y="1770" type="line"/>
      <point x="529" y="1590" type="line"/>
    </contour>
    <contour>
      <point x="863" y="1970" type="qcurve" smooth="yes"/>
      <point x="814" y="1970"/>
      <point x="725" y="2015"/>
      <point x="644" y="2073"/>
      <point x="574" y="2118"/>
      <point x="545" y="2118" type="qcurve" smooth="yes"/>
      <point x="515" y="2118"/>
      <point x="492" y="2051"/>
      <point x="505" y="2000" type="qcurve"/>
      <point x="337" y="2000" type="line"/>
      <point x="306" y="2131"/>
      <point x="393" y="2312"/>
      <point x="519" y="2312" type="qcurve" smooth="yes"/>
      <point x="568" y="2312"/>
      <point x="657" y="2267"/>
      <point x="738" y="2209"/>
      <point x="808" y="2164"/>
      <point x="837" y="2164" type="qcurve" smooth="yes"/>
      <point x="867" y="2164"/>
      <point x="891" y="2231"/>
      <point x="877" y="2282" type="qcurve"/>
      <point x="1045" y="2282" type="line"/>
      <point x="1077" y="2152"/>
      <point x="989" y="1970"/>
    </contour>
    <contour>
      <point x="40" y="0" type="line"/>
      <point x="480" y="1440" type="line"/>
      <point x="886" y="1440" type="line"/>
      <point x="1326" y="0" type="line"/>
      <point x="1046" y="0" type="line"/>
      <point x="654" y="1270" type="line"/>
      <point x="706" y="1270" type="line"/>
      <point x="320" y="0" type="line"/>
    </contour>
    <contour>
      <point x="304" y="300" type="line"/>
      <point x="304" y="554" type="line"/>
      <point x="1064" y="554" type="line"/>
      <point x="1064" y="300" type="line"/>
    </contour>
  </outline>
</glyph>
